<?xml version="1.0" encoding="UTF-8"?>
<svg width="24px" height="24px" viewBox="0 0 24 24" version="1.1" xmlns="http://www.w3.org/2000/svg" xmlns:xlink="http://www.w3.org/1999/xlink">
    <!-- Generator: Sketch 52.5 (67469) - http://www.bohemiancoding.com/sketch -->
    <title>icon/database/download-files</title>
    <desc>Created with Sketch.</desc>
    <g id="icon/database/download-files" stroke="none" stroke-width="1" fill="none" fill-rule="evenodd">
        <g id="Group-2" transform="translate(1.000000, 1.000000)">
            <g id="file28-copy" transform="translate(2.473684, 0.000000)">
                <polygon id="Path-2" fill="#D8D8D8" fill-rule="nonzero" points="2.17840255 17.3684211 15.3415399 17.4532278 15.3483244 5.79908512 10.4600637 0.971319901 2.13373766 1.07139186"></polygon>
                <path d="M15.9954474,5.5255472 C15.8382632,5.14222891 15.6496711,4.83889724 15.4295263,4.61525815 L11.7503158,0.877647452 C11.5301711,0.654155388 11.2315789,0.462422723 10.85425,0.302596491 C10.4769211,0.142917293 10.131,0.0630776942 9.81663158,0.0630776942 L2.26932895,0.0630776942 C1.95496053,0.0630776942 1.68763158,0.174823726 1.46748684,0.398462824 C1.24734211,0.621954887 1.13734211,0.893527151 1.13734211,1.21303258 L1.13734211,17.3132832 C1.13734211,17.6327886 1.24734211,17.9043609 1.46748684,18.127853 C1.68763158,18.351345 1.95496053,18.4632381 2.26932895,18.4632381 L15.0993816,18.4632381 C15.41375,18.4632381 15.6809342,18.351345 15.9009342,18.127853 C16.1210789,17.9042139 16.2310789,17.6327886 16.2310789,17.3132832 L16.2310789,6.57978279 C16.2312237,6.26027736 16.1526316,5.9088655 15.9954474,5.5255472 L15.9954474,5.5255472 Z M10.1938158,1.69221721 C10.4216316,1.77205681 10.5828684,1.85998329 10.6772368,1.95570259 L14.3683158,5.70537009 C14.4623947,5.80123642 14.5489474,5.96488555 14.6275395,6.19646449 L10.1938158,6.19646449 L10.1938158,1.69221721 L10.1938158,1.69221721 Z M14.7219079,16.9299649 L2.64665789,16.9299649 L2.64665789,1.59649791 L8.68421053,1.59649791 L8.68421053,6.57992982 C8.68421053,6.89943525 8.79421053,7.17086048 9.01435526,7.39449958 C9.2345,7.61799165 9.50168421,7.72988471 9.81634211,7.72988471 L14.7219079,7.72988471 L14.7219079,16.9299649 L14.7219079,16.9299649 Z" id="Shape" fill="#4A4A4A"></path>
            </g>
            <g id="file28-copy" transform="translate(0.000000, 2.315789)">
                <polygon id="Path-2" fill="#D8D8D8" fill-rule="nonzero" points="1.17840255 17.3684211 14.3415399 17.4532278 14.3483244 5.79908512 9.46006373 0.971319901 1.13373766 1.07139186"></polygon>
                <path d="M14.9954474,5.5255472 C14.8382632,5.14222891 14.6496711,4.83889724 14.4295263,4.61525815 L10.7503158,0.877647452 C10.5301711,0.654155388 10.2315789,0.462422723 9.85425,0.302596491 C9.47692105,0.142917293 9.131,0.0630776942 8.81663158,0.0630776942 L1.26932895,0.0630776942 C0.954960526,0.0630776942 0.687631579,0.174823726 0.467486842,0.398462824 C0.247342105,0.621954887 0.137342105,0.893527151 0.137342105,1.21303258 L0.137342105,17.3132832 C0.137342105,17.6327886 0.247342105,17.9043609 0.467486842,18.127853 C0.687631579,18.351345 0.954960526,18.4632381 1.26932895,18.4632381 L14.0993816,18.4632381 C14.41375,18.4632381 14.6809342,18.351345 14.9009342,18.127853 C15.1210789,17.9042139 15.2310789,17.6327886 15.2310789,17.3132832 L15.2310789,6.57978279 C15.2312237,6.26027736 15.1526316,5.9088655 14.9954474,5.5255472 L14.9954474,5.5255472 Z M9.19381579,1.69221721 C9.42163158,1.77205681 9.58286842,1.85998329 9.67723684,1.95570259 L13.3683158,5.70537009 C13.4623947,5.80123642 13.5489474,5.96488555 13.6275395,6.19646449 L9.19381579,6.19646449 L9.19381579,1.69221721 L9.19381579,1.69221721 Z M13.7219079,16.9299649 L1.64665789,16.9299649 L1.64665789,1.59649791 L7.68421053,1.59649791 L7.68421053,6.57992982 C7.68421053,6.89943525 7.79421053,7.17086048 8.01435526,7.39449958 C8.2345,7.61799165 8.50168421,7.72988471 8.81634211,7.72988471 L13.7219079,7.72988471 L13.7219079,16.9299649 L13.7219079,16.9299649 Z" id="Shape" fill="#4A4A4A"></path>
            </g>
            <g id="Group-Copy" transform="translate(10.578947, 11.578947)" stroke="#4A4A4A">
                <circle id="Oval" fill="#D8D8D8" cx="5.21052632" cy="5.21052632" r="5.21052632"></circle>
                <path d="M5.21052632,2.31578947 L5.21052632,8.10526316" id="Shape" stroke-linecap="round" stroke-linejoin="round"></path>
                <polyline id="Shape-Copy" stroke-linecap="round" stroke-linejoin="round" transform="translate(5.210526, 6.947368) rotate(-180.000000) translate(-5.210526, -6.947368) " points="2.89473684 8.10526316 5.21052632 5.78947368 7.52631579 8.10526316"></polyline>
            </g>
        </g>
    </g>
</svg>