<?xml version="1.0" encoding="UTF-8"?>
<svg width="35px" height="35px" viewBox="0 0 35 35" version="1.1" xmlns="http://www.w3.org/2000/svg" xmlns:xlink="http://www.w3.org/1999/xlink">
    <!-- Generator: Sketch 50.2 (55047) - http://www.bohemiancoding.com/sketch -->
    <title>icon/help/main-simple</title>
    <desc>Created with Sketch.</desc>
    <defs></defs>
    <g id="icon/help/main-simple" stroke="none" stroke-width="1" fill="none" fill-rule="evenodd">
        <g id="Group-4">
            <path d="M0,33.2954712 C0,33.2954712 8.3,35.0433293 11.3,32.2673195 C13.5,33.3982864 15.9,34.0151775 18.6,34.0151775 C27.6,34.0151775 35,26.4068543 35,17.1534884 C35,7.79730722 27.7,0.291799266 18.6,0.291799266 C9.6,0.291799266 2.2,7.9001224 2.2,17.1534884 C2.2,19.6210526 2.7,22.0886169 3.7,24.1449204 C3.7,24.1449204 4.6,28.6687882 0,33.2954712 Z" id="Shape" fill="#FFFFFF" transform="translate(17.500000, 17.153488) scale(-1, 1) translate(-17.500000, -17.153488) "></path>
            <path d="M11.0546875,13.4257812 C11.0546875,12.68359 11.2929664,11.9316444 11.7695312,11.1699219 C12.2460961,10.4081993 12.9414017,9.77734625 13.8554688,9.27734375 C14.7695358,8.77734125 15.8359314,8.52734375 17.0546875,8.52734375 C18.1875057,8.52734375 19.1874957,8.73632604 20.0546875,9.15429688 C20.9218793,9.57226771 21.5917945,10.1406214 22.0644531,10.859375 C22.5371117,11.5781286 22.7734375,12.3593708 22.7734375,13.203125 C22.7734375,13.8671908 22.6386732,14.4492162 22.3691406,14.9492188 C22.099608,15.4492213 21.7792987,15.8808576 21.4082031,16.2441406 C21.0371075,16.6074237 20.3710986,17.2187457 19.4101562,18.078125 C19.1445299,18.3203137 18.9316414,18.5332022 18.7714844,18.7167969 C18.6113273,18.9003915 18.4921879,19.0683586 18.4140625,19.2207031 C18.3359371,19.3730476 18.2753908,19.5253899 18.2324219,19.6777344 C18.1894529,19.8300789 18.1250004,20.0976543 18.0390625,20.4804688 C17.8906243,21.2929728 17.4257852,21.6992188 16.6445312,21.6992188 C16.2382792,21.6992188 15.8964858,21.5664076 15.6191406,21.3007812 C15.3417955,21.0351549 15.203125,20.6406276 15.203125,20.1171875 C15.203125,19.4609342 15.3046865,18.8925805 15.5078125,18.4121094 C15.7109385,17.9316382 15.9804671,17.5097674 16.3164062,17.1464844 C16.6523454,16.7832013 17.1054659,16.351565 17.6757812,15.8515625 C18.1757838,15.4140603 18.5371083,15.0839855 18.7597656,14.8613281 C18.982423,14.6386708 19.1699211,14.3906264 19.3222656,14.1171875 C19.4746101,13.8437486 19.5507812,13.5468766 19.5507812,13.2265625 C19.5507812,12.6015594 19.3183617,12.0742209 18.8535156,11.6445312 C18.3886696,11.2148416 17.7890662,11 17.0546875,11 C16.1953082,11 15.562502,11.2167947 15.15625,11.6503906 C14.749998,12.0839865 14.4062514,12.722652 14.125,13.5664062 C13.8593737,14.4492232 13.3554725,14.890625 12.6132812,14.890625 C12.1757791,14.890625 11.8066421,14.7363297 11.5058594,14.4277344 C11.2050766,14.1191391 11.0546875,13.785158 11.0546875,13.4257812 Z M16.7734375,26.2695312 C16.2968726,26.2695312 15.8808612,26.1152359 15.5253906,25.8066406 C15.1699201,25.4980453 14.9921875,25.066409 14.9921875,24.5117188 C14.9921875,24.0195288 15.1640608,23.6054704 15.5078125,23.2695312 C15.8515642,22.9335921 16.273435,22.765625 16.7734375,22.765625 C17.2656275,22.765625 17.6796858,22.9335921 18.015625,23.2695312 C18.3515642,23.6054704 18.5195312,24.0195288 18.5195312,24.5117188 C18.5195312,25.0585965 18.3437518,25.4882797 17.9921875,25.8007812 C17.6406232,26.1132828 17.2343773,26.2695312 16.7734375,26.2695312 Z" id="?" fill="#007EA8"></path>
        </g>
    </g>
</svg>