<?xml version="1.0" encoding="UTF-8"?>
<svg width="38px" height="38px" viewBox="0 0 38 38" version="1.1" xmlns="http://www.w3.org/2000/svg" xmlns:xlink="http://www.w3.org/1999/xlink">
    <!-- Generator: Sketch 53.2 (72643) - https://sketchapp.com -->
    <title>icon/main/labboks</title>
    <desc>Created with Sketch.</desc>
    <g id="icon/main/labboks" stroke="none" stroke-width="1" fill="none" fill-rule="evenodd">
        <path d="M34.2,1 L7,1 C6.52,1 6.2,1.32 6.2,1.8 L6.2,5.88 L3.8,5.88 C3.32,5.88 3,6.2 3,6.68 C3,7.16 3.32,7.48 3.8,7.48 L6.2,7.48 L6.2,10.68 L3.8,10.68 C3.32,10.68 3,11 3,11.48 C3,11.96 3.32,12.28 3.8,12.28 L6.2,12.28 L6.2,15.48 L3.8,15.48 C3.32,15.48 3,15.8 3,16.28 C3,16.76 3.32,17.08 3.8,17.08 L6.2,17.08 L6.2,20.28 L3.8,20.28 C3.32,20.28 3,20.6 3,21.08 C3,21.56 3.32,21.88 3.8,21.88 L6.2,21.88 L6.2,25.08 L3.8,25.08 C3.32,25.08 3,25.4 3,25.88 C3,26.36 3.32,26.68 3.8,26.68 L6.2,26.68 L6.2,29.88 L3.8,29.88 C3.32,29.88 3,30.2 3,30.68 C3,31.16 3.32,31.48 3.8,31.48 L6.2,31.48 L6.2,35.56 C6.2,36.04 6.52,36.36 7,36.36 L34.2,36.36 C34.68,36.36 35,36.04 35,35.56 L35,1.8 C35,1.4 34.68,1 34.2,1 Z M33.4,34.76 L7.8,34.76 L7.8,31.48 L8.6,31.48 C9.08,31.48 9.4,31.16 9.4,30.68 C9.4,30.2 9.08,29.88 8.6,29.88 L7.8,29.88 L7.8,26.68 L8.6,26.68 C9.08,26.68 9.4,26.36 9.4,25.88 C9.4,25.4 9.08,25.08 8.6,25.08 L7.8,25.08 L7.8,21.88 L8.6,21.88 C9.08,21.88 9.4,21.56 9.4,21.08 C9.4,20.6 9.08,20.28 8.6,20.28 L7.8,20.28 L7.8,17.08 L8.6,17.08 C9.08,17.08 9.4,16.76 9.4,16.28 C9.4,15.8 9.08,15.48 8.6,15.48 L7.8,15.48 L7.8,12.28 L8.6,12.28 C9.08,12.28 9.4,11.96 9.4,11.48 C9.4,11 9.08,10.68 8.6,10.68 L7.8,10.68 L7.8,7.48 L8.6,7.48 C9.08,7.48 9.4,7.16 9.4,6.68 C9.4,6.2 9.08,5.88 8.6,5.88 L7.8,5.88 L7.8,2.6 L33.4,2.6 L33.4,34.76 Z M12.6,21.08 C12.6,20.6 12.92,20.28 13.4,20.28 L27.8,20.28 C28.28,20.28 28.6,20.6 28.6,21.08 C28.6,21.56 28.28,21.88 27.8,21.88 L13.4,21.88 C12.92,21.88 12.6,21.56 12.6,21.08 Z M12.6,25.88 C12.6,25.4 12.92,25.08 13.4,25.08 L27.8,25.08 C28.28,25.08 28.6,25.4 28.6,25.88 C28.6,26.36 28.28,26.68 27.8,26.68 L13.4,26.68 C12.92,26.68 12.6,26.36 12.6,25.88 Z M12.6,16.28 C12.6,15.8 12.92,15.48 13.4,15.48 L27.8,15.48 C28.28,15.48 28.6,15.8 28.6,16.28 C28.6,16.76 28.28,17.08 27.8,17.08 L13.4,17.08 C12.92,17.08 12.6,16.76 12.6,16.28 Z M12.6,11.48 C12.6,11 12.92,10.68 13.4,10.68 L27.8,10.68 C28.28,10.68 28.6,11 28.6,11.48 C28.6,11.96 28.28,12.28 27.8,12.28 L13.4,12.28 C12.92,12.28 12.6,11.96 12.6,11.48 Z" id="lab-book-icon-copy" fill="#9b9c9e" fill-rule="nonzero"></path>
    </g>
</svg>