<?xml version="1.0" encoding="UTF-8"?>
<svg width="48px" height="48px" viewBox="0 0 48 48" version="1.1" xmlns="http://www.w3.org/2000/svg" xmlns:xlink="http://www.w3.org/1999/xlink">
    <!-- Generator: Sketch 53.2 (72643) - https://sketchapp.com -->
    <title>icon/global/edit</title>
    <desc>Created with Sketch.</desc>
    <g id="icon/global/edit" stroke="none" stroke-width="1" fill="none" fill-rule="evenodd">
        <g id="icon/general/edit-action" transform="translate(13.000000, 14.000000)" fill="#FFFFF" fill-rule="nonzero">
            <path d="M15.8284271,2 C14.7238576,2 13.8284271,1.1045695 13.8284271,3.7454706e-09 C13.8284271,-1.1045695 14.7238576,-2 15.8284271,-2 L20,-2 C22.209139,-2 24,-0.209138998 24,2 L24,20 C24,22.209139 22.209139,24 20,24 L2,24 C-0.209138996,24 -2,22.209139 -2,20 L-2,15 C-2,13.8954305 -1.1045695,13 3.25058913e-09,13 C1.1045695,13 2,13.8954305 2,15 L2,20 L20,20 L20,2 L15.8284271,2 Z" id="Rectangle-2" transform="translate(11.000000, 11.000000) rotate(-270.000000) translate(-11.000000, -11.000000) "></path>
        </g>
        <g id="Group" transform="translate(29.849242, 19.313708) rotate(-315.000000) translate(-29.849242, -19.313708) translate(26.849242, 5.313708)" fill="#FFFFF">
            <path d="M1.19238816,0.878679656 L4.69238816,0.878678408 C5.24467291,0.878678408 5.69238816,1.32639366 5.69238816,1.87867841 C5.69238816,1.87867882 5.69238816,1.87867924 5.69238816,1.87867966 L5.69238931,21.7101329 C5.69238918,21.8177691 5.67501192,21.9246993 5.64092824,22.0267966 C4.33855094,25.928052 3.44433714,27.8786797 2.95828684,27.8786797 C2.47233219,27.8786797 1.56804363,25.9288196 0.245421177,22.0290995 L0.245375315,22.029115 C0.210287652,21.9256599 0.192388155,21.8171546 0.192388155,21.7079113 L0.192388155,1.87867966 C0.192388155,1.32639491 0.640103406,0.878679656 1.19238816,0.878679656 Z" id="Rectangle" transform="translate(2.942388, 14.378680) rotate(-360.000000) translate(-2.942388, -14.378680) "></path>
        </g>
    </g>
</svg>