<?xml version="1.0" encoding="UTF-8"?>
<svg width="36px" height="36px" viewBox="0 0 36 36" version="1.1" xmlns="http://www.w3.org/2000/svg" xmlns:xlink="http://www.w3.org/1999/xlink">
    <!-- Generator: Sketch 48.2 (47327) - http://www.bohemiancoding.com/sketch -->
    <title>icon/activity/object-branch</title>
    <desc>Created with Sketch.</desc>
    <defs></defs>
    <g id="Icons" stroke="none" stroke-width="1" fill="none" fill-rule="evenodd">
        <g id="icon/activity/object-branch" stroke="#007EA8" stroke-width="2">
            <path d="M33.4545455,35 L2.54545455,35 C1.69545455,35 1,34.3045455 1,33.4545455 L1,2.54545455 C1,1.69545455 1.69545455,1 2.54545455,1 L33.4545455,1 C34.3045455,1 35,1.69545455 35,2.54545455 L35,33.4545455 C35,34.3045455 34.3045455,35 33.4545455,35 Z" id="Shape"></path>
            <g id="Control-&amp;-Navigation_2-1-arrow" transform="translate(5.000000, 11.000000)" stroke-linecap="round">
                <polyline id="Shape" stroke-linejoin="round" points="20.5 0.5 23 3 20.5 5.5"></polyline>
                <polyline id="Shape" stroke-linejoin="round" points="20.5 9.5 23 12 20.5 14.5"></polyline>
                <path d="M22,3 L11.3902394,3 C8.96557721,3 7,4.95589613 7,7.44117521 L7,7.47059441 C7,9.9558735 8.96557721,12 11.3902394,12 L21.6341463,12" id="Shape" stroke-linejoin="round"></path>
                <path d="M0.5,7.5 L7.01920241,7.5" id="Line"></path>
            </g>
        </g>
    </g>
</svg>