<svg xmlns="http://www.w3.org/2000/svg" width="28" height="28" viewBox="0 0 28 28">
    <g fill="none" fill-rule="evenodd" transform="translate(-1)">
        <circle cx="14.574" cy="13.926" r="13.926" fill="#F8F8F8" transform="matrix(1 0 0 -1 .5 28)"/>
        <path fill="#274686" fill-rule="nonzero" d="M20.01 9.185c.055-.056.13-.083.222-.083.093 0 .177.027.25.083l.78.807c.074.056.112.13.112.223s-.038.176-.112.25l-8.35 8.35c-.055.056-.13.083-.222.083-.093 0-.176-.027-.25-.083l-3.702-3.73c-.074-.055-.112-.13-.112-.222 0-.093.038-.176.112-.25l.78-.78c.073-.074.157-.111.25-.111.092 0 .167.037.222.111l2.7 2.7 7.32-7.348z"/>
    </g>
</svg>
