<?xml version="1.0" encoding="iso-8859-1"?>
<!-- Generator: Adobe Illustrator 19.0.0, SVG Export Plug-In . SVG Version: 6.00 Build 0)  -->
<svg version="1.1" id="Capa_1" xmlns="http://www.w3.org/2000/svg" xmlns:xlink="http://www.w3.org/1999/xlink" x="0px" y="0px" viewBox="0 0 427.122 427.122" style="enable-background:new 0 0 427.122 427.122;" xml:space="preserve">
  <g transform="matrix(1.25 0 0 -1.25 0 45)">
    <g>
      <g>
        <path
          style="fill:#1ad8c1;"
          d="M219.25-134.712L331.696-22.266c13.335,13.323,13.335,34.941,0,48.265s-34.941,13.335-48.265,0
				L170.985-86.448L58.539,25.999c-13.323,13.335-34.941,13.335-48.276,0C-3.061,12.676-3.061-8.942,10.274-22.277l112.447-112.435
				l-112.72-112.72c-13.335-13.323-13.335-34.941,0-48.265c6.667-6.667,15.406-10.001,24.132-10.001
				c8.738,0,17.476,3.334,24.144,10.001l112.708,112.708l112.447-112.435c6.667-6.656,15.394-9.99,24.132-9.99
				c8.727,0,17.465,3.334,24.132,9.99c13.335,13.323,13.335,34.953,0,48.276L219.25-134.712z"/>
      </g>
    </g>
  </g>
  <g></g>
  <g></g>
  <g></g>
  <g></g>
  <g></g>
  <g></g>
  <g></g>
  <g></g>
  <g></g>
  <g></g>
  <g></g>
  <g></g>
  <g></g>
  <g></g>
  <g></g>
</svg>