<?xml version="1.0" encoding="UTF-8"?>
<svg width="27px" height="26px" viewBox="0 0 27 26" version="1.1" xmlns="http://www.w3.org/2000/svg" xmlns:xlink="http://www.w3.org/1999/xlink">
    <!-- Generator: Sketch 55 (78076) - https://sketchapp.com -->
    <title>126477</title>
    <desc>Created with Sketch.</desc>
    <g id="Enviroment-Tab-Final" stroke="none" stroke-width="1" fill="none" fill-rule="evenodd" opacity="0.644042969">
        <g id="Add-Packages-1B" transform="translate(-536.000000, -260.000000)" fill="#9B9C9E" fill-rule="nonzero">
            <g id="Group-3-Copy" transform="translate(363.000000, 260.930663)">
                <g id="126477" transform="translate(173.353445, 0.000000)">
                    <path d="M21.5727273,6.42545455 C21.2890909,4.74 20.4545455,3.20181818 19.1781818,2.03454545 C17.76,0.736363636 15.9163636,0.0218181818 13.9963636,0.0218181818 C12.5127273,0.0218181818 11.0672727,0.447272727 9.82909091,1.24909091 C8.79818182,1.91454545 7.94181818,2.81454545 7.33636364,3.87272727 C7.07454545,3.82363636 6.80181818,3.79636364 6.52909091,3.79636364 C4.21090909,3.79636364 2.32363636,5.68363636 2.32363636,8.00181818 C2.32363636,8.30181818 2.35636364,8.59090909 2.41090909,8.87454545 C0.910909091,9.96545455 0,11.7218182 0,13.5927273 C0,15.1036364 0.561818182,16.5709091 1.58727273,17.7327273 C2.64,18.9218182 4.03090909,19.6254545 5.51454545,19.7072727 C5.53090909,19.7072727 5.54181818,19.7072727 5.55818182,19.7072727 L10.2490909,19.7072727 C10.6581818,19.7072727 10.9854545,19.38 10.9854545,18.9709091 C10.9854545,18.5618182 10.6581818,18.2345455 10.2490909,18.2345455 L5.58,18.2345455 C3.34909091,18.0981818 1.47272727,15.9763636 1.47272727,13.5872727 C1.47272727,12.0436364 2.30181818,10.6036364 3.63818182,9.82363636 C3.94909091,9.64363636 4.08,9.26727273 3.96,8.92909091 C3.85090909,8.63454545 3.79636364,8.32363636 3.79636364,7.99090909 C3.79636364,6.48545455 5.02363636,5.25818182 6.52909091,5.25818182 C6.85090909,5.25818182 7.16727273,5.31272727 7.46181818,5.42181818 C7.82181818,5.55272727 8.22,5.38909091 8.38363636,5.04545455 C9.40363636,2.88 11.6072727,1.48363636 14.0018182,1.48363636 C17.22,1.48363636 19.8763636,3.89454545 20.1818182,7.09090909 C20.2145455,7.42363636 20.4654545,7.69090909 20.7927273,7.74545455 C23.22,8.16 25.0527273,10.4018182 25.0527273,12.96 C25.0527273,15.6709091 22.92,18.0272727 20.2909091,18.2290909 L16.2709091,18.2290909 C15.8618182,18.2290909 15.5345455,18.5563636 15.5345455,18.9654545 C15.5345455,19.3745455 15.8618182,19.7018182 16.2709091,19.7018182 L20.3181818,19.7018182 C20.3345455,19.7018182 20.3509091,19.7018182 20.3727273,19.7018182 C22.0363636,19.5818182 23.5909091,18.8181818 24.7472727,17.5418182 C25.8981818,16.2763636 26.5254545,14.6509091 26.5254545,12.96 C26.52,9.9 24.4309091,7.17818182 21.5727273,6.42545455 Z" id="Path"></path>
                    <path d="M17.6836364,14.2909091 C17.9727273,14.0018182 17.9727273,13.5381818 17.6836364,13.2490909 L13.7836364,9.34909091 C13.6472727,9.21272727 13.4563636,9.13090909 13.2654545,9.13090909 C13.0745455,9.13090909 12.8836364,9.20727273 12.7472727,9.34909091 L8.84727273,13.2490909 C8.55818182,13.5381818 8.55818182,14.0018182 8.84727273,14.2909091 C8.98909091,14.4327273 9.18,14.5090909 9.36545455,14.5090909 C9.55090909,14.5090909 9.74181818,14.4381818 9.88363636,14.2909091 L12.5290909,11.6454545 L12.5290909,23.8036364 C12.5290909,24.2127273 12.8563636,24.54 13.2654545,24.54 C13.6745455,24.54 14.0018182,24.2127273 14.0018182,23.8036364 L14.0018182,11.6454545 L16.6472727,14.2909091 C16.9309091,14.58 17.3945455,14.58 17.6836364,14.2909091 Z" id="Path"></path>
                </g>
            </g>
        </g>
    </g>
</svg>