<?xml version="1.0" encoding="UTF-8"?>
<svg width="24px" height="24px" viewBox="0 0 24 24" version="1.1" xmlns="http://www.w3.org/2000/svg" xmlns:xlink="http://www.w3.org/1999/xlink">
    <!-- Generator: Sketch 55.2 (78181) - https://sketchapp.com -->
    <title>Group 6</title>
    <desc>Created with Sketch.</desc>
    <defs>
        <polygon id="path-1" points="0 0.0719107807 23.1839362 0.0719107807 23.1839362 23.1712515 0 23.1712515"></polygon>
    </defs>
    <g id="Enviroment-Tab-Final" stroke="none" stroke-width="1" fill="none" fill-rule="evenodd">
        <g id="Projects-Enviroment:-Home-Expanded-2" transform="translate(-1010.000000, -1610.000000)">
            <g id="Group-16" transform="translate(170.000000, 1451.232794)">
                <g id="Group-5" transform="translate(817.000000, 62.767206)">
                    <g id="Group-8" transform="translate(0.000000, 87.000000)">
                        <g id="Group-6" transform="translate(23.000000, 8.239777)">
                            <g id="Group-3" transform="translate(0.000000, 0.727098)">
                                <mask id="mask-2" fill="white">
                                    <use xlink:href="#path-1"></use>
                                </mask>
                                <g id="Clip-2"></g>
                                <path d="M13.03992,0.0719107807 L10.09592,0.0719107807 C9.47752,0.073508798 8.96152,0.543325898 8.90392,1.15856258 L8.75192,2.75657993 C8.24552,2.91877869 7.75352,3.12172689 7.27992,3.36382652 L6.02392,2.31712515 C5.55192,1.92640991 4.85912,1.95757125 4.42392,2.38903594 L2.32792,4.46645849 C1.89592,4.90111921 1.86472,5.59306072 2.25592,6.06447584 L3.29592,7.32690954 C3.04712,7.79672664 2.84312,8.28891599 2.68792,8.7970855 L1.08792,8.94090706 C0.46952,8.99843569 -0.00248,9.51859033 -8.91115551e-05,10.1394201 L-8.91115551e-05,13.079772 C0.00152,13.6974057 0.47272,14.2127663 1.08792,14.2702949 L2.68792,14.4221066 C2.84552,14.9318741 3.04952,15.4272595 3.29592,15.9002726 L2.26392,17.1467261 C1.87272,17.6189403 1.90392,18.3100828 2.33592,18.7447435 L4.41592,20.822166 C4.64152,21.0458885 4.94632,21.1721318 5.26392,21.1737299 C5.55672,21.184117 5.84152,21.0842409 6.06392,20.8940768 L7.30392,19.8633556 C7.78072,20.1134454 8.27912,20.3227856 8.79192,20.4865824 L8.94392,22.0845998 C9.00152,22.6990374 9.51752,23.1696535 10.13592,23.1712515 L13.07992,23.1712515 C13.69992,23.1704525 14.21912,22.7006354 14.27992,22.0845998 L14.42392,20.4865824 C14.93752,20.3243836 15.43592,20.1150434 15.91192,19.8633556 L17.15992,20.8940768 C17.38232,21.0842409 17.66792,21.184117 17.95992,21.1737299 C18.25592,21.1785239 18.54232,21.0762508 18.76792,20.8860867 L20.84792,18.8086642 C21.27272,18.3708074 21.30392,17.685258 20.92072,17.2106468 L19.87992,15.9641933 C20.13112,15.4887831 20.33672,14.9910007 20.49592,14.4780372 L22.09592,14.3342156 C22.71192,14.276687 23.18312,13.7613264 23.1839362,13.1436927 L23.1839362,10.1873606 C23.18712,9.56653086 22.71512,9.04637621 22.09592,8.98884758 L20.49592,8.84502602 C20.33672,8.33845452 20.13352,7.84626518 19.88872,7.37485006 L20.92792,6.11241636 C21.30792,5.6370062 21.27752,4.95385378 20.85672,4.51439901 L18.76792,2.42099628 C18.53192,2.18848476 18.21192,2.06144238 17.87992,2.06943247 C17.60152,2.06943247 17.33192,2.16930855 17.12072,2.3490855 L15.85672,3.39578686 C15.38552,3.15368724 14.89512,2.95073903 14.39192,2.78854027 L14.23992,1.19052292 C14.17832,0.574487237 13.65992,0.105469145 13.03992,0.103871128 L13.03992,0.0719107807 Z M13.03992,1.27042379 L13.27192,3.73936059 C14.23352,3.94071078 15.15112,4.31704387 15.97592,4.84998265 L17.87992,3.2519653 L19.96792,5.33737794 L18.36792,7.23901859 C18.91032,8.06359554 19.29272,8.98245551 19.49592,9.94765799 L21.95272,10.1713804 L21.95272,13.1117323 L19.47992,13.3354548 C19.46952,13.4545071 19.44872,13.5719613 19.41592,13.6870186 C19.20312,14.5371638 18.85272,15.3473586 18.37592,16.0840446 L19.97592,17.9697051 L17.89592,20.0471276 L15.99992,18.4491103 C15.16952,18.9924362 14.24392,19.3743623 13.27192,19.5757125 L13.03992,22.0446493 L10.09592,22.0446493 L9.87192,19.5996828 C8.90072,19.3967346 7.97512,19.0140094 7.14392,18.4730805 L5.25592,20.0710979 L3.17592,17.9936753 L4.77592,16.1080149 C4.24072,15.2746488 3.86152,14.3517938 3.65592,13.3833953 L1.16792,13.1277125 L1.16792,10.1873606 L3.63192,9.96363817 C3.83192,8.99843569 4.21192,8.07957571 4.75192,7.25499876 L3.15192,5.34536803 L5.23192,3.26794548 L7.13592,4.86596283 C7.96392,4.33222503 8.88312,3.95589195 9.84792,3.75534077 L10.09592,1.27042379 L13.03992,1.27042379 L13.03992,1.27042379 Z" id="Fill-1" fill="#00487C" mask="url(#mask-2)"></path>
                            </g>
                            <path d="M11.568,8.98884758 C9.6904,8.98884758 8.168,10.5093611 8.168,12.3846344 C8.168,14.2599078 9.6904,15.7804213 11.568,15.7804213 C13.4464,15.7804213 14.9680384,14.2599078 14.9680384,12.3846344 C14.972,11.5496704 14.6632,10.7434706 14.104,10.1234399 C13.4576,9.40353309 12.536,8.99124461 11.568,8.98884758 M11.568,16.9789343 C9.0272,16.9789343 6.968,14.922286 6.968,12.3846344 C6.968,9.8469829 9.0272,7.79033457 11.568,7.79033457 C14.1088,7.79033457 16.168,9.8469829 16.168,12.3846344 C16.1632,14.919889 14.1072,16.9749393 11.568,16.9789343" id="Fill-4" fill="#00487C"></path>
                        </g>
                    </g>
                </g>
            </g>
        </g>
    </g>
</svg>