<?xml version="1.0" encoding="UTF-8"?>
<svg width="38px" height="38px" viewBox="0 0 38 38" version="1.1" xmlns="http://www.w3.org/2000/svg" xmlns:xlink="http://www.w3.org/1999/xlink">
    <!-- Generator: Sketch 48.2 (47327) - http://www.bohemiancoding.com/sketch -->
    <title>icon/main/datasets</title>
    <desc>Created with Sketch.</desc>
    <defs></defs>
    <g id="Icons" stroke="none" stroke-width="1" fill="none" fill-rule="evenodd" stroke-linecap="round" stroke-linejoin="round">
        <g id="icon/main/datasets" stroke="#E3E4E5" stroke-width="2">
            <g id="image-video_files" transform="translate(2.000000, 2.000000)">
                <path d="M15.5930059,0.551996534 L1.53864218,7.36983736 C0.293108857,7.97405208 0.293108857,9.69854061 1.53864218,10.3027553 L15.5930055,17.120597 C16.5445083,17.5821756 17.6644755,17.5821756 18.6159783,17.120597 L32.6703416,10.3027553 C33.9158757,9.69854061 33.9158757,7.97405208 32.6703416,7.36983736 L18.6159787,0.551996534 C17.664476,0.0904179016 16.5445087,0.0904179016 15.5930059,0.551996534 Z" id="Shape"></path>
                <path d="M0.604492188,15.2350281 L15.6286871,22.6995533 C16.557728,23.1611319 17.6512564,23.1611319 18.5802972,22.6995533 L33.6044922,15.2350281" id="Shape"></path>
                <path d="M0.604492188,20.7001973 L15.6286871,28.1647209 C16.557728,28.6263011 17.6512564,28.6263011 18.5802972,28.1647209 L33.6044922,20.7001973" id="Shape"></path>
                <path d="M0.604492188,25.7001973 L15.6286871,33.1647209 C16.557728,33.6263011 17.6512564,33.6263011 18.5802972,33.1647209 L33.6044922,25.7001973" id="Shape-Copy"></path>
            </g>
        </g>
    </g>
</svg>
