<?xml version="1.0" encoding="UTF-8"?>
<svg width="24px" height="24px" viewBox="0 0 24 24" version="1.1" xmlns="http://www.w3.org/2000/svg" xmlns:xlink="http://www.w3.org/1999/xlink">
    <!-- Generator: Sketch 52.5 (67469) - http://www.bohemiancoding.com/sketch -->
    <title>icon/browser/database-add</title>
    <desc>Created with Sketch.</desc>
    <g id="icon/browser/database-add" stroke="none" stroke-width="1" fill="none" fill-rule="evenodd">
        <g id="Group-9" transform="translate(3.000000, 4.000000)" stroke="#9b9c9e">
            <g id="image-video_files" stroke-linecap="round" stroke-linejoin="round" stroke-width="1.5">
                <path d="M7.26715818,0.16044707 L0.452921208,3.32033506 C-0.150973736,3.60037251 -0.150973736,4.39962711 0.452921208,4.67966456 L7.26715797,7.83955293 C7.72849265,8.05348236 8.27150708,8.05348236 8.73284175,7.83955293 L15.5470785,4.67966456 C16.1509738,4.39962711 16.1509738,3.60037251 15.5470785,3.32033506 L8.73284195,0.16044707 C8.27150728,-0.0534823565 7.72849285,-0.0534823565 7.26715818,0.16044707 Z" id="Shape"></path>
                <path d="M0,7.5 L7.28445816,11.3227132 C7.7349022,11.5590956 8.2650978,11.5590956 8.71554184,11.3227132 L16,7.5" id="Shape"></path>
                <path d="M0,11 L7.28445816,14.8227126 C7.7349022,15.0590958 8.2650978,15.0590958 8.71554184,14.8227126 L16,11" id="Shape"></path>
            </g>
            <g id="Group" transform="translate(8.000000, 8.000000)">
                <circle id="Oval" fill="#FFFFFF" cx="4.5" cy="4.5" r="4.5"></circle>
                <path d="M4.5,2 L4.5,7" id="Shape" stroke-linecap="round" stroke-linejoin="round"></path>
                <path d="M7,4.5 L2,4.5" id="Shape" stroke-linecap="round"></path>
            </g>
        </g>
    </g>
</svg>