<svg id="Layer_1" data-name="Layer 1" xmlns="http://www.w3.org/2000/svg" xmlns:xlink="http://www.w3.org/1999/xlink" viewBox="0 0 257.69 171.47"><defs><style>.cls-1{fill:none;}.cls-2{clip-path:url(#clip-path);}.cls-3{fill:#9a9b9d;}</style><clipPath id="clip-path" transform="translate(28.74 -26.24)"><path class="cls-1" d="M23.85,115.28H168.36l-27.5,27.5a3.32,3.32,0,0,0,4.69,4.7l33.15-33.16c.1-.09.13-.21.21-.3a3.38,3.38,0,0,0,.51-.78,3,3,0,0,0,.18-.89,2.33,2.33,0,0,0,.08-.38,3.28,3.28,0,0,0-.18-.88c0-.12,0-.25-.07-.37a3.25,3.25,0,0,0-.77-1.13L145.55,76.48a3.32,3.32,0,0,0-4.69,4.69l27.49,27.48H23.85a3.32,3.32,0,1,0,0,6.63Z"/></clipPath></defs><title>deadend</title><g class="cls-2"><rect class="cls-3" width="257.69" height="171.47"/></g><path class="cls-3" d="M193.72,149.42a3.7,3.7,0,0,1-3.69-3.7V70.83a3.7,3.7,0,1,1,7.39,0v74.89A3.7,3.7,0,0,1,193.72,149.42Z" transform="translate(28.74 -26.24)"/></svg>
