<?xml version="1.0" encoding="UTF-8"?>
<svg width="29px" height="29px" viewBox="0 0 29 29" version="1.1" xmlns="http://www.w3.org/2000/svg" xmlns:xlink="http://www.w3.org/1999/xlink">
    <!-- Generator: Sketch 50.2 (55047) - http://www.bohemiancoding.com/sketch -->
    <title>icon/help/discuss</title>
    <desc>Created with Sketch.</desc>
    <defs></defs>
    <g id="icon/help/discuss" stroke="none" stroke-width="1" fill="none" fill-rule="evenodd" stroke-linejoin="round">
        <g id="Userinterface_comment" transform="translate(2.000000, 3.000000)" stroke="#FFFFFF" stroke-width="2">
            <path d="M20.8604651,8.55813953 C22.4651163,10.055814 23.4813953,12.2488372 23.4813953,14.655814 C23.4813953,15.8860465 23.2139535,17.0627907 22.7325581,18.1325581 C22.7325581,18.1325581 22.3046512,20.3790698 24.6046512,22.6790698 C24.6046512,22.6790698 20.3790698,23.5883721 18.8813953,22.144186 C17.7581395,22.6790698 16.527907,23 15.1906977,23 C12.4627907,23 10.0023256,21.6627907 8.50465116,19.6302326" id="Shape" stroke-linecap="round"></path>
            <path d="M0,17.4372093 C0,17.4372093 4.43953488,18.3465116 6.04418605,16.9023256 C7.22093023,17.4906977 8.50465116,17.8116279 9.94883721,17.8116279 C14.7627907,17.8116279 18.7209302,13.8534884 18.7209302,9.03953488 C18.7209302,4.17209302 14.8162791,0.26744186 9.94883721,0.26744186 C5.13488372,0.26744186 1.17674419,4.2255814 1.17674419,9.03953488 C1.17674419,10.3232558 1.44418605,11.6069767 1.97906977,12.6767442 C1.97906977,12.6767442 2.46046512,15.0302326 0,17.4372093 Z" id="Shape"></path>
        </g>
    </g>
</svg>