<svg id="Layer_1" data-name="Layer 1" xmlns="http://www.w3.org/2000/svg" viewBox="0 0 256 256"><defs><style>.cls-1{fill:#007ea8;}</style></defs><title>Artboard 1</title><g id="_Group_" data-name="&lt;Group&gt;"><g id="_Group_2" data-name="&lt;Group&gt;"><path id="_Compound_Path_" data-name="&lt;Compound Path&gt;" class="cls-1" d="M128.45,28.8A99.66,99.66,0,1,1,28.8,128.45,99.65,99.65,0,0,1,128.45,28.8m0-23.89A123.55,123.55,0,1,0,252,128.45,123.68,123.68,0,0,0,128.45,4.91Z"/><path id="_Path_" data-name="&lt;Path&gt;" class="cls-1" d="M89.26,28.8a72.32,72.32,0,0,0,15.93,22.76,19.8,19.8,0,0,1-8,18.67c-2,1.49-15.93,1-28.62,13.43a21.08,21.08,0,0,0,1.74,10,33.1,33.1,0,0,1-10.08-2.24,19.21,19.21,0,0,0-.74,8.58c.62,5.1,7.59,7.09,7.59,7.09s2.49,7,8.46,10.46c0,0,10.32,2.67,24.32,0,0,0,8.4,6.47,18.48,8.15s14.93,8,14.93,8,.93,20.34-12,37.7-15.11,34.52-15.11,34.52-4.67,5.79-14.19,7.1c0,0-7.09-9.15-8-26.88s1.3-29.49,1.3-29.49-8.39-6.9-14.55-23.14a59.41,59.41,0,0,0,1.12-10.26s-6-6.16-17.92-11c0,0-7.46-14.37-28-16.61C26,95.61,36,50.07,89.26,28.8Z"/><path id="_Path_2" data-name="&lt;Path&gt;" class="cls-1" d="M195.08,41.11s-4.67,11.2-13.25,16c0,0-3.92,5.42-12.88,4.67,0,0-1.12,8-4.85,13.81,0,0,3.73,2.8,11.76,3.36,0,0-7.65,8-22.58,13.62s-19,13.44-19,13.44,3.17,9,14.37,14.84c0,0,13.44-1,24.26,4a95,95,0,0,1,6,33.59c0,19.41,10.45,23.14,10.45,23.14s7.28-9.7,18.67-13.43c0,0-3.18-14.93,6-34,0,0,5.41-9.52,5.6-15.86,0,0-6.16-4.48-7.84-9.52,0,0,15.3,2.24,24.82-1.68Z"/></g></g></svg>
