<?xml version="1.0" encoding="UTF-8"?>
<svg width="36px" height="36px" viewBox="0 0 36 36" version="1.1" xmlns="http://www.w3.org/2000/svg" xmlns:xlink="http://www.w3.org/1999/xlink">
    <!-- Generator: Sketch 48.2 (47327) - http://www.bohemiancoding.com/sketch -->
    <title>icon/activity/object-environment</title>
    <desc>Created with Sketch.</desc>
    <defs></defs>
    <g id="Icons" stroke="none" stroke-width="1" fill="none" fill-rule="evenodd">
        <g id="icon/activity/object-environment" stroke="#007EA8" stroke-width="2">
            <path d="M33.4545455,35 L2.54545455,35 C1.69545455,35 1,34.3045455 1,33.4545455 L1,2.54545455 C1,1.69545455 1.69545455,1 2.54545455,1 L33.4545455,1 C34.3045455,1 35,1.69545455 35,2.54545455 L35,33.4545455 C35,34.3045455 34.3045455,35 33.4545455,35 Z" id="Shape"></path>
            <g id="Userinterface_setting-roll" transform="translate(8.000000, 8.000000)" stroke-linecap="round" stroke-linejoin="round">
                <path d="M19.3124376,8.49315068 L18.037088,8.26484018 C17.809347,7.30593607 17.4449614,6.34703196 16.8983829,5.57077626 L17.6271542,4.52054795 C17.9004434,4.15525114 17.8548952,3.65296804 17.5360578,3.33333333 L17.1261239,2.92237443 L16.7161901,2.51141553 C16.3973527,2.19178082 15.8963225,2.14611872 15.5319369,2.42009132 L14.4843282,3.15068493 C13.6644606,2.60273973 12.7534966,2.23744292 11.7969843,2.00913242 L11.5692433,0.730593607 C11.4781469,0.273972603 11.1137613,0 10.6582793,0 L10.0206044,0 L9.42847781,0 C8.97299579,0 8.60861018,0.319634703 8.51751377,0.730593607 L8.28977276,2.00913242 C7.28771232,2.19178082 6.37674828,2.55707763 5.60242884,3.10502283 L4.5548202,2.37442922 C4.19043458,2.10045662 3.68940436,2.14611872 3.37056695,2.46575342 L2.91508493,2.87671233 L2.50515111,3.33333333 C2.1863137,3.65296804 2.14076549,4.15525114 2.41405471,4.52054795 L3.14282594,5.57077626 C2.59624751,6.39269406 2.2318619,7.30593607 2.00412089,8.26484018 L0.728771232,8.49315068 C0.273289212,8.58447489 0,8.94977169 0,9.40639269 L0,10 L0,10.5936073 C0,11.0502283 0.318837414,11.4155251 0.728771232,11.5068493 L2.00412089,11.7351598 C2.2318619,12.739726 2.59624751,13.652968 3.14282594,14.4292237 L2.41405471,15.4794521 C2.14076549,15.8447489 2.1863137,16.347032 2.50515111,16.6666667 L2.91508493,17.0776256 L3.32501875,17.4885845 C3.64385616,17.8082192 4.14488638,17.8538813 4.509272,17.5799087 L5.55688064,16.8493151 C6.37674828,17.3972603 7.28771232,17.7625571 8.24422456,17.9908676 L8.47196557,19.2694064 C8.56306197,19.7260274 8.92744759,20 9.38292961,20 L10.0206044,20 L10.6127311,20 C11.0682131,20 11.4325987,19.6803653 11.5236951,19.2694064 L11.7514361,17.9908676 C12.7079484,17.7625571 13.6644606,17.3972603 14.43878,16.8493151 L15.4863887,17.5799087 C15.8507743,17.8538813 16.3518045,17.8082192 16.6706419,17.4885845 L17.0805757,17.0776256 L17.4905096,16.6666667 C17.809347,16.347032 17.8548952,15.8447489 17.581606,15.4794521 L16.8528347,14.4292237 C17.3994132,13.6073059 17.7637988,12.6940639 17.9915398,11.7351598 L19.2668894,11.5068493 C19.7223715,11.4155251 19.9956607,11.0502283 19.9956607,10.5936073 L19.9956607,10 L19.9956607,9.40639269 C20.0412089,8.94977169 19.7223715,8.58447489 19.3124376,8.49315068 Z" id="Shape"></path>
                <circle id="Oval" cx="10" cy="10" r="4"></circle>
            </g>
        </g>
    </g>
</svg>