<?xml version="1.0" encoding="UTF-8"?>
<svg width="29px" height="29px" viewBox="0 0 29 29" version="1.1" xmlns="http://www.w3.org/2000/svg" xmlns:xlink="http://www.w3.org/1999/xlink">
    <!-- Generator: Sketch 50.2 (55047) - http://www.bohemiancoding.com/sketch -->
    <title>icon/help/feedback</title>
    <desc>Created with Sketch.</desc>
    <defs></defs>
    <g id="icon/help/feedback" stroke="none" stroke-width="1" fill="none" fill-rule="evenodd">
        <g id="Userinterface_comment-Copy-2" transform="translate(2.000000, 3.000000)" stroke="#FFFFFF" stroke-width="2">
            <path d="M0,22.4275915 C0,22.4275915 5.92857143,23.6153455 8.07142857,21.7289126 C9.64285714,22.4974593 11.3571429,22.9166667 13.2857143,22.9166667 C19.7142857,22.9166667 25,17.7464431 25,11.4583333 C25,5.10035569 19.7857143,0 13.2857143,0 C6.85714286,0 1.57142857,5.17022358 1.57142857,11.4583333 C1.57142857,13.1351626 1.92857143,14.8119919 2.64285714,16.2093496 C2.64285714,16.2093496 3.28571429,19.2835366 0,22.4275915 Z" id="Shape" stroke-linejoin="round"></path>
            <path d="M6.5,11.5 L20,11.5" id="Line-4" stroke-linecap="round"></path>
            <path d="M6.5,7.5 L20,7.5" id="Line-4-Copy-2" stroke-linecap="round"></path>
            <path d="M6.5,15.5 L17.5,15.5" id="Line-4-Copy" stroke-linecap="round"></path>
        </g>
    </g>
</svg>