<?xml version="1.0" encoding="UTF-8"?>
<svg width="20px" height="20px" viewBox="0 0 20 20" version="1.1" xmlns="http://www.w3.org/2000/svg" xmlns:xlink="http://www.w3.org/1999/xlink">
    <!-- Generator: Sketch 51.3 (57544) - http://www.bohemiancoding.com/sketch -->
    <title>icon/browser/folder-open</title>
    <desc>Created with Sketch.</desc>
    <defs></defs>
    <g id="icon/browser/folder-open" stroke="none" stroke-width="1" fill="none" fill-rule="evenodd">
        <g id="open96-copy" transform="translate(0.000000, 2.000000)" fill="#000000">
            <path d="M19.8132051,8.83197368 C19.6602564,8.50328947 19.4265385,8.25131579 19.1134615,8.07644737 C18.8001282,7.90131579 18.4555128,7.81381579 18.0794872,7.81381579 L16.0738462,7.81381579 L16.0738462,6.09855263 C16.0738462,5.44105263 15.8439744,4.87644737 15.3844872,4.40473684 C14.9247436,3.93302632 14.3746154,3.69723684 13.7341026,3.69723684 L8.05192308,3.69723684 L8.05192308,3.35421053 C8.05192308,2.69671053 7.82205128,2.13210526 7.3625641,1.66052632 C6.90294872,1.18881579 6.35282051,0.952894737 5.71217949,0.952894737 L2.36974359,0.952894737 C1.72910256,0.952894737 1.17897436,1.18881579 0.719358974,1.66052632 C0.25974359,2.13210526 0.03,2.69671053 0.03,3.35421053 L0.03,13.6456579 C0.03,14.3030263 0.25974359,14.8676316 0.719358974,15.3392105 C1.17897436,15.8110526 1.72910256,16.0469737 2.36974359,16.0469737 L13.734359,16.0469737 C14.2007692,16.0469737 14.6882051,15.9235526 15.1966667,15.6769737 C15.705,15.4305263 16.1087179,15.1177632 16.4082051,14.7389474 L19.4896154,10.8476316 C19.8098718,10.4331579 19.9698718,10.0044737 19.9698718,9.56118421 C19.97,9.30381579 19.9178205,9.06105263 19.8132051,8.83197368 L19.8132051,8.83197368 Z M1.36705128,3.35434211 C1.36705128,3.06855263 1.46448718,2.82552632 1.65948718,2.62539474 C1.85435897,2.42539474 2.09115385,2.32526316 2.36974359,2.32526316 L5.71230769,2.32526316 C5.99089744,2.32526316 6.2275641,2.42526316 6.4225641,2.62539474 C6.6174359,2.82552632 6.715,3.06855263 6.715,3.35434211 L6.715,4.04052632 C6.715,4.32644737 6.8125641,4.56947368 7.0074359,4.76947368 C7.20230769,4.96947368 7.43910256,5.06960526 7.71769231,5.06960526 L13.7342308,5.06960526 C14.0126923,5.06960526 14.2496154,5.16973684 14.4444872,5.36973684 C14.639359,5.56973684 14.7369231,5.81276316 14.7369231,6.09868421 L14.7369231,7.81394737 L6.715,7.81394737 C6.24153846,7.81394737 5.75397436,7.93723684 5.2525641,8.18381579 C4.75115385,8.43039474 4.34730769,8.74302632 4.04089744,9.12197368 L1.36705128,12.4986842 L1.36705128,3.35434211 L1.36705128,3.35434211 Z M18.445,9.97934211 L15.3741026,13.8707895 C15.2001282,14.0922368 14.9528205,14.2817105 14.6324359,14.4386842 C14.3121795,14.5959211 14.0126923,14.6746053 13.7342308,14.6746053 L2.36974359,14.6746053 C2.00064103,14.6746053 1.81615385,14.5494737 1.81615385,14.2993421 C1.81615385,14.185 1.87884615,14.0421053 2.00423077,13.8703947 L5.07512821,9.97907895 C5.25615385,9.7575 5.505,9.57 5.82192308,9.41631579 C6.13871795,9.26263158 6.43641026,9.18578947 6.715,9.18578947 L18.0794872,9.18578947 C18.4485897,9.18578947 18.6330769,9.31105263 18.6330769,9.56105263 C18.6330769,9.68276316 18.5705128,9.82223684 18.445,9.97934211 L18.445,9.97934211 Z" id="Shape"></path>
        </g>
    </g>
</svg>