<?xml version="1.0" encoding="UTF-8"?>
<svg width="24px" height="24px" viewBox="0 0 24 24" version="1.1" xmlns="http://www.w3.org/2000/svg" xmlns:xlink="http://www.w3.org/1999/xlink">
    <!-- Generator: Sketch 52.5 (67469) - http://www.bohemiancoding.com/sketch -->
    <title>icon/browser/folder-add-new</title>
    <desc>Created with Sketch.</desc>
    <g id="icon/browser/folder-add-new" stroke="none" stroke-width="1" fill="none" fill-rule="evenodd">
        <g id="icon/browser/folder-add" transform="translate(2.000000, 2.000000)">
            <g id="Group" transform="translate(0.000000, 2.000000)">
                <g id="folder66-copy" fill="#000000">
                    <path d="M16.301,4.40473684 C15.853,3.93302632 15.316625,3.69723684 14.691875,3.69723684 L7.848125,3.69723684 L7.848125,3.35421053 C7.848125,2.69671053 7.624,2.13210526 7.176,1.66052632 C6.727875,1.18881579 6.1915,0.952894737 5.566875,0.952894737 L2.308,0.952894737 C1.68325,0.952894737 1.146875,1.18881579 0.698875,1.66052632 C0.25075,2.13210526 0.02675,2.69671053 0.02675,3.35421053 L0.02675,13.6456579 C0.02675,14.3030263 0.25075,14.8676316 0.698875,15.3392105 C1.147,15.8110526 1.683375,16.0469737 2.308,16.0469737 L14.691875,16.0469737 C15.316625,16.0469737 15.853,15.8110526 16.301,15.3392105 C16.74925,14.8676316 16.973125,14.3030263 16.973125,13.6456579 L16.973125,6.09868421 C16.973125,5.44118421 16.74925,4.87657895 16.301,4.40473684 L16.301,4.40473684 Z M15.669625,13.6456579 C15.669625,13.9314474 15.574625,14.1747368 15.3845,14.3747368 C15.194375,14.5747368 14.963625,14.6747368 14.691875,14.6747368 L2.308,14.6747368 C2.036375,14.6747368 1.805625,14.5747368 1.6155,14.3747368 C1.425375,14.1747368 1.330375,13.9314474 1.330375,13.6456579 L1.330375,3.35434211 C1.330375,3.06855263 1.425375,2.82552632 1.6155,2.62539474 C1.8055,2.42539474 2.036375,2.32526316 2.308,2.32526316 L5.567,2.32526316 C5.838625,2.32526316 6.0695,2.42526316 6.259625,2.62539474 C6.449625,2.82552632 6.54475,3.06855263 6.54475,3.35434211 L6.54475,4.04052632 C6.54475,4.32644737 6.63975,4.56934211 6.829875,4.76947368 C7.019875,4.96947368 7.25075,5.06960526 7.522375,5.06960526 L14.691875,5.06960526 C14.963625,5.06960526 15.194375,5.16973684 15.3845,5.36973684 C15.574625,5.56973684 15.669625,5.81276316 15.669625,6.09868421 L15.669625,13.6456579 L15.669625,13.6456579 Z" id="Shape"></path>
                </g>
                <circle id="Oval" stroke="#000000" fill="#F3F5F7" cx="13.5" cy="12.5" r="4.5"></circle>
                <path d="M13.5,10 L13.5,15" id="Shape" stroke="#000000" stroke-linecap="round" stroke-linejoin="round"></path>
                <path d="M16,12.5 L11,12.5" id="Shape" stroke="#000000" stroke-linecap="round"></path>
            </g>
        </g>
    </g>
</svg>