<?xml version="1.0" encoding="UTF-8"?>
<svg width="40px" height="40px" viewBox="0 0 40 40" version="1.1" xmlns="http://www.w3.org/2000/svg" xmlns:xlink="http://www.w3.org/1999/xlink">
    <!-- Generator: Sketch 50.2 (55047) - http://www.bohemiancoding.com/sketch -->
    <title>icon/help/main-close</title>
    <desc>Created with Sketch.</desc>
    <defs></defs>
    <g id="icon/help/main-close" stroke="none" stroke-width="1" fill="none" fill-rule="evenodd">
        <g id="Group-4" transform="translate(2.000000, 2.000000)">
            <circle id="Oval-Copy-4" stroke="#FFFFFF" stroke-width="2" fill="#007EA8" cx="18.5" cy="18.5" r="19.5"></circle>
            <path d="M8.63333333,27.9322073 C8.63333333,27.9322073 13.7516667,29.010053 15.6016667,27.2981803 C16.9583333,27.99561 18.4383333,28.3760261 20.1033333,28.3760261 C25.6533333,28.3760261 30.2166667,23.6842268 30.2166667,17.9779845 C30.2166667,12.2083395 25.715,7.57994288 20.1033333,7.57994288 C14.5533333,7.57994288 9.99,12.2717421 9.99,17.9779845 C9.99,19.4996491 10.2983333,21.0213137 10.915,22.2893676 C10.915,22.2893676 11.47,25.0790861 8.63333333,27.9322073 Z" id="Shape" fill="#FFFFFF" transform="translate(19.425000, 17.977984) scale(-1, 1) translate(-19.425000, -17.977984) "></path>
        </g>
        <g id="icon/add-note-copy" transform="translate(16.349242, 15.349242)" stroke="#007EA8" stroke-linecap="round">
            <path d="M9.75,4.5 L-0.75,4.5" id="Line" transform="translate(4.500000, 4.500000) rotate(-315.000000) translate(-4.500000, -4.500000) "></path>
            <path d="M4.5,-0.75 L4.5,9.75" id="Line" transform="translate(4.500000, 4.500000) rotate(-315.000000) translate(-4.500000, -4.500000) "></path>
        </g>
    </g>
</svg>
