<?xml version="1.0" encoding="UTF-8"?>
<svg width="64px" height="64px" viewBox="0 0 64 64" version="1.1" xmlns="http://www.w3.org/2000/svg" xmlns:xlink="http://www.w3.org/1999/xlink">
    <!-- Generator: Sketch 50.2 (55047) - http://www.bohemiancoding.com/sketch -->
    <title>icon/help/main</title>
    <desc>Created with Sketch.</desc>
    <defs></defs>
    <g id="icon/help/main" stroke="none" stroke-width="1" fill="none" fill-rule="evenodd">
        <g id="Group-4" transform="translate(2.000000, 2.000000)">
            <circle id="Oval-Copy-4" stroke="#FFFFFF" stroke-width="2" fill="#007EA8" cx="30" cy="30" r="31"></circle>
            <path d="M14,45.2954712 C14,45.2954712 22.3,47.0433293 25.3,44.2673195 C27.5,45.3982864 29.9,46.0151775 32.6,46.0151775 C41.6,46.0151775 49,38.4068543 49,29.1534884 C49,19.7973072 41.7,12.2917993 32.6,12.2917993 C23.6,12.2917993 16.2,19.9001224 16.2,29.1534884 C16.2,31.6210526 16.7,34.0886169 17.7,36.1449204 C17.7,36.1449204 18.6,40.6687882 14,45.2954712 Z" id="Shape" fill="#FFFFFF" transform="translate(31.500000, 29.153488) scale(-1, 1) translate(-31.500000, -29.153488) "></path>
            <path d="M25.0546875,25.4257812 C25.0546875,24.68359 25.2929664,23.9316444 25.7695312,23.1699219 C26.2460961,22.4081993 26.9414017,21.7773463 27.8554688,21.2773438 C28.7695358,20.7773412 29.8359314,20.5273438 31.0546875,20.5273438 C32.1875057,20.5273438 33.1874957,20.736326 34.0546875,21.1542969 C34.9218793,21.5722677 35.5917945,22.1406214 36.0644531,22.859375 C36.5371117,23.5781286 36.7734375,24.3593708 36.7734375,25.203125 C36.7734375,25.8671908 36.6386732,26.4492162 36.3691406,26.9492188 C36.099608,27.4492213 35.7792987,27.8808576 35.4082031,28.2441406 C35.0371075,28.6074237 34.3710986,29.2187457 33.4101562,30.078125 C33.1445299,30.3203137 32.9316414,30.5332022 32.7714844,30.7167969 C32.6113273,30.9003915 32.4921879,31.0683586 32.4140625,31.2207031 C32.3359371,31.3730476 32.2753908,31.5253899 32.2324219,31.6777344 C32.1894529,31.8300789 32.1250004,32.0976543 32.0390625,32.4804688 C31.8906243,33.2929728 31.4257852,33.6992188 30.6445312,33.6992188 C30.2382792,33.6992188 29.8964858,33.5664076 29.6191406,33.3007812 C29.3417955,33.0351549 29.203125,32.6406276 29.203125,32.1171875 C29.203125,31.4609342 29.3046865,30.8925805 29.5078125,30.4121094 C29.7109385,29.9316382 29.9804671,29.5097674 30.3164062,29.1464844 C30.6523454,28.7832013 31.1054659,28.351565 31.6757812,27.8515625 C32.1757838,27.4140603 32.5371083,27.0839855 32.7597656,26.8613281 C32.982423,26.6386708 33.1699211,26.3906264 33.3222656,26.1171875 C33.4746101,25.8437486 33.5507812,25.5468766 33.5507812,25.2265625 C33.5507812,24.6015594 33.3183617,24.0742209 32.8535156,23.6445312 C32.3886696,23.2148416 31.7890662,23 31.0546875,23 C30.1953082,23 29.562502,23.2167947 29.15625,23.6503906 C28.749998,24.0839865 28.4062514,24.722652 28.125,25.5664062 C27.8593737,26.4492232 27.3554725,26.890625 26.6132812,26.890625 C26.1757791,26.890625 25.8066421,26.7363297 25.5058594,26.4277344 C25.2050766,26.1191391 25.0546875,25.785158 25.0546875,25.4257812 Z M30.7734375,38.2695312 C30.2968726,38.2695312 29.8808612,38.1152359 29.5253906,37.8066406 C29.1699201,37.4980453 28.9921875,37.066409 28.9921875,36.5117188 C28.9921875,36.0195288 29.1640608,35.6054704 29.5078125,35.2695312 C29.8515642,34.9335921 30.273435,34.765625 30.7734375,34.765625 C31.2656275,34.765625 31.6796858,34.9335921 32.015625,35.2695312 C32.3515642,35.6054704 32.5195312,36.0195288 32.5195312,36.5117188 C32.5195312,37.0585965 32.3437518,37.4882797 31.9921875,37.8007812 C31.6406232,38.1132828 31.2343773,38.2695312 30.7734375,38.2695312 Z" id="?" fill="#007EA8"></path>
        </g>
    </g>
</svg>