<?xml version="1.0" encoding="UTF-8"?>
<svg width="36px" height="36px" viewBox="0 0 36 36" version="1.1" xmlns="http://www.w3.org/2000/svg" xmlns:xlink="http://www.w3.org/1999/xlink">
    <!-- Generator: Sketch 48.2 (47327) - http://www.bohemiancoding.com/sketch -->
    <title>icon/activity/object-labbook</title>
    <desc>Created with Sketch.</desc>
    <defs></defs>
    <g id="Icons" stroke="none" stroke-width="1" fill="none" fill-rule="evenodd">
        <g id="icon/activity/object-labbook" stroke="#1ad8c1" stroke-width="2">
            <path d="M33.6363636,35 L6.36363636,35 C5.61363636,35 5,34.3045455 5,33.4545455 L5,2.54545455 C5,1.69545455 5.61363636,1 6.36363636,1 L33.6363636,1 C34.3863636,1 35,1.69545455 35,2.54545455 L35,33.4545455 C35,34.3045455 34.3863636,35 33.6363636,35 Z" id="Shape"></path>
            <path d="M6.5,5 L1.5,5" id="Line" stroke-linecap="round"></path>
            <path d="M28.4166667,15 L12.5833333,15" id="Line-Copy-6" stroke-linecap="round"></path>
            <path d="M28.4166667,25 L12.5833333,25" id="Line-Copy-7" stroke-linecap="round"></path>
            <path d="M28.4166667,10 L12.5833333,10" id="Line-Copy-8" stroke-linecap="round"></path>
            <path d="M6.5,15 L1.5,15" id="Line-Copy-2" stroke-linecap="round"></path>
            <path d="M6.5,25 L1.5,25" id="Line-Copy-4" stroke-linecap="round"></path>
            <path d="M6.5,10 L1.5,10" id="Line-Copy" stroke-linecap="round"></path>
            <path d="M6.5,20 L1.5,20" id="Line-Copy-3" stroke-linecap="round"></path>
            <path d="M28.4166667,20 L12.5833333,20" id="Line-Copy-9" stroke-linecap="round"></path>
            <path d="M6.5,30 L1.5,30" id="Line-Copy-5" stroke-linecap="round"></path>
        </g>
    </g>
</svg>
