<svg xmlns="http://www.w3.org/2000/svg" width="16" height="15" viewBox="0 0 16 15">
    <g fill="#06A51A" fill-rule="evenodd">
        <path d="M6.125 1.955V.705a.625.625 0 0 0-1.25 0v1.25a.625.625 0 0 0 1.25 0M1.125 5.705h1.25a.625.625 0 0 0 0-1.25h-1.25a.625.625 0 0 0 0 1.25M3.44 2.14l-.624-.625a.625.625 0 0 0-.882.881l.625.625a.625.625 0 0 0 .882-.881M10.5 15.08c.345 0 .625-.28.625-.625v-1.25a.625.625 0 0 0-1.25 0v1.25c0 .345.28.625.625.625M15.5 10.08a.625.625 0 0 0-.625-.625h-1.25a.625.625 0 0 0 0 1.25h1.25c.345 0 .625-.28.625-.625M13.184 13.646a.625.625 0 0 0 .882-.881l-.625-.625a.625.625 0 0 0-.882.881l.625.625zM1.125 10.737a3.725 3.725 0 0 0 3.719 3.718 3.683 3.683 0 0 0 2.628-1.09l1.937-1.938a3.716 3.716 0 0 0 .002-5.254l-.002-.002a.624.624 0 1 0-.884.881 2.475 2.475 0 0 1 0 3.494l-1.937 1.938A2.472 2.472 0 0 1 3.097 8.99l.969-.969a.625.625 0 0 0-.882-.881l-.968.969a3.685 3.685 0 0 0-1.091 2.628"/>
        <path d="M11.934 7.14a.625.625 0 0 0 .882.881l.968-.969a3.683 3.683 0 0 0 1.091-2.628A3.725 3.725 0 0 0 11.156.705a3.684 3.684 0 0 0-2.628 1.091L6.591 3.733a3.713 3.713 0 0 0-.006 5.25l.006.007a.625.625 0 0 0 .88 0 .625.625 0 0 0 0-.882 2.475 2.475 0 0 1 0-3.493L9.41 2.677a2.472 2.472 0 0 1 3.494 3.494l-.969.969z"/>
    </g>
</svg>
