<?xml version="1.0" encoding="UTF-8"?>
<svg width="36px" height="36px" viewBox="0 0 36 36" version="1.1" xmlns="http://www.w3.org/2000/svg" xmlns:xlink="http://www.w3.org/1999/xlink">
    <!-- Generator: Sketch 48.2 (47327) - http://www.bohemiancoding.com/sketch -->
    <title>icon/activity/object-milestone</title>
    <desc>Created with Sketch.</desc>
    <defs></defs>
    <g id="Icons" stroke="none" stroke-width="1" fill="none" fill-rule="evenodd">
        <g id="icon/activity/object-milestone" stroke="#007EA8" stroke-width="2">
            <path d="M33.4545455,35 L2.54545455,35 C1.69545455,35 1,34.3045455 1,33.4545455 L1,2.54545455 C1,1.69545455 1.69545455,1 2.54545455,1 L33.4545455,1 C34.3045455,1 35,1.69545455 35,2.54545455 L35,33.4545455 C35,34.3045455 34.3045455,35 33.4545455,35 Z" id="Shape"></path>
            <g id="Userinterface_report-flag" transform="translate(10.000000, 8.000000)">
                <path d="M1.26086957,2.43478261 C7.04347826,-0.739130435 10.4347826,6.26086957 16.5217391,3.08695652 C16.5217391,7.08695652 16.5217391,8.65217391 16.5217391,12.6521739 C10.4347826,15.7826087 7.08695652,8.82608696 1.30434783,11.9565217" id="Shape" stroke-linejoin="round"></path>
                <path d="M1.5,0.5 L1.5,19.5" id="Line" stroke-linecap="round"></path>
            </g>
        </g>
    </g>
</svg>