<svg xmlns="http://www.w3.org/2000/svg" width="25" height="25" viewBox="0 0 25 25">
    <g fill="none" fill-rule="evenodd" transform="translate(.276 .387)">
        <circle cx="12.492" cy="12.492" r="11.937" fill="#F3F5F7"/>
        <g transform="translate(5.509 5.871)">
            <path fill="#00487C" d="M11.876 3.21a1.56 1.56 0 0 0-1.172-.516H5.718v-.25c0-.48-.163-.89-.49-1.234A1.56 1.56 0 0 0 4.056.694H1.682a1.56 1.56 0 0 0-1.173.516c-.326.343-.49.755-.49 1.234v7.498c0 .479.164.89.49 1.234a1.56 1.56 0 0 0 1.173.515h9.022a1.56 1.56 0 0 0 1.172-.515c.327-.344.49-.755.49-1.234V4.443c0-.479-.163-.89-.49-1.234zm-.46 6.732c0 .208-.069.385-.207.531a.67.67 0 0 1-.505.219H1.682a.67.67 0 0 1-.505-.219.743.743 0 0 1-.208-.531V2.444c0-.208.07-.385.208-.531a.67.67 0 0 1 .505-.219h2.374a.67.67 0 0 1 .505.219.743.743 0 0 1 .207.53v.5c0 .21.07.386.208.532a.67.67 0 0 0 .505.219h5.223a.67.67 0 0 1 .505.218.742.742 0 0 1 .207.531v5.499z"/>
            <circle cx="10.2" cy="9.471" r="3.835" fill="#06A51A" stroke="#06A51A"/>
            <path stroke="#FFF" stroke-linecap="round" stroke-linejoin="round" d="M10.2 7.65v3.643"/>
            <path stroke="#FFF" stroke-linecap="round" d="M12.021 9.471H8.38"/>
        </g>
    </g>
</svg>
