<?xml version="1.0" encoding="UTF-8"?>
<svg width="36px" height="36px" viewBox="0 0 36 36" version="1.1" xmlns="http://www.w3.org/2000/svg" xmlns:xlink="http://www.w3.org/1999/xlink">
    <!-- Generator: Sketch 48.2 (47327) - http://www.bohemiancoding.com/sketch -->
    <title>icon/activity/object-note</title>
    <desc>Created with Sketch.</desc>
    <defs></defs>
    <g id="Icons" stroke="none" stroke-width="1" fill="none" fill-rule="evenodd">
        <g id="icon/activity/object-note" stroke="#007EA8" stroke-width="2">
            <path d="M33.4545455,35 L2.54545455,35 C1.69545455,35 1,34.3045455 1,33.4545455 L1,2.54545455 C1,1.69545455 1.69545455,1 2.54545455,1 C12.5405207,1 20.0347279,1 25.0280762,1 C25.0510254,1 35,10.8127441 35,10.8552246 C35,15.8772959 35,23.4104029 35,33.4545455 C35,34.3045455 34.3045455,35 33.4545455,35 Z" id="Shape"></path>
            <polygon id="Shape" stroke-linejoin="round" points="25 1 25 11 35 11"></polygon>
            <path d="M8,12 L18,12" id="Shape" stroke-linecap="round" stroke-linejoin="round"></path>
            <path d="M8,17 L29,17" id="Shape" stroke-linecap="round" stroke-linejoin="round"></path>
            <path d="M8,22 L29,22" id="Shape" stroke-linecap="round" stroke-linejoin="round"></path>
            <path d="M8,27 L29,27" id="Shape" stroke-linecap="round" stroke-linejoin="round"></path>
        </g>
    </g>
</svg>