<svg id="Layer_1" data-name="Layer 1" xmlns="http://www.w3.org/2000/svg" viewBox="0 0 152.27 71.2"><defs><style>.cls-1{fill:#666766;}</style></defs><title>pushpullarrows</title><path class="cls-1" d="M37.38,137.81a4.62,4.62,0,0,1-3.26-7.88L90,74.09a4.61,4.61,0,1,1,6.52,6.52L40.64,136.45A4.61,4.61,0,0,1,37.38,137.81Z" transform="translate(-31.68 -72.74)"/><path class="cls-1" d="M90.74,138.89h-.1l-53.36-1.08a4.63,4.63,0,0,1-4.51-4.71,4.81,4.81,0,0,1,4.7-4.52l53.36,1.08a4.62,4.62,0,0,1-.09,9.23Z" transform="translate(-31.68 -72.74)"/><path class="cls-1" d="M37.38,137.81a4.61,4.61,0,0,1-4.61-4.53L31.69,79.94a4.61,4.61,0,0,1,4.51-4.71,4.77,4.77,0,0,1,4.71,4.52L42,133.1a4.63,4.63,0,0,1-4.52,4.71Z" transform="translate(-31.68 -72.74)"/><path class="cls-1" d="M122.41,143.94a4.61,4.61,0,0,1-3.26-7.87L175,80.22a4.61,4.61,0,0,1,6.52,6.52l-55.85,55.85A4.6,4.6,0,0,1,122.41,143.94Z" transform="translate(-31.68 -72.74)"/><path class="cls-1" d="M178.26,88.09h-.09L124.81,87a4.61,4.61,0,1,1,.18-9.22l53.36,1.08a4.61,4.61,0,0,1-.09,9.22Z" transform="translate(-31.68 -72.74)"/><path class="cls-1" d="M179.34,141.45a4.61,4.61,0,0,1-4.61-4.52l-1.09-53.36a4.62,4.62,0,0,1,4.53-4.7,4.71,4.71,0,0,1,4.7,4.52L184,136.75a4.61,4.61,0,0,1-4.52,4.7Z" transform="translate(-31.68 -72.74)"/></svg>