<?xml version="1.0" encoding="utf-8"?>
<!-- Generator: Adobe Illustrator 22.0.0, SVG Export Plug-In . SVG Version: 6.00 Build 0)  -->
<svg version="1.1" xmlns="http://www.w3.org/2000/svg" xmlns:xlink="http://www.w3.org/1999/xlink" x="0px" y="0px"
	 viewBox="0 0 150 187.5" style="enable-background:new 0 0 150 187.5;" xml:space="preserve">
<style type="text/css">
	.st0{fill:none;stroke:#ffffff;stroke-width:2;stroke-miterlimit:10;}
</style>
<g id="Layer_2">
</g>
<g id="Layer_1">
	<g fill="#ffffff">
		<path d="M64.8,107.1c-1,2.2-1.6,4.7-1.6,7.2v9c0,0.5-0.3,0.8-0.7,1c-0.1,0-0.2,0-0.3,0c-0.4,0-0.7-0.2-0.9-0.5l-10.5-18.1
			c-0.9-1.7-0.8-3.8,0.4-5.2l7.7-9.8c0.2,0.8,0.4,1.7,0.6,2.5c1,4,2.4,7.9,4.2,11.7C64.1,105.6,64.5,106.4,64.8,107.1z"/>
		<path d="M99.2,105.7l-10.5,18.1c-0.2,0.3-0.5,0.5-0.9,0.5c-0.1,0-0.2,0-0.3,0c-0.4-0.1-0.7-0.5-0.7-1v-9c0-2.5-0.5-5-1.6-7.2
			c0.4-0.7,0.8-1.5,1.1-2.2c1.8-3.8,3.2-7.7,4.2-11.7c0.2-0.8,0.4-1.7,0.6-2.5l7.7,9.8C100,101.9,100.1,104,99.2,105.7z"/>
		<path d="M78.1,44.6L75,40.1l-3.1,4.6C58.8,64,58.2,89.1,70.4,108.9h9.1C91.8,89,91.2,63.9,78.1,44.6z M75,76.1
			c-3.6,0-6.6-3-6.6-6.6s2.9-6.6,6.6-6.6s6.6,3,6.6,6.6S78.6,76.1,75,76.1z"/>
		<line fill="#ffffff" stroke="#ffffff" class="st0" x1="72" y1="112.1" x2="72" y2="131"/>
		<line fill="#ffffff" stroke="#ffffff" class="st0" x1="77.7" y1="114.1" x2="77.7" y2="127.1"/>
	</g>
</g>
</svg>
