<svg xmlns="http://www.w3.org/2000/svg" width="18" height="16" viewBox="0 0 18 16">
    <g fill="#F8F8F8" transform="translate(1)">
        <path d="M15.048 4.515H.957c-.494 0-.895-.39-.895-.87V.978c0-.479.401-.869.895-.869h14.09c.494 0 .895.39.895.87v2.668c0 .479-.401.869-.894.869zM.957.747C.832.747.73.85.73.977v2.669c0 .127.101.23.226.23h14.09c.125 0 .227-.103.227-.23V.977c0-.127-.102-.23-.226-.23H.957z"/>
        <circle cx="13.679" cy="2.311" r="1"/>
        <g transform="translate(0 10.138)">
            <path d="M15.048 4.416H.957c-.494 0-.895-.39-.895-.87V.879C.062.4.463.01.957.01h14.09c.494 0 .895.39.895.87v2.668c0 .479-.401.869-.894.869zM.957.648C.832.648.73.751.73.878v2.669c0 .127.101.23.226.23h14.09c.125 0 .227-.103.227-.23V.878c0-.127-.102-.23-.226-.23H.957z"/>
            <circle cx="13.679" cy="2.212" r="1"/>
        </g>
        <g transform="translate(0 4.986)">
            <path d="M15.048 4.548H.957c-.494 0-.895-.39-.895-.869V1.011c0-.48.401-.869.895-.869h14.09c.494 0 .895.39.895.869v2.668c0 .48-.401.87-.894.87zM.957.781C.832.78.73.884.73 1.01v2.668c0 .127.101.23.226.23h14.09c.125 0 .227-.103.227-.23V1.011c0-.127-.102-.23-.226-.23H.957z"/>
            <circle cx="13.679" cy="2.345" r="1"/>
        </g>
    </g>
</svg>
