<?xml version="1.0" encoding="UTF-8"?>
<svg width="15px" height="9px" viewBox="0 0 15 9" version="1.1" xmlns="http://www.w3.org/2000/svg" xmlns:xlink="http://www.w3.org/1999/xlink">
    <!-- Generator: Sketch 55.2 (78181) - https://sketchapp.com -->
    <title>Sort Desc</title>
    <desc>Created with Sketch.</desc>
    <defs>
        <polygon id="path-1" points="0 0.2484 4.85302734 0.2484 17.817 0.2484 17.817 12 0 12"></polygon>
    </defs>
    <g id="Sort-Desc" stroke="none" stroke-width="1" fill="none" fill-rule="evenodd">
        <g id="Group-4" transform="translate(-3.000000, 0.000000)">
            <mask id="mask-2" fill="white">
                <use xlink:href="#path-1"></use>
            </mask>
            <g id="Clip-3"></g>
            <path d="M2.94287109,1.4484 L10.8,1.4484 L10.8,0.2484 L2.94287109,0.2484 L2.94287109,1.4484 Z M2.94287109,8.59667969 L7.30794271,8.59667969 L7.30794271,7.39667969 L2.94287109,7.39667969 L2.94287109,8.59667969 Z M2.94287109,5.02253984 L9.36584473,5.02253984 L9.36584473,3.82253984 L2.94287109,3.82253984 L2.94287109,5.02253984 Z M15.6942,6.86707492 L15.6942,0.758775177 C15.6942,0.475739737 15.426,0.2484 15.0942,0.2484 C14.7612,0.2484 14.4942,0.476752386 14.4942,0.758775177 L14.4942,6.86707492 L13.3986,5.94252624 C13.1592,5.7399964 12.7836,5.74354067 12.549,5.94151359 C12.3126,6.14049915 12.315,6.46049628 12.5502,6.65846919 L14.6688,8.44680761 L14.6694,8.44731394 L14.67,8.44782026 C14.7876,8.54705988 14.9412,8.59667969 15.0948,8.59667969 C15.2496,8.59667969 15.402,8.54655355 15.5184,8.44782026 C15.519,8.44782026 15.519,8.44731394 15.519,8.44731394 C15.5196,8.44731394 15.5196,8.44680761 15.5196,8.44680761 L17.6388,6.65846919 C17.8788,6.45593936 17.8746,6.13898017 17.64,5.94151359 C17.4042,5.74252803 17.025,5.744047 16.7898,5.94252624 L15.6942,6.86707492 Z" id="Fill-2" fill="#00487C" mask="url(#mask-2)"></path>
        </g>
    </g>
</svg>