<?xml version="1.0" encoding="UTF-8"?>
<svg width="16px" height="16px" viewBox="0 0 16 16" version="1.1" xmlns="http://www.w3.org/2000/svg" xmlns:xlink="http://www.w3.org/1999/xlink">
    <!-- Generator: Sketch 55.2 (78181) - https://sketchapp.com -->
    <title>Group 4</title>
    <desc>Created with Sketch.</desc>
    <g id="Symbols" stroke="none" stroke-width="1" fill="none" fill-rule="evenodd">
        <g id="File/Delete-active" transform="translate(-6.000000, -6.000000)" fill="#1f2733" fill-rule="nonzero">
            <g id="Group-3-Copy">
                <g id="Group">
                    <g id="Group-4" transform="translate(5.333333, 5.333333)">
                        <path d="M10.9028209,5.75694876 C10.936639,5.41876792 11.2382037,5.17203316 11.5763846,5.20585124 C11.9145654,5.23966932 12.1613002,5.54123404 12.1274821,5.87941488 L11.4002094,13.1521421 C11.3663913,13.490323 11.0648266,13.7370578 10.7266457,13.7032397 C10.3884649,13.6694216 10.1417301,13.3678569 10.1755482,13.029676 L10.9028209,5.75694876 Z" id="Shape"></path>
                        <path d="M7.99067599,5.81818182 C7.99067599,5.47831428 8.28915282,5.2027972 8.65734266,5.2027972 C9.02553249,5.2027972 9.32400932,5.47831428 9.32400932,5.81818182 L9.32400932,13.0909091 C9.32400932,13.4307766 9.02553249,13.7062937 8.65734266,13.7062937 C8.28915282,13.7062937 7.99067599,13.4307766 7.99067599,13.0909091 L7.99067599,5.81818182 Z" id="Line-2"></path>
                        <path d="M5.08462427,5.87926616 C5.05088831,5.54107712 5.29769631,5.23957234 5.63588535,5.20583639 C5.9740744,5.17210044 6.27557918,5.41890843 6.30931513,5.75709748 L7.03480395,13.0298247 C7.0685399,13.3680138 6.8217319,13.6695186 6.48354286,13.7032545 C6.14535381,13.7369905 5.84384903,13.4901825 5.81011308,13.1519934 L5.08462427,5.87926616 Z" id="Shape-Copy"></path>
                        <path d="M13.8126217,2.84113303 C13.8501538,2.50334421 14.1544115,2.25993805 14.4922003,2.29747015 C14.8299891,2.33500225 15.0733953,2.63925998 15.0358632,2.97704879 L13.6841286,15.1426557 C13.5903372,15.9867746 12.8532941,16.6153846 11.9875928,16.6153846 L5.2245281,16.6153846 C4.35882714,16.6153846 3.62178309,15.9867743 3.52799217,15.1426554 L2.17625803,2.97704877 C2.13872594,2.63925996 2.3821321,2.33500224 2.71992092,2.29747015 C3.05770974,2.25993806 3.36196745,2.50334423 3.39949955,2.84113304 L4.7512337,15.0067397 C4.77433001,15.2146067 4.97366474,15.3846154 5.2245281,15.3846154 L11.9875928,15.3846154 C12.2384564,15.3846154 12.4377907,15.214607 12.4608872,15.0067397 L13.8126217,2.84113303 Z" id="Shape"></path>
                        <path d="M1.33333333,3.62703963 C0.993465795,3.62703963 0.717948718,3.32856279 0.717948718,2.96037296 C0.717948718,2.59218313 0.993465795,2.29370629 1.33333333,2.29370629 L15.8787879,2.29370629 C16.2186554,2.29370629 16.4941725,2.59218313 16.4941725,2.96037296 C16.4941725,3.32856279 16.2186554,3.62703963 15.8787879,3.62703963 L1.33333333,3.62703963 Z" id="Shape"></path>
                        <path d="M5.6969697,2.17249417 C5.35710216,2.17249417 5.08158508,1.87401734 5.08158508,1.50582751 C5.08158508,1.13763767 5.35710216,0.839160839 5.6969697,0.839160839 L11.5151515,0.839160839 C11.8550191,0.839160839 12.1305361,1.13763767 12.1305361,1.50582751 C12.1305361,1.87401734 11.8550191,2.17249417 11.5151515,2.17249417 L5.6969697,2.17249417 Z" id="Line"></path>
                    </g>
                </g>
            </g>
        </g>
    </g>
</svg>