<svg xmlns="http://www.w3.org/2000/svg" xmlns:xlink="http://www.w3.org/1999/xlink" width="22" height="20" viewBox="0 0 22 20">
    <defs>
        <path id="a" d="M.058.039H1.53v3.436H.06z"/>
        <path id="c" d="M0 .077h7.104v6.95H0z"/>
    </defs>
    <g fill="none" fill-rule="evenodd">
        <path fill="#DB2663" d="M17.202 15.072a.734.734 0 0 0-.125-1.031l-1.552-1.213a.734.734 0 0 0-1.03.128.734.734 0 0 0 .124 1.032l1.552 1.212c.32.25.781.192 1.031-.128M15.66 10.305a.749.749 0 0 0-.49.281.785.785 0 0 0-.154.543.71.71 0 0 0 .806.63l1.953-.243a.714.714 0 0 0 .632-.808c-.061-.392-.415-.693-.806-.63l-1.942.227zM12.343 14.174a.785.785 0 0 0-.155.542l.237 1.954a.71.71 0 0 0 .807.63c.392-.062.693-.416.631-.808l-.237-1.954a.71.71 0 0 0-.806-.63.704.704 0 0 0-.477.266"/>
        <g transform="rotate(128 1.697 4.105)">
            <mask id="b" fill="#fff">
                <use xlink:href="#a"/>
            </mask>
            <path fill="#DB2663" d="M.794.039a.734.734 0 0 0-.736.733v1.97c0 .405.33.733.736.733a.734.734 0 0 0 .735-.733V.772A.734.734 0 0 0 .794.04" mask="url(#b)"/>
        </g>
        <path fill="#DB2663" d="M4.292 8.547a.714.714 0 0 0 .632-.808.71.71 0 0 0-.807-.63l-1.953.242a.749.749 0 0 0-.49.281.785.785 0 0 0-.154.543.71.71 0 0 0 .807.63l1.965-.258zM7.748 4.124L7.511 2.17a.71.71 0 0 0-.807-.63.749.749 0 0 0-.489.281.785.785 0 0 0-.154.543l.237 1.954a.71.71 0 0 0 .807.63.737.737 0 0 0 .643-.824"/>
        <g transform="rotate(128 7.635 6.944)">
            <mask id="d" fill="#fff">
                <use xlink:href="#c"/>
            </mask>
            <path fill="#DB2663" d="M3.484 1.545h2.884a.734.734 0 1 0 0-1.468H3.484A3.49 3.49 0 0 0 0 3.552a3.49 3.49 0 0 0 3.484 3.476h2.884a.734.734 0 1 0 0-1.468H3.484a2.03 2.03 0 0 1-2.032-2.027c0-1.12.929-1.988 2.032-1.988" mask="url(#d)"/>
        </g>
        <path fill="#DB2663" d="M9.842 15.242l1.788-2.288a.734.734 0 1 0-1.156-.904l-1.776 2.273a2.03 2.03 0 0 1-2.849.353 2.03 2.03 0 0 1-.346-2.85l1.776-2.272a.734.734 0 1 0-1.157-.903l-1.775 2.272a3.49 3.49 0 0 0 .593 4.885c1.506 1.177 3.722.944 4.902-.566"/>
    </g>
</svg>
