<svg xmlns="http://www.w3.org/2000/svg" width="26" height="26" viewBox="0 0 26 26">
    <g fill="none" fill-rule="evenodd">
        <circle cx="13.012" cy="12.434" r="12.434" fill="#F3F5F7" transform="matrix(1 0 0 -1 .321 25.815)"/>
        <path fill="#00487C" d="M17.293 9.035a2.08 2.08 0 0 0-.43-.68l-2.791-2.792a2.085 2.085 0 0 0-.68-.43 2.066 2.066 0 0 0-.788-.178H6.877a.828.828 0 0 0-.608.25.828.828 0 0 0-.251.609V17.84c0 .239.084.441.25.608.168.167.37.25.61.25h9.735a.828.828 0 0 0 .609-.25.828.828 0 0 0 .25-.608V9.823c0-.239-.06-.501-.179-.788zm-4.402-2.863c.173.06.295.125.367.197l2.8 2.8c.072.072.138.195.197.368h-3.364V6.172zm3.436 11.383H7.163V6.1h4.582v3.723c0 .239.084.441.25.608.168.167.37.251.61.251h3.722v6.873z"/>
        <g transform="translate(10.658 11.455)">
            <circle cx="4.911" cy="5.109" r="4.464" fill="#06A51A" stroke="#06A51A"/>
            <path stroke="#FFF" stroke-linecap="round" stroke-linejoin="round" d="M4.91 2.8v4.62"/>
            <path stroke="#FFF" stroke-linecap="round" d="M7.22 5.11H2.6"/>
        </g>
    </g>
</svg>
