<svg xmlns="http://www.w3.org/2000/svg" viewBox="0 0 256 256"><title>warning-icon</title><g id="Layer_2" data-name="Layer 2"><path d="M241.24,203.34,144.14,35.15a18.11,18.11,0,0,0-31.36,0L15.68,203.34A18.1,18.1,0,0,0,31.35,230.5H225.56A18.11,18.11,0,0,0,241.24,203.34ZM114.64,78.2h21.88v99.05H114.64Zm21.7,132.91q-3.84,3.4-10.15,3.41a15.42,15.42,0,0,1-10.32-3.41,11.22,11.22,0,0,1-4-9A11.69,11.69,0,0,1,116,193a14.79,14.79,0,0,1,10.23-3.68A14.18,14.18,0,0,1,136.26,193a12,12,0,0,1,3.93,9.1A11.45,11.45,0,0,1,136.34,211.11Z"/></g></svg>