<?xml version="1.0" encoding="UTF-8"?>
<svg width="48px" height="48px" viewBox="0 0 48 48" version="1.1" xmlns="http://www.w3.org/2000/svg" xmlns:xlink="http://www.w3.org/1999/xlink">
    <!-- Generator: Sketch 53.2 (72643) - https://sketchapp.com -->
    <title>icon/banner/collaborator</title>
    <desc>Created with Sketch.</desc>
    <g id="icon/banner/collaborator" stroke="none" stroke-width="1" fill="none" fill-rule="evenodd">
        <g id="Group-9">
            <circle id="Oval" fill="#FFFFF" cx="24" cy="24" r="24"></circle>
            <path d="M24,46 C36.1502645,46 46,36.1502645 46,24 C46,11.8497355 36.1502645,2 24,2 C11.8497355,2 2,11.8497355 2,24 C2,36.1502645 11.8497355,46 24,46 Z M24,48 C10.745166,48 0,37.254834 0,24 C0,10.745166 10.745166,0 24,0 C37.254834,0 48,10.745166 48,24 C48,37.254834 37.254834,48 24,48 Z" id="Oval" fill="#FFFFF" fill-rule="nonzero"></path>
            <circle id="Oval-2" fill="#FFFFF" cx="24" cy="15" r="10"></circle>
            <ellipse id="Oval-2-Copy" fill="#FFFFF" cx="24" cy="37" rx="18" ry="9"></ellipse>
            <path d="M24,44 C35.045695,44 44,35.045695 44,24 C44,12.954305 35.045695,4 24,4 C12.954305,4 4,12.954305 4,24 C4,35.045695 12.954305,44 24,44 Z M24,46 C11.8497355,46 2,36.1502645 2,24 C2,11.8497355 11.8497355,2 24,2 C36.1502645,2 46,11.8497355 46,24 C46,36.1502645 36.1502645,46 24,46 Z" id="Oval" fill="#FFFFF" fill-rule="nonzero"></path>
        </g>
    </g>
</svg>