<?xml version="1.0" encoding="UTF-8"?>
<svg width="48px" height="48px" viewBox="0 0 48 48" version="1.1" xmlns="http://www.w3.org/2000/svg" xmlns:xlink="http://www.w3.org/1999/xlink">
    <!-- Generator: Sketch 53.2 (72643) - https://sketchapp.com -->
    <title>icon/activity/rollback</title>
    <desc>Created with Sketch.</desc>
    <g id="icon/activity/rollback" stroke="none" stroke-width="1" fill="none" fill-rule="evenodd">
        <g id="icon/activity/menu-rollback" transform="translate(5.000000, 9.000000)" fill="#1ad8c1" fill-rule="nonzero">
            <path d="M20.9341826,27.9817982 C19.8296134,27.9825599 18.9335656,27.0877472 18.9328038,25.9831779 C18.9320421,24.8786087 19.8268548,23.9825609 20.9314241,23.9817991 C25.6860401,23.9785202 29.5408167,20.1383413 29.5440904,15.4093117 C29.5473627,10.6824473 25.7012722,6.85094176 20.9488085,6.85421925 C16.1941925,6.85749823 12.3394158,10.6976771 12.3361421,15.4267067 C12.3353774,16.5312759 11.4393273,17.4260863 10.3347581,17.4253216 C9.23018882,17.424557 8.3353784,16.5285068 8.33614306,15.4239376 C8.34094696,8.4845275 13.98784,2.85901887 20.9460499,2.8542202 C27.9064121,2.84942005 33.5488949,8.47050562 33.5440895,15.4120808 C33.5392856,22.3514909 27.8923925,27.9769995 20.9341826,27.9817982 Z" id="Oval-11" transform="translate(20.940118, 15.418008) rotate(10.000000) translate(-20.940118, -15.418008) "></path>
            <path d="M10.7239655,10.4148818 L16.4173402,16.9114901 C17.2662714,17.8801903 16.5799028,19.3978628 15.2918581,19.400114 L3.88231862,19.4200554 C2.59147326,19.4223115 1.90082456,17.9013255 2.75204912,16.9309114 L8.46821393,10.4143618 C9.06587572,9.7330146 10.126618,9.73325914 10.7239655,10.4148818 Z" id="Triangle-2" transform="translate(9.584448, 14.661783) rotate(-150.000000) translate(-9.584448, -14.661783) "></path>
        </g>
    </g>
</svg>