<?xml version="1.0" encoding="UTF-8"?>
<svg width="22px" height="24px" viewBox="0 0 22 24" version="1.1" xmlns="http://www.w3.org/2000/svg" xmlns:xlink="http://www.w3.org/1999/xlink">
    <!-- Generator: Sketch 52.5 (67469) - http://www.bohemiancoding.com/sketch -->
    <title>icon/browser/database-open</title>
    <desc>Created with Sketch.</desc>
    <g id="icon/browser/database-open" stroke="none" stroke-width="1" fill="none" fill-rule="evenodd" stroke-linecap="round" stroke-linejoin="round">
        <g id="image-video_files-copy-2" transform="translate(2.000000, 2.000000)" stroke="#F3F5F7" stroke-width="1.5">
            <path d="M7.26715818,0.16044707 L0.452921208,3.32033506 C-0.150973736,3.60037251 -0.150973736,4.39962711 0.452921208,4.67966456 L7.26715797,7.83955293 C7.72849265,8.05348236 8.27150708,8.05348236 8.73284175,7.83955293 L15.5470785,4.67966456 C16.1509738,4.39962711 16.1509738,3.60037251 15.5470785,3.32033506 L8.73284195,0.16044707 C8.27150728,-0.0534823565 7.72849285,-0.0534823565 7.26715818,0.16044707 Z" id="Shape"></path>
            <path d="M0,9.5 L7.28445816,13.3227132 C7.7349022,13.5590956 8.2650978,13.5590956 8.71554184,13.3227132 L16,9.5" id="Shape"></path>
            <path d="M0,15 L7.28445816,18.8227126 C7.7349022,19.0590958 8.2650978,19.0590958 8.71554184,18.8227126 L16,15" id="Shape"></path>
        </g>
    </g>
</svg>