<?xml version="1.0" encoding="UTF-8"?>
<svg width="48px" height="48px" viewBox="0 0 48 48" version="1.1" xmlns="http://www.w3.org/2000/svg" xmlns:xlink="http://www.w3.org/1999/xlink">
    <!-- Generator: Sketch 53.2 (72643) - https://sketchapp.com -->
    <title>icon/global/add-project</title>
    <desc>Created with Sketch.</desc>
    <g id="icon/global/add-project" stroke="none" stroke-width="1" fill="none" fill-rule="evenodd">
        <path d="M38,42 L38,4 L10,4 L10,42 L38,42 Z M38.5454545,46 L9.45454545,46 C7.41317941,46 6,44.145202 6,42.0909091 L6,3.90909091 C6,1.85479798 7.41317941,0 9.45454545,0 L38.5454545,0 C40.5868206,0 42,1.85479798 42,3.90909091 L42,42.0909091 C42,44.145202 40.5868206,46 38.5454545,46 Z" id="Shape" fill="#9b9c9e" fill-rule="nonzero"></path>
        <path d="M10,6 C11.1045695,6 12,6.8954305 12,8 C12,9.1045695 11.1045695,10 10,10 L4,10 C2.8954305,10 2,9.1045695 2,8 C2,6.8954305 2.8954305,6 4,6 L10,6 Z" id="Line" fill="#9b9c9e" fill-rule="nonzero"></path>
        <path d="M10,12 C11.1045695,12 12,12.8954305 12,14 C12,15.1045695 11.1045695,16 10,16 L4,16 C2.8954305,16 2,15.1045695 2,14 C2,12.8954305 2.8954305,12 4,12 L10,12 Z" id="Line-Copy" fill="#9b9c9e" fill-rule="nonzero"></path>
        <path d="M31,10 C32.1045695,10 33,10.8954305 33,12 C33,13.1045695 32.1045695,14 31,14 L17,14 C15.8954305,14 15,13.1045695 15,12 C15,10.8954305 15.8954305,10 17,10 L31,10 Z" id="Line-Copy-8" fill="#9b9c9e" fill-rule="nonzero"></path>
        <path d="M31,25 C32.1045695,25 33,25.8954305 33,27 C33,28.1045695 32.1045695,29 31,29 L17,29 C15.8954305,29 15,28.1045695 15,27 C15,25.8954305 15.8954305,25 17,25 L31,25 Z" id="Line-Copy-12" fill="#9b9c9e" fill-rule="nonzero"></path>
        <path d="M31,17 C32.1045695,17 33,17.8954305 33,19 C33,20.1045695 32.1045695,21 31,21 L17,21 C15.8954305,21 15,20.1045695 15,19 C15,17.8954305 15.8954305,17 17,17 L31,17 Z" id="Line-Copy-9" fill="#9b9c9e" fill-rule="nonzero"></path>
        <path d="M31,32 C32.1045695,32 33,32.8954305 33,34 C33,35.1045695 32.1045695,36 31,36 L17,36 C15.8954305,36 15,35.1045695 15,34 C15,32.8954305 15.8954305,32 17,32 L31,32 Z" id="Line-Copy-13" fill="#9b9c9e" fill-rule="nonzero"></path>
        <path d="M10,30 C11.1045695,30 12,30.8954305 12,32 C12,33.1045695 11.1045695,34 10,34 L4,34 C2.8954305,34 2,33.1045695 2,32 C2,30.8954305 2.8954305,30 4,30 L10,30 Z" id="Line-Copy-4" fill="#9b9c9e" fill-rule="nonzero"></path>
        <path d="M10,18 C11.1045695,18 12,18.8954305 12,20 C12,21.1045695 11.1045695,22 10,22 L4,22 C2.8954305,22 2,21.1045695 2,20 C2,18.8954305 2.8954305,18 4,18 L10,18 Z" id="Line-Copy-10" fill="#9b9c9e" fill-rule="nonzero"></path>
        <path d="M10,36 C11.1045695,36 12,36.8954305 12,38 C12,39.1045695 11.1045695,40 10,40 L4,40 C2.8954305,40 2,39.1045695 2,38 C2,36.8954305 2.8954305,36 4,36 L10,36 Z" id="Line-Copy-5" fill="#9b9c9e" fill-rule="nonzero"></path>
        <path d="M10,24 C11.1045695,24 12,24.8954305 12,26 C12,27.1045695 11.1045695,28 10,28 L4,28 C2.8954305,28 2,27.1045695 2,26 C2,24.8954305 2.8954305,24 4,24 L10,24 Z" id="Line-Copy-11" fill="#9b9c9e" fill-rule="nonzero"></path>
        <circle id="Oval" fill="#9b9c9e" cx="32" cy="32" r="15"></circle>
        <g id="Group" transform="translate(16.000000, 16.000000)" fill="#9b9c9e" fill-rule="nonzero">
            <path d="M16,28 C22.627417,28 28,22.627417 28,16 C28,9.372583 22.627417,4 16,4 C9.372583,4 4,9.372583 4,16 C4,22.627417 9.372583,28 16,28 Z M16,32 C7.163444,32 0,24.836556 0,16 C0,7.163444 7.163444,0 16,0 C24.836556,0 32,7.163444 32,16 C32,24.836556 24.836556,32 16,32 Z" id="Oval"></path>
            <path d="M14,8 C14,6.8954305 14.8954305,6 16,6 C17.1045695,6 18,6.8954305 18,8 L18,24 C18,25.1045695 17.1045695,26 16,26 C14.8954305,26 14,25.1045695 14,24 L14,8 Z" id="Shape"></path>
            <path d="M24,14 C25.1045695,14 26,14.8954305 26,16 C26,17.1045695 25.1045695,18 24,18 L8,18 C6.8954305,18 6,17.1045695 6,16 C6,14.8954305 6.8954305,14 8,14 L24,14 Z" id="Shape"></path>
        </g>
    </g>
</svg>