<?xml version="1.0" encoding="UTF-8"?>
<svg width="48px" height="48px" viewBox="0 0 48 48" version="1.1" xmlns="http://www.w3.org/2000/svg" xmlns:xlink="http://www.w3.org/1999/xlink">
    <!-- Generator: Sketch 53.2 (72643) - https://sketchapp.com -->
    <title>icon/global/add</title>
    <desc>Created with Sketch.</desc>
    <g id="icon/global/add" stroke="none" stroke-width="1" fill="none" fill-rule="evenodd">
        <path d="M24,47 C11.2974508,47 1,36.7025492 1,24 C1,11.2974508 11.2974508,1 24,1 C36.7025492,1 47,11.2974508 47,24 C47,36.7025492 36.7025492,47 24,47 Z M22,22 L12,22 C10.8954305,22 10,22.8954305 10,24 C10,25.1045695 10.8954305,26 12,26 L22,26 L22,36 C22,37.1045695 22.8954305,38 24,38 C25.1045695,38 26,37.1045695 26,36 L26,26 L36,26 C37.1045695,26 38,25.1045695 38,24 C38,22.8954305 37.1045695,22 36,22 L26,22 L26,12 C26,10.8954305 25.1045695,10 24,10 C22.8954305,10 22,10.8954305 22,12 L22,22 Z" id="Combined-Shape" fill="#007EA8"></path>
        <path d="M24,46 C36.1502645,46 46,36.1502645 46,24 C46,11.8497355 36.1502645,2 24,2 C11.8497355,2 2,11.8497355 2,24 C2,36.1502645 11.8497355,46 24,46 Z M24,48 C10.745166,48 -7.10542736e-15,37.254834 -7.10542736e-15,24 C-7.10542736e-15,10.745166 10.745166,7.10542736e-15 24,7.10542736e-15 C37.254834,7.10542736e-15 48,10.745166 48,24 C48,37.254834 37.254834,48 24,48 Z" id="Oval-2" fill="#FFFFFF" fill-rule="nonzero" transform="translate(24.000000, 24.000000) rotate(-360.000000) translate(-24.000000, -24.000000) "></path>
        <g id="Group" transform="translate(24.000000, 24.000000) rotate(-45.000000) translate(-24.000000, -24.000000) translate(10.000000, 10.000000)"></g>
    </g>
</svg>