<?xml version="1.0" encoding="UTF-8"?>
<svg width="48px" height="48px" viewBox="0 0 48 48" version="1.1" xmlns="http://www.w3.org/2000/svg" xmlns:xlink="http://www.w3.org/1999/xlink">
    <!-- Generator: Sketch 53.2 (72643) - https://sketchapp.com -->
    <title>icon/global/close-dark</title>
    <desc>Created with Sketch.</desc>
    <g id="icon/global/close-dark" stroke="none" stroke-width="1" fill="none" fill-rule="evenodd">
        <path d="M24,47 C11.2974508,47 1,36.7025492 1,24 C1,11.2974508 11.2974508,1 24,1 C36.7025492,1 47,11.2974508 47,24 C47,36.7025492 36.7025492,47 24,47 Z M24,21.1715729 L16.9289322,14.1005051 C16.1478836,13.3194565 14.8815536,13.3194565 14.1005051,14.1005051 C13.3194565,14.8815536 13.3194565,16.1478836 14.1005051,16.9289322 L21.1715729,24 L14.1005051,31.0710678 C13.3194565,31.8521164 13.3194565,33.1184464 14.1005051,33.8994949 C14.8815536,34.6805435 16.1478836,34.6805435 16.9289322,33.8994949 L24,26.8284271 L31.0710678,33.8994949 C31.8521164,34.6805435 33.1184464,34.6805435 33.8994949,33.8994949 C34.6805435,33.1184464 34.6805435,31.8521164 33.8994949,31.0710678 L26.8284271,24 L33.8994949,16.9289322 C34.6805435,16.1478836 34.6805435,14.8815536 33.8994949,14.1005051 C33.1184464,13.3194565 31.8521164,13.3194565 31.0710678,14.1005051 L24,21.1715729 Z" id="Combined-Shape" fill="#9B9C9E"></path>
        <path d="M24,46 C36.1502645,46 46,36.1502645 46,24 C46,11.8497355 36.1502645,2 24,2 C11.8497355,2 2,11.8497355 2,24 C2,36.1502645 11.8497355,46 24,46 Z M24,48 C10.745166,48 -7.10542736e-15,37.254834 -7.10542736e-15,24 C-7.10542736e-15,10.745166 10.745166,7.10542736e-15 24,7.10542736e-15 C37.254834,7.10542736e-15 48,10.745166 48,24 C48,37.254834 37.254834,48 24,48 Z" id="Oval-2" fill="#FFFFFF" fill-rule="nonzero" transform="translate(24.000000, 24.000000) rotate(-360.000000) translate(-24.000000, -24.000000) "></path>
        <g id="Group" transform="translate(24.000000, 24.000000) rotate(-45.000000) translate(-24.000000, -24.000000) translate(10.000000, 10.000000)"></g>
    </g>
</svg>