<?xml version="1.0" encoding="UTF-8"?>
<svg width="48px" height="48px" viewBox="0 0 48 48" version="1.1" xmlns="http://www.w3.org/2000/svg" xmlns:xlink="http://www.w3.org/1999/xlink">
    <!-- Generator: Sketch 53.2 (72643) - https://sketchapp.com -->
    <title>icon/branch/commit-arrow48-thick</title>
    <desc>Created with Sketch.</desc>
    <g id="icon/branch/commit-arrow48-thick" stroke="none" stroke-width="1" fill="none" fill-rule="evenodd">
        <g id="Group-5-Copy-4" transform="translate(30.941176, 38.000000) rotate(180)" fill="#007EA8" fill-rule="nonzero">
            <path d="M11.64461,0.585786438 C12.4256586,-0.195262146 13.6919885,-0.195262146 14.4730371,0.585786438 C15.2540857,1.36683502 15.2540857,2.63316498 14.4730371,3.41421356 L3.47303709,14.4142136 C2.69198851,15.1952621 1.42565855,15.1952621 0.644609967,14.4142136 C-0.136438616,13.633165 -0.136438616,12.366835 0.644609967,11.5857864 L11.64461,0.585786438 Z" id="Shape"></path>
            <path d="M2.05882353,4 C0.95425403,4 0.0588235294,3.1045695 0.0588235294,2 C0.0588235294,0.8954305 0.95425403,4.4408921e-16 2.05882353,4.4408921e-16 L13.0588235,0 C14.163393,0 15.0588235,0.8954305 15.0588235,2 C15.0588235,3.1045695 14.163393,4 13.0588235,4 L2.05882353,4 Z" id="Shape"></path>
            <path d="M15.0588235,13 C15.0588235,14.1045695 14.163393,15 13.0588235,15 C11.954254,15 11.0588235,14.1045695 11.0588235,13 L11.0588235,2 C11.0588235,0.8954305 11.954254,-9.12603326e-14 13.0588235,0 C14.163393,9.13713549e-14 15.0588235,0.8954305 15.0588235,2 L15.0588235,13 Z" id="Shape"></path>
        </g>
    </g>
</svg>