<?xml version="1.0" encoding="UTF-8"?>
<svg width="48px" height="48px" viewBox="0 0 48 48" version="1.1" xmlns="http://www.w3.org/2000/svg" xmlns:xlink="http://www.w3.org/1999/xlink">
    <!-- Generator: Sketch 53 (72520) - https://sketchapp.com -->
    <title>icon/branch/create48-icon</title>
    <desc>Created with Sketch.</desc>
    <g id="icon/branch/create48-icon" stroke="none" stroke-width="1" fill="none" fill-rule="evenodd">
        <path d="M14.8076118,16.2218254 C14.4170876,15.8313011 14.4170876,15.1981361 14.8076118,14.8076118 C15.1981361,14.4170876 15.8313011,14.4170876 16.2218254,14.8076118 L33.1923882,31.7781746 C33.5829124,32.1686989 33.5829124,32.8018639 33.1923882,33.1923882 C32.8018639,33.5829124 32.1686989,33.5829124 31.7781746,33.1923882 L14.8076118,16.2218254 Z" id="Line" fill="#9b9c9e" fill-rule="nonzero" transform="translate(24.000000, 24.000000) rotate(-45.000000) translate(-24.000000, -24.000000) "></path>
        <path d="M31.7781746,14.8076118 C32.1686989,14.4170876 32.8018639,14.4170876 33.1923882,14.8076118 C33.5829124,15.1981361 33.5829124,15.8313011 33.1923882,16.2218254 L16.2218254,33.1923882 C15.8313011,33.5829124 15.1981361,33.5829124 14.8076118,33.1923882 C14.4170876,32.8018639 14.4170876,32.1686989 14.8076118,31.7781746 L31.7781746,14.8076118 Z" id="Line" fill="#9b9c9e" fill-rule="nonzero" transform="translate(24.000000, 24.000000) rotate(-45.000000) translate(-24.000000, -24.000000) "></path>
    </g>
</svg>