<?xml version="1.0" encoding="UTF-8"?>
<svg width="48px" height="48px" viewBox="0 0 48 48" version="1.1" xmlns="http://www.w3.org/2000/svg" xmlns:xlink="http://www.w3.org/1999/xlink">
    <!-- Generator: Sketch 53.2 (72643) - https://sketchapp.com -->
    <title>icon/branch/create48-thick</title>
    <desc>Created with Sketch.</desc>
    <g id="icon/branch/create48-thick" stroke="none" stroke-width="1" fill="none" fill-rule="evenodd">
        <g id="Group" transform="translate(10.000000, 10.000000)" fill="#9b9c9e" fill-rule="nonzero">
            <path d="M12,2 C12,0.8954305 12.8954305,0 14,0 C15.1045695,0 16,0.8954305 16,2 L16,26 C16,27.1045695 15.1045695,28 14,28 C12.8954305,28 12,27.1045695 12,26 L12,2 Z" id="Shape"></path>
            <path d="M26,12 C27.1045695,12 28,12.8954305 28,14 C28,15.1045695 27.1045695,16 26,16 L2,16 C0.8954305,16 6.66133815e-16,15.1045695 0,14 C-4.4408921e-16,12.8954305 0.8954305,12 2,12 L26,12 Z" id="Shape"></path>
        </g>
    </g>
</svg>