<?xml version="1.0" encoding="UTF-8"?>
<svg width="48px" height="48px" viewBox="0 0 48 48" version="1.1" xmlns="http://www.w3.org/2000/svg" xmlns:xlink="http://www.w3.org/1999/xlink">
    <!-- Generator: Sketch 53 (72520) - https://sketchapp.com -->
    <title>icon/branch/delete48-icon</title>
    <desc>Created with Sketch.</desc>
    <g id="icon/branch/delete48-icon" stroke="none" stroke-width="1" fill="none" fill-rule="evenodd">
        <g id="Group-12" transform="translate(9.000000, 9.000000)" fill="#007EA8" fill-rule="nonzero">
            <path d="M14,9 C14,8.44771525 14.4477153,8 15,8 C15.5522847,8 16,8.44771525 16,9 L16,25 C16,25.5522847 15.5522847,26 15,26 C14.4477153,26 14,25.5522847 14,25 L14,9 Z" id="Line-2"></path>
            <path d="M9,9 C9,8.44771525 9.44771525,8 10,8 C10.5522847,8 11,8.44771525 11,9 L11,25 C11,25.5522847 10.5522847,26 10,26 C9.44771525,26 9,25.5522847 9,25 L9,9 Z" id="Line-2-Copy-2"></path>
            <path d="M19,9 C19,8.44771525 19.4477153,8 20,8 C20.5522847,8 21,8.44771525 21,9 L21,25 C21,25.5522847 20.5522847,26 20,26 C19.4477153,26 19,25.5522847 19,25 L19,9 Z" id="Line-2-Copy"></path>
            <path d="M1,6 C0.44771525,6 5.55111512e-16,5.55228475 0,5 C-6.66133815e-16,4.44771525 0.44771525,4 1,4 L29,4 C29.5522847,4 30,4.44771525 30,5 C30,5.55228475 29.5522847,6 29,6 L1,6 Z" id="Shape"></path>
            <path d="M24,28 L24,5 C24,4.44771525 24.4477153,4 25,4 C25.5522847,4 26,4.44771525 26,5 L26,29 C26,29.5522847 25.5522847,30 25,30 L5,30 C4.44771525,30 4,29.5522847 4,29 L4,5 C4,4.44771525 4.44771525,4 5,4 C5.55228475,4 6,4.44771525 6,5 L6,28 L24,28 Z" id="Path"></path>
            <path d="M20,4 L20,1 C20,0.44771525 20.4477153,0 21,0 C21.5522847,0 22,0.44771525 22,1 L22,5 C22,5.55228475 21.5522847,6 21,6 L9,6 C8.44771525,6 8,5.55228475 8,5 L8,1 C8,0.44771525 8.44771525,0 9,0 C9.55228475,0 10,0.44771525 10,1 L10,4 L20,4 Z" id="Path" transform="translate(15.000000, 3.000000) rotate(-180.000000) translate(-15.000000, -3.000000) "></path>
        </g>
    </g>
</svg>