<?xml version="1.0" encoding="UTF-8"?>
<svg width="48px" height="48px" viewBox="0 0 48 48" version="1.1" xmlns="http://www.w3.org/2000/svg" xmlns:xlink="http://www.w3.org/1999/xlink">
    <!-- Generator: Sketch 53.2 (72643) - https://sketchapp.com -->
    <title>icon/branch/manage48-thick-alt</title>
    <desc>Created with Sketch.</desc>
    <g id="icon/branch/manage48-thick-alt" stroke="none" stroke-width="1" fill="none" fill-rule="evenodd">
        <path d="M19,16 C17.8954305,16 17,15.1045695 17,14 C17,12.8954305 17.8954305,12 19,12 L39,12 C40.1045695,12 41,12.8954305 41,14 C41,15.1045695 40.1045695,16 39,16 L19,16 Z" id="Line-5" fill="#9b9c9e" fill-rule="nonzero"></path>
        <path d="M19,26 C17.8954305,26 17,25.1045695 17,24 C17,22.8954305 17.8954305,22 19,22 L39,22 C40.1045695,22 41,22.8954305 41,24 C41,25.1045695 40.1045695,26 39,26 L19,26 Z" id="Line-5-Copy-2" fill="#9b9c9e" fill-rule="nonzero"></path>
        <path d="M19,36 C17.8954305,36 17,35.1045695 17,34 C17,32.8954305 17.8954305,32 19,32 L39,32 C40.1045695,32 41,32.8954305 41,34 C41,35.1045695 40.1045695,36 39,36 L19,36 Z" id="Line-5-Copy-4" fill="#9b9c9e" fill-rule="nonzero"></path>
        <path d="M10,16 C8.8954305,16 8,15.1045695 8,14 C8,12.8954305 8.8954305,12 10,12 L12,12 C13.1045695,12 14,12.8954305 14,14 C14,15.1045695 13.1045695,16 12,16 L10,16 Z" id="Line-5-Copy" fill="#9b9c9e" fill-rule="nonzero"></path>
        <path d="M10,26 C8.8954305,26 8,25.1045695 8,24 C8,22.8954305 8.8954305,22 10,22 L12,22 C13.1045695,22 14,22.8954305 14,24 C14,25.1045695 13.1045695,26 12,26 L10,26 Z" id="Line-5-Copy-3" fill="#9b9c9e" fill-rule="nonzero"></path>
        <path d="M10,36 C8.8954305,36 8,35.1045695 8,34 C8,32.8954305 8.8954305,32 10,32 L12,32 C13.1045695,32 14,32.8954305 14,34 C14,35.1045695 13.1045695,36 12,36 L10,36 Z" id="Line-5-Copy-5" fill="#9b9c9e" fill-rule="nonzero"></path>
    </g>
</svg>