<?xml version="1.0" encoding="UTF-8"?>
<svg width="48px" height="48px" viewBox="0 0 48 48" version="1.1" xmlns="http://www.w3.org/2000/svg" xmlns:xlink="http://www.w3.org/1999/xlink">
    <!-- Generator: Sketch 53 (72520) - https://sketchapp.com -->
    <title>icon/branch/manage48-icon</title>
    <desc>Created with Sketch.</desc>
    <g id="icon/branch/manage48-icon" stroke="none" stroke-width="1" fill="none" fill-rule="evenodd">
        <path d="M31.2928932,30.7071068 C30.9023689,30.3165825 30.9023689,29.6834175 31.2928932,29.2928932 C31.6834175,28.9023689 32.3165825,28.9023689 32.7071068,29.2928932 L36.7071068,33.2928932 C37.0976311,33.6834175 37.0976311,34.3165825 36.7071068,34.7071068 L32.7071068,38.7071068 C32.3165825,39.0976311 31.6834175,39.0976311 31.2928932,38.7071068 C30.9023689,38.3165825 30.9023689,37.6834175 31.2928932,37.2928932 L34.5857864,34 L31.2928932,30.7071068 Z" id="Shape" fill="#9b9c9e" fill-rule="nonzero"></path>
        <path d="M7.98387516,25 C7.43159041,25 6.98387516,24.5522847 6.98387516,24 C6.98387516,23.4477153 7.43159041,23 7.98387516,23 L28,23 C28.5522847,23 29,23.4477153 29,24 C29,24.5522847 28.5522847,25 28,25 L7.98387516,25 Z" id="Line" fill="#9b9c9e" fill-rule="nonzero"></path>
        <path d="M32.2928932,10.7071068 C31.9023689,10.3165825 31.9023689,9.68341751 32.2928932,9.29289322 C32.6834175,8.90236893 33.3165825,8.90236893 33.7071068,9.29289322 L37.7071068,13.2928932 C38.0976311,13.6834175 38.0976311,14.3165825 37.7071068,14.7071068 L33.7071068,18.7071068 C33.3165825,19.0976311 32.6834175,19.0976311 32.2928932,18.7071068 C31.9023689,18.3165825 31.9023689,17.6834175 32.2928932,17.2928932 L35.5857864,14 L32.2928932,10.7071068 Z" id="Shape" fill="#9b9c9e" fill-rule="nonzero"></path>
        <path d="M25.2928932,20.7071068 C24.9023689,20.3165825 24.9023689,19.6834175 25.2928932,19.2928932 C25.6834175,18.9023689 26.3165825,18.9023689 26.7071068,19.2928932 L30.7071068,23.2928932 C31.0976311,23.6834175 31.0976311,24.3165825 30.7071068,24.7071068 L26.7071068,28.7071068 C26.3165825,29.0976311 25.6834175,29.0976311 25.2928932,28.7071068 C24.9023689,28.3165825 24.9023689,27.6834175 25.2928932,27.2928932 L28.5857864,24 L25.2928932,20.7071068 Z" id="Shape-Copy" fill="#9b9c9e" fill-rule="nonzero"></path>
        <path d="M36,23 C36.5522847,23 37,23.4477153 37,24 C37,24.5522847 36.5522847,25 36,25 L27.9528068,25 C24.4913054,25 22.975665,26.2647847 22.9611111,28.9978058 C22.9697369,32.9289676 20.4879387,35 15.9694202,35 L8,35 C7.44771525,35 7,34.5522847 7,34 C7,33.4477153 7.44771525,33 8,33 L15.9694202,33 C19.4544542,33 20.9671182,31.7376991 20.9611276,28.9946852 C20.9819946,25.0685487 23.4608165,23 27.9528068,23 L36,23 Z" id="Path-3" fill="#9b9c9e" fill-rule="nonzero" transform="translate(22.000000, 29.000000) scale(1, -1) translate(-22.000000, -29.000000) "></path>
        <path d="M36,13 C36.5522847,13 37,13.4477153 37,14 C37,14.5522847 36.5522847,15 36,15 C32.5384986,15 31.0228582,16.2647847 31.0083043,18.9978058 C31.0169301,22.9289676 28.5351319,25 24.0166134,25 L18.2119575,25 L17.7923164,25 L12.0471932,25 C11.4949085,25 11.0471932,24.5522847 11.0471932,24 C11.0471932,23.4477153 11.4949085,23 12.0471932,23 L24.0166134,23 C27.5016475,23 29.0143114,21.7376991 29.0083208,18.9946852 C29.0291878,15.0685487 31.5080097,13 36,13 Z" id="Path-3" fill="#9b9c9e" fill-rule="nonzero" transform="translate(24.023597, 19.000000) scale(-1, -1) translate(-24.023597, -19.000000) "></path>
    </g>
</svg>