<?xml version="1.0" encoding="UTF-8"?>
<svg width="48px" height="48px" viewBox="0 0 48 48" version="1.1" xmlns="http://www.w3.org/2000/svg" xmlns:xlink="http://www.w3.org/1999/xlink">
    <!-- Generator: Sketch 53.2 (72643) - https://sketchapp.com -->
    <title>icon/branch/merge48-thick</title>
    <desc>Created with Sketch.</desc>
    <g id="icon/branch/merge48-thick" stroke="none" stroke-width="1" fill="none" fill-rule="evenodd">
        <path d="M32.5857864,19.4142136 C31.8047379,18.633165 31.8047379,17.366835 32.5857864,16.5857864 C33.366835,15.8047379 34.633165,15.8047379 35.4142136,16.5857864 L41.4142136,22.5857864 C42.1952621,23.366835 42.1952621,24.633165 41.4142136,25.4142136 L35.4142136,31.4142136 C34.633165,32.1952621 33.366835,32.1952621 32.5857864,31.4142136 C31.8047379,30.633165 31.8047379,29.366835 32.5857864,28.5857864 L37.1715729,24 L32.5857864,19.4142136 Z" id="Shape" fill="#9b9c9e" fill-rule="nonzero"></path>
        <path d="M26,26 C24.8954305,26 24,25.1045695 24,24 C24,22.8954305 24.8954305,22 26,22 L38,22 C39.1045695,22 40,22.8954305 40,24 C40,25.1045695 39.1045695,26 38,26 L26,26 Z" id="Line" fill="#9b9c9e" fill-rule="nonzero"></path>
        <path d="M26,14 C27.1045695,14 28,14.8954305 28,16 C28,17.1045695 27.1045695,18 26,18 L15.2056611,18 C12.3527603,18 10,20.5649527 10,23.8954226 L10,23.9477234 C10,27.3188174 12.393355,30 15.2056611,30 L25.9408715,30 C27.045441,30 27.9408715,30.8954305 27.9408715,32 C27.9408715,33.1045695 27.045441,34 25.9408715,34 L15.2056611,34 C10.0766184,34 6,29.4331228 6,23.9477234 L6,23.8954226 C6,18.4292369 10.0628167,14 15.2056611,14 L26,14 Z" id="Shape" fill="#9b9c9e" fill-rule="nonzero" transform="translate(17.000000, 24.000000) rotate(-180.000000) translate(-17.000000, -24.000000) "></path>
    </g>
</svg>