<?xml version="1.0" encoding="UTF-8"?>
<svg width="48px" height="48px" viewBox="0 0 48 48" version="1.1" xmlns="http://www.w3.org/2000/svg" xmlns:xlink="http://www.w3.org/1999/xlink">
    <!-- Generator: Sketch 53 (72520) - https://sketchapp.com -->
    <title>icon/branch/merge48-icon</title>
    <desc>Created with Sketch.</desc>
    <g id="icon/branch/merge48-icon" stroke="none" stroke-width="1" fill="none" fill-rule="evenodd">
        <g id="Control-&amp;-Navigation_2-1-arrow-Copy" transform="translate(7.000000, 14.000000)" fill="#007EA8" fill-rule="nonzero">
            <path d="M25.2928932,3.70710678 C24.9023689,3.31658249 24.9023689,2.68341751 25.2928932,2.29289322 C25.6834175,1.90236893 26.3165825,1.90236893 26.7071068,2.29289322 L33.7071068,9.29289322 C34.0976311,9.68341751 34.0976311,10.3165825 33.7071068,10.7071068 L26.7071068,17.7071068 C26.3165825,18.0976311 25.6834175,18.0976311 25.2928932,17.7071068 C24.9023689,17.3165825 24.9023689,16.6834175 25.2928932,16.2928932 L31.5857864,10 L25.2928932,3.70710678 Z" id="Shape"></path>
            <path d="M21,11 C20.4477153,11 20,10.5522847 20,10 C20,9.44771525 20.4477153,9 21,9 L32,9 C32.5522847,9 33,9.44771525 33,10 C33,10.5522847 32.5522847,11 32,11 L21,11 Z" id="Line"></path>
            <path d="M20,0 C20.5522847,-7.10542736e-15 21,0.44771525 21,1 C21,1.55228475 20.5522847,2 20,2 L9.01788676,2 C5.15133162,2 2.01159668,5.46568989 2.01159668,9.88235043 L2.01159668,9.94118883 C2.01159668,14.39676 5.18831631,18 9.01788676,18 L19.9846191,18 C20.5369039,18 20.9846191,18.4477153 20.9846191,19 C20.9846191,19.5522847 20.5369039,20 19.9846191,20 L9.01788676,20 C4.02373635,20 0.0115966797,15.4491728 0.0115966797,9.94118883 L0.0115966797,9.88235043 C0.0115966797,4.40277338 4.00028058,1.41886503e-13 9.01788676,1.41886503e-13 L20,0 Z" id="Shape" transform="translate(10.505798, 10.000000) rotate(-180.000000) translate(-10.505798, -10.000000) "></path>
        </g>
    </g>
</svg>