<?xml version="1.0" encoding="UTF-8"?>
<svg width="48px" height="48px" viewBox="0 0 48 48" version="1.1" xmlns="http://www.w3.org/2000/svg" xmlns:xlink="http://www.w3.org/1999/xlink">
    <!-- Generator: Sketch 53.2 (72643) - https://sketchapp.com -->
    <title>icon/branch/reset48-thick</title>
    <desc>Created with Sketch.</desc>
    <g id="icon/branch/reset48-thick" stroke="none" stroke-width="1" fill="none" fill-rule="evenodd">
        <path d="M8.60728827,19.3143951 C7.82623969,18.5333465 7.82623969,17.2670165 8.60728827,16.4859679 C9.38833686,15.7049193 10.6546668,15.7049193 11.4357154,16.4859679 L17.4357154,22.4859679 C18.216764,23.2670165 18.216764,24.5333465 17.4357154,25.3143951 L11.4357154,31.3143951 C10.6546668,32.0954436 9.38833686,32.0954436 8.60728827,31.3143951 C7.82623969,30.5333465 7.82623969,29.2670165 8.60728827,28.4859679 L13.1930747,23.9001815 L8.60728827,19.3143951 Z" id="Shape" fill="#FFFFFF" fill-rule="nonzero" transform="translate(13.021502, 23.900181) rotate(-255.000000) translate(-13.021502, -23.900181) "></path>
        <path d="M26,40 C24.8954305,40 24,39.1045695 24,38 C24,36.8954305 24.8954305,36 26,36 C32.0751322,36 37,31.0751322 37,25 C37,18.9248678 32.0751322,14 26,14 C19.9248678,14 15,18.9248678 15,25 C15,26.1045695 14.1045695,27 13,27 C11.8954305,27 11,26.1045695 11,25 C11,16.7157288 17.7157288,10 26,10 C34.2842712,10 41,16.7157288 41,25 C41,33.2842712 34.2842712,40 26,40 Z" id="Oval-11" fill="#FFFFFF" fill-rule="nonzero"></path>
    </g>
</svg>