<?xml version="1.0" encoding="UTF-8"?>
<svg width="48px" height="48px" viewBox="0 0 48 48" version="1.1" xmlns="http://www.w3.org/2000/svg" xmlns:xlink="http://www.w3.org/1999/xlink">
    <!-- Generator: Sketch 53 (72520) - https://sketchapp.com -->
    <title>icon/branch/reset48-icon</title>
    <desc>Created with Sketch.</desc>
    <g id="icon/branch/reset48-icon" stroke="none" stroke-width="1" fill="none" fill-rule="evenodd">
        <g id="Group-2" transform="translate(7.697717, 11.000000)" fill="#9b9c9e" fill-rule="nonzero">
            <path d="M18.3022833,26 C17.7499985,26 17.3022833,25.5522847 17.3022833,25 C17.3022833,24.4477153 17.7499985,24 18.3022833,24 C24.3774155,24 29.3022833,19.0751322 29.3022833,13 C29.3022833,6.92486775 24.3774155,2 18.3022833,2 C12.227151,2 7.30228328,6.92486775 7.30228328,13 C7.30228328,13.5522847 6.85456803,14 6.30228328,14 C5.74999853,14 5.30228328,13.5522847 5.30228328,13 C5.30228328,5.82029825 11.1225815,0 18.3022833,0 C25.481985,0 31.3022833,5.82029825 31.3022833,13 C31.3022833,20.1797017 25.481985,26 18.3022833,26 Z" id="Oval-11"></path>
            <path d="M3.29289322,6.64717968 C2.90236893,6.25665539 2.90236893,5.62349041 3.29289322,5.23296612 C3.68341751,4.84244183 4.31658249,4.84244183 4.70710678,5.23296612 L10.7071068,11.2329661 C11.0976311,11.6234904 11.0976311,12.2566554 10.7071068,12.6471797 L4.70710678,18.6471797 C4.31658249,19.037704 3.68341751,19.037704 3.29289322,18.6471797 C2.90236893,18.2566554 2.90236893,17.6234904 3.29289322,17.2329661 L8.58578644,11.9400729 L3.29289322,6.64717968 Z" id="Shape" transform="translate(7.000000, 11.940073) rotate(-261.000000) translate(-7.000000, -11.940073) "></path>
        </g>
    </g>
</svg>