<?xml version="1.0" encoding="UTF-8"?>
<svg width="48px" height="48px" viewBox="0 0 48 48" version="1.1" xmlns="http://www.w3.org/2000/svg" xmlns:xlink="http://www.w3.org/1999/xlink">
    <!-- Generator: Sketch 53.2 (72643) - https://sketchapp.com -->
    <title>icon/branch/switch48-thick</title>
    <desc>Created with Sketch.</desc>
    <g id="icon/branch/switch48-thick" stroke="none" stroke-width="1" fill="none" fill-rule="evenodd">
        <path d="M32.5857864,10.4142136 C31.8047379,9.63316498 31.8047379,8.36683502 32.5857864,7.58578644 C33.366835,6.80473785 34.633165,6.80473785 35.4142136,7.58578644 L41.4142136,13.5857864 C42.1952621,14.366835 42.1952621,15.633165 41.4142136,16.4142136 L35.4142136,22.4142136 C34.633165,23.1952621 33.366835,23.1952621 32.5857864,22.4142136 C31.8047379,21.633165 31.8047379,20.366835 32.5857864,19.5857864 L37.1715729,15 L32.5857864,10.4142136 Z" id="Shape" fill="#FFFFFF" fill-rule="nonzero"></path>
        <path d="M32.5857864,29.4142136 C31.8047379,28.633165 31.8047379,27.366835 32.5857864,26.5857864 C33.366835,25.8047379 34.633165,25.8047379 35.4142136,26.5857864 L41.4142136,32.5857864 C42.1952621,33.366835 42.1952621,34.633165 41.4142136,35.4142136 L35.4142136,41.4142136 C34.633165,42.1952621 33.366835,42.1952621 32.5857864,41.4142136 C31.8047379,40.633165 31.8047379,39.366835 32.5857864,38.5857864 L37.1715729,34 L32.5857864,29.4142136 Z" id="Shape-Copy-2" fill="#FFFFFF" fill-rule="nonzero"></path>
        <g id="Group" transform="translate(8.000000, 15.000000)" fill="#FFFFFF" fill-rule="nonzero">
            <path d="M29.9248047,-2 C31.0293742,-2 31.9248047,-1.1045695 31.9248047,-2.45137244e-13 C31.9248047,1.1045695 31.0293742,2 29.9248047,2 L26.5801506,2 L24,2 C20.0368627,2 18.1818005,4.08694508 17.9992036,9.05643524 C17.7830938,16.7120684 14.3527486,21 8,21 L0.0576171875,21 C-1.04695231,21 -1.94238281,20.1045695 -1.94238281,19 C-1.94238281,17.8954305 -1.04695231,17 0.0576171875,17 L8,17 C11.9375333,17 13.8405214,14.6212649 14.0013477,8.92659138 C14.2589483,1.91305492 17.7372193,-2 24,-2 L29.9248047,-2 Z" id="Path-3"></path>
        </g>
        <g id="Group" transform="translate(23.000000, 24.500000) scale(1, -1) translate(-23.000000, -24.500000) translate(6.000000, 13.000000)" fill="#FFFFFF" fill-rule="nonzero">
            <path d="M32,-1.42108547e-14 C33.1045695,-1.42108547e-14 34,0.8954305 34,2 C34,3.1045695 33.1045695,4 32,4 L26,4 C24.8405997,4 23.836195,4.24898983 22.9139629,4.7228001 C21.9314746,5.22756788 20.7258153,4.84029887 20.2210476,3.85781056 C19.7162798,2.87532225 20.1035488,1.66966298 21.0860371,1.16489521 C22.5670001,0.404028763 24.1968191,2.66453526e-15 26,2.66453526e-15 L32,-1.42108547e-14 Z M13.0186133,18.2573354 C13.9810604,17.7153304 15.2006597,18.0561661 15.7426646,19.0186133 C16.2846696,19.9810604 15.9438339,21.2006597 14.9813867,21.7426646 C13.5117582,22.5702903 11.8506237,23 10,23 L2,23 C0.8954305,23 0,22.1045695 0,21 C0,19.8954305 0.8954305,19 2,19 L10,19 C11.1675021,19 12.1521494,18.7452871 13.0186133,18.2573354 Z" id="Shape"></path>
        </g>
    </g>
</svg>