<?xml version="1.0" encoding="UTF-8"?>
<svg width="48px" height="48px" viewBox="0 0 48 48" version="1.1" xmlns="http://www.w3.org/2000/svg" xmlns:xlink="http://www.w3.org/1999/xlink">
    <!-- Generator: Sketch 53 (72520) - https://sketchapp.com -->
    <title>icon/branch/switch48-icon</title>
    <desc>Created with Sketch.</desc>
    <g id="icon/branch/switch48-icon" stroke="none" stroke-width="1" fill="none" fill-rule="evenodd">
        <path d="M38.0262451,14 C38.5785299,14 39.0262451,14.4477153 39.0262451,15 C39.0262451,15.5522847 38.5785299,16 38.0262451,16 L34.6415597,16 L32.0255127,16 C27.2977124,16 25.0455206,18.5303953 25.0150141,23.998963 C25.0217838,30.5273493 21.9345592,34 16.013916,34 L13.3620353,34 L12.6545105,34 L8,34 C7.44771525,34 7,33.5522847 7,33 C7,32.4477153 7.44771525,32 8,32 L16.013916,32 C20.7738478,32 23.020689,29.4726507 23.0150302,23.9944256 C23.0514029,17.4696047 26.139543,14 32.0255127,14 L38.0262451,14 Z" id="Path-3" fill="#007EA8" fill-rule="nonzero"></path>
        <path d="M25.1850952,17.525238 C24.877688,17.0664142 25.0004354,16.4452613 25.4592591,16.137854 C25.2208744,16.2975693 25.9543148,15.8046722 26.119991,15.6956965 C27.8355474,14.5672666 29.194377,14.0257568 30.9974365,14.0257568 C32.2345246,14.0257568 32.9217415,14.0227758 34.0035312,14.0146693 L34.2381613,14.0129065 C35.4789256,14.0036143 36.3580029,14 38,14 C38.5522847,14 39,14.4477153 39,15 C39,15.5522847 38.5522847,16 38,16 C36.363262,16 35.4891289,16.0035939 34.2531391,16.0128504 L34.0185181,16.0146131 C32.932053,16.0227547 32.239968,16.0257568 30.9974365,16.0257568 C29.6605979,16.0257568 28.6381455,16.4332163 27.2190706,17.3666316 C27.1025196,17.4432945 26.6722811,17.732009 26.5569603,17.809596 C26.0997436,18.1040097 25.4890502,17.978909 25.1850952,17.525238 Z M21.4366404,30.170126 C21.8929447,29.8589912 22.515077,29.9766741 22.8262118,30.4329783 C23.1373467,30.8892825 23.0196638,31.5114148 22.5633596,31.8225497 C22.4432996,31.9044136 22.0044654,32.2086658 21.9185655,32.2675845 C20.1723639,33.4653033 18.8855993,34.001709 17.0216064,34.001709 L14.1034998,34.001709 L13.5202602,34.001709 L8,34.001709 C7.44771525,34.001709 7,33.5539937 7,33.001709 C7,32.4494242 7.44771525,32.001709 8,32.001709 L17.0216064,32.001709 C18.4003695,32.001709 19.3435734,31.6085213 20.7873011,30.6182693 C20.8667079,30.5638042 21.3086321,30.2574096 21.4366404,30.170126 Z" id="Path-3-Copy" fill="#007EA8" fill-rule="nonzero" transform="translate(23.000000, 24.000854) scale(1, -1) translate(-23.000000, -24.000854) "></path>
        <path d="M32.2928932,8.70710678 C31.9023689,8.31658249 31.9023689,7.68341751 32.2928932,7.29289322 C32.6834175,6.90236893 33.3165825,6.90236893 33.7071068,7.29289322 L40.7071068,14.2928932 C41.0976311,14.6834175 41.0976311,15.3165825 40.7071068,15.7071068 L33.7071068,22.7071068 C33.3165825,23.0976311 32.6834175,23.0976311 32.2928932,22.7071068 C31.9023689,22.3165825 31.9023689,21.6834175 32.2928932,21.2928932 L38.5857864,15 L32.2928932,8.70710678 Z" id="Shape" fill="#007EA8" fill-rule="nonzero"></path>
        <path d="M32.2928932,26.7071068 C31.9023689,26.3165825 31.9023689,25.6834175 32.2928932,25.2928932 C32.6834175,24.9023689 33.3165825,24.9023689 33.7071068,25.2928932 L40.7071068,32.2928932 C41.0976311,32.6834175 41.0976311,33.3165825 40.7071068,33.7071068 L33.7071068,40.7071068 C33.3165825,41.0976311 32.6834175,41.0976311 32.2928932,40.7071068 C31.9023689,40.3165825 31.9023689,39.6834175 32.2928932,39.2928932 L38.5857864,33 L32.2928932,26.7071068 Z" id="Shape-Copy" fill="#007EA8" fill-rule="nonzero"></path>
    </g>
</svg>