<?xml version="1.0" encoding="UTF-8"?>
<svg width="48px" height="48px" viewBox="0 0 48 48" version="1.1" xmlns="http://www.w3.org/2000/svg" xmlns:xlink="http://www.w3.org/1999/xlink">
    <!-- Generator: Sketch 53.2 (72643) - https://sketchapp.com -->
    <title>icon/branch/sync48-thick</title>
    <desc>Created with Sketch.</desc>
    <g id="icon/branch/sync48-thick" stroke="none" stroke-width="1" fill="none" fill-rule="evenodd">
        <g id="Group-5-Copy-4" transform="translate(25.941176, 11.000000)" fill="#FFFFFF" fill-rule="nonzero">
            <path d="M11.64461,0.585786438 C12.4256586,-0.195262146 13.6919885,-0.195262146 14.4730371,0.585786438 C15.2540857,1.36683502 15.2540857,2.63316498 14.4730371,3.41421356 L3.47303709,14.4142136 C2.69198851,15.1952621 1.42565855,15.1952621 0.644609967,14.4142136 C-0.136438616,13.633165 -0.136438616,12.366835 0.644609967,11.5857864 L11.64461,0.585786438 Z" id="Shape"></path>
            <path d="M2.05882353,4 C0.95425403,4 0.0588235294,3.1045695 0.0588235294,2 C0.0588235294,0.8954305 0.95425403,4.4408921e-16 2.05882353,4.4408921e-16 L13.0588235,0 C14.163393,0 15.0588235,0.8954305 15.0588235,2 C15.0588235,3.1045695 14.163393,4 13.0588235,4 L2.05882353,4 Z" id="Shape"></path>
            <path d="M15.0588235,13 C15.0588235,14.1045695 14.163393,15 13.0588235,15 C11.954254,15 11.0588235,14.1045695 11.0588235,13 L11.0588235,2 C11.0588235,0.8954305 11.954254,-9.12603326e-14 13.0588235,0 C14.163393,9.13713549e-14 15.0588235,0.8954305 15.0588235,2 L15.0588235,13 Z" id="Shape"></path>
        </g>
        <g id="Group-5-Copy-5" transform="translate(14.000000, 30.000000) rotate(-180.000000) translate(-14.000000, -30.000000) translate(8.000000, 24.000000)" fill="#FFFFFF" fill-rule="nonzero">
            <path d="M9.64460997,-0.414213562 C10.4256586,-1.19526215 11.6919885,-1.19526215 12.4730371,-0.414213562 C13.2540857,0.366835021 13.2540857,1.63316498 12.4730371,2.41421356 L1.47303709,13.4142136 C0.691988508,14.1952621 -0.574341449,14.1952621 -1.35539003,13.4142136 C-2.13643862,12.633165 -2.13643862,11.366835 -1.35539003,10.5857864 L9.64460997,-0.414213562 Z" id="Shape"></path>
            <path d="M0.0588235294,3 C-1.04574597,3 -1.94117647,2.1045695 -1.94117647,1 C-1.94117647,-0.1045695 -1.04574597,-1 0.0588235294,-1 L11.0588235,-1 C12.163393,-1 13.0588235,-0.1045695 13.0588235,1 C13.0588235,2.1045695 12.163393,3 11.0588235,3 L0.0588235294,3 Z" id="Shape"></path>
            <path d="M13.0588235,12 C13.0588235,13.1045695 12.163393,14 11.0588235,14 C9.95425403,14 9.05882353,13.1045695 9.05882353,12 L9.05882353,1 C9.05882353,-0.1045695 9.95425403,-1 11.0588235,-1 C12.163393,-1 13.0588235,-0.1045695 13.0588235,1 L13.0588235,12 Z" id="Shape"></path>
        </g>
    </g>
</svg>