<?xml version="1.0" encoding="UTF-8"?>
<svg width="48px" height="48px" viewBox="0 0 48 48" version="1.1" xmlns="http://www.w3.org/2000/svg" xmlns:xlink="http://www.w3.org/1999/xlink">
    <!-- Generator: Sketch 53 (72520) - https://sketchapp.com -->
    <title>icon/branch/sync48-icon</title>
    <desc>Created with Sketch.</desc>
    <g id="icon/branch/sync48-icon" stroke="none" stroke-width="1" fill="none" fill-rule="evenodd">
        <g id="Group-11" transform="translate(26.000000, 11.000000)" fill="#9b9c9e" fill-rule="nonzero">
            <g id="Group-5-Copy-4">
                <path d="M12.2928932,0.292893219 C12.6834175,-0.0976310729 13.3165825,-0.0976310729 13.7071068,0.292893219 C14.0976311,0.683417511 14.0976311,1.31658249 13.7071068,1.70710678 L1.6862915,13.7279221 C1.29576721,14.1184464 0.66260223,14.1184464 0.272077939,13.7279221 C-0.118446353,13.3373978 -0.118446353,12.7042328 0.272077939,12.3137085 L12.2928932,0.292893219 Z" id="Shape"></path>
                <path d="M1,2 C0.44771525,2 7.97107019e-16,1.55228475 0,1 C-7.97107019e-16,0.44771525 0.44771525,-4.5319635e-15 1,-5.32907052e-15 L13,-2.26485497e-14 C13.5522847,-2.34456567e-14 14,0.44771525 14,1 C14,1.55228475 13.5522847,2 13,2 L1,2 Z" id="Shape"></path>
                <path d="M14,13 C14,13.5522847 13.5522847,14 13,14 C12.4477153,14 12,13.5522847 12,13 L12,1 C12,0.44771525 12.4477153,-2.81764457e-14 13,-2.84217094e-14 C13.5522847,-2.86669731e-14 14,0.44771525 14,1 L14,13 Z" id="Shape"></path>
            </g>
        </g>
        <g id="Group-11-Copy" transform="translate(15.000000, 30.000000) rotate(-180.000000) translate(-15.000000, -30.000000) translate(8.000000, 23.000000)" fill="#9b9c9e" fill-rule="nonzero">
            <g id="Group-5-Copy-4">
                <path d="M12.2928932,0.292893219 C12.6834175,-0.0976310729 13.3165825,-0.0976310729 13.7071068,0.292893219 C14.0976311,0.683417511 14.0976311,1.31658249 13.7071068,1.70710678 L1.6862915,13.7279221 C1.29576721,14.1184464 0.66260223,14.1184464 0.272077939,13.7279221 C-0.118446353,13.3373978 -0.118446353,12.7042328 0.272077939,12.3137085 L12.2928932,0.292893219 Z" id="Shape"></path>
                <path d="M1,2 C0.44771525,2 7.97107019e-16,1.55228475 0,1 C-7.97107019e-16,0.44771525 0.44771525,-4.5319635e-15 1,-5.32907052e-15 L13,-2.26485497e-14 C13.5522847,-2.34456567e-14 14,0.44771525 14,1 C14,1.55228475 13.5522847,2 13,2 L1,2 Z" id="Shape"></path>
                <path d="M14,13 C14,13.5522847 13.5522847,14 13,14 C12.4477153,14 12,13.5522847 12,13 L12,1 C12,0.44771525 12.4477153,-2.81764457e-14 13,-2.84217094e-14 C13.5522847,-2.86669731e-14 14,0.44771525 14,1 L14,13 Z" id="Shape"></path>
            </g>
        </g>
    </g>
</svg>