<?xml version="1.0" encoding="UTF-8"?>
<svg width="38px" height="38px" viewBox="0 0 38 38" version="1.1" xmlns="http://www.w3.org/2000/svg" xmlns:xlink="http://www.w3.org/1999/xlink">
    <!-- Generator: Sketch 53.2 (72643) - https://sketchapp.com -->
    <title>icon/main/datasets</title>
    <desc>Created with Sketch.</desc>
    <g id="icon/main/datasets" stroke="none" stroke-width="1" fill="none" fill-rule="evenodd">
        <g id="image-video_files" transform="translate(2.000000, 2.000000)" fill="#1ad8c1" fill-rule="nonzero">
            <path d="M19.052439,-0.347726975 L33.1068019,6.47011385 C35.1037223,7.43882974 35.1037223,10.2337629 33.106802,11.2024788 L19.0524386,18.0203205 C17.8253213,18.6156011 16.3836625,18.6156011 15.1565452,18.0203205 L1.10218166,11.2024787 C-0.894737636,10.2337628 -0.894737636,7.43882992 1.10218188,6.47011384 L15.1565456,-0.347726985 C16.383663,-0.943007589 17.8253217,-0.943007589 19.052439,-0.347726975 Z M1.9751027,8.26956077 C1.48095535,8.50927423 1.48095535,9.16331845 1.97510253,9.40303183 L16.0294658,16.2208734 C16.705354,16.5487501 17.5036298,16.5487501 18.1795179,16.2208735 L32.2338813,9.40303181 C32.7280291,9.16331827 32.7280291,8.50927442 32.2338813,8.26956087 L18.1795184,1.45172006 C17.5036302,1.12384339 16.7053544,1.12384339 16.0294662,1.45172006 L1.9751027,8.26956077 Z" id="Shape"></path>
            <path d="M0.15954857,16.1305866 C-0.335054778,15.8848511 -0.536801971,15.2846878 -0.291066396,14.7900844 C-0.0453308221,14.2954811 0.554832456,14.0937339 1.0494358,14.3394695 L16.0736307,21.8039947 C16.7223861,22.1263181 17.4865982,22.1263181 18.1353536,21.8039947 L33.1595486,14.3394695 C33.6541519,14.0937339 34.2543152,14.2954811 34.5000508,14.7900844 C34.7457863,15.2846878 34.5440392,15.8848511 34.0494358,16.1305866 L19.0252408,23.5951119 C17.8159146,24.1959457 16.3930698,24.1959457 15.1837435,23.5951119 L0.15954857,16.1305866 Z" id="Shape"></path>
            <path d="M0.159548649,21.5957559 C-0.335054722,21.3500204 -0.536801967,20.7498572 -0.291066435,20.2552538 C-0.0453309043,19.7606504 0.554832356,19.5589032 1.04943573,19.8046387 L16.0736319,27.2691629 C16.7223867,27.5914871 17.4865977,27.5914871 18.1353537,27.2691623 L33.1595486,19.8046387 C33.654152,19.5589032 34.2543153,19.7606504 34.5000508,20.2552538 C34.7457863,20.7498572 34.5440391,21.3500204 34.0494357,21.5957559 L19.025242,29.0602789 C17.8159151,29.6611151 16.3930693,29.6611151 15.1837436,29.0602795 L0.159548649,21.5957559 Z" id="Shape"></path>
            <path d="M0.159548649,26.5957559 C-0.335054722,26.3500204 -0.536801967,25.7498572 -0.291066435,25.2552538 C-0.0453309043,24.7606504 0.554832356,24.5589032 1.04943573,24.8046387 L16.0736319,32.2691629 C16.7223867,32.5914871 17.4865977,32.5914871 18.1353537,32.2691623 L33.1595486,24.8046387 C33.654152,24.5589032 34.2543153,24.7606504 34.5000508,25.2552538 C34.7457863,25.7498572 34.5440391,26.3500204 34.0494357,26.5957559 L19.025242,34.0602789 C17.8159151,34.6611151 16.3930693,34.6611151 15.1837436,34.0602795 L0.159548649,26.5957559 Z" id="Shape-Copy"></path>
        </g>
    </g>
</svg>