<?xml version="1.0" encoding="UTF-8"?>
<svg width="48px" height="48px" viewBox="0 0 48 48" version="1.1" xmlns="http://www.w3.org/2000/svg" xmlns:xlink="http://www.w3.org/1999/xlink">
    <!-- Generator: Sketch 53.2 (72643) - https://sketchapp.com -->
    <title>icon/activity/add-note</title>
    <desc>Created with Sketch.</desc>
    <g id="icon/activity/add-note" stroke="none" stroke-width="1" fill="none" fill-rule="evenodd">
        <g id="icon/activity/object-note" transform="translate(14.000000, 11.000000)" fill="#1ad8c1" fill-rule="nonzero">
            <path d="M10,3 C10,1.2181903 12.1542838,0.325856715 13.4142136,1.58578644 L22.4142136,10.5857864 C23.6741433,11.8457162 22.7818097,14 21,14 L12,14 C10.8954305,14 10,13.1045695 10,12 L10,3 Z M14,10 L16.1715729,10 L14,7.82842712 L14,10 Z" id="Shape"></path>
            <path d="M2,22 L11.4869385,22 L11.4869385,26 L0.954545455,26 C-0.675024045,26 -2,24.675024 -2,23.0454545 L-2,3.95454545 C-2,2.32497595 -0.675024045,1 0.954545455,1 L20.0454545,1 C21.675024,1 23,2.32497595 23,3.95454545 L23,14.4006348 L19,14.4006348 L19,5 L2,5 L2,22 Z" id="Shape" transform="translate(10.500000, 13.500000) rotate(-90.000000) translate(-10.500000, -13.500000) "></path>
        </g>
    </g>
</svg>