<svg id="Layer_1" data-name="Layer 1" xmlns="http://www.w3.org/2000/svg" viewBox="0 0 280 62.27"><defs><style>.cls-1{fill:#1ad8c1;}</style></defs><title>gigantum-wordmark</title><path class="cls-1" d="M35.4,16.74V47.26a13.55,13.55,0,0,1-2.26,7.65,15.43,15.43,0,0,1-6.32,5.38,20.56,20.56,0,0,1-9.15,2,19.45,19.45,0,0,1-8.26-1.55,29,29,0,0,1-6.68-4.48l4.74-5.53a20.36,20.36,0,0,0,4.67,3.34,11.86,11.86,0,0,0,5.38,1.18A10.83,10.83,0,0,0,24.63,53a7.49,7.49,0,0,0,2.73-5.92V42a11.38,11.38,0,0,1-4.7,4.27,15.66,15.66,0,0,1-7.29,1.61,14.6,14.6,0,0,1-7.68-2.11A15.61,15.61,0,0,1,2.08,40,16.57,16.57,0,0,1,0,31.75a16.34,16.34,0,0,1,2.19-8.37A16,16,0,0,1,8,17.49a15.09,15.09,0,0,1,7.72-2.12,17.65,17.65,0,0,1,6.93,1.33,11,11,0,0,1,4.7,3.48L28,16.74ZM23.81,39.58a9,9,0,0,0,3.55-4.67V28.3a9,9,0,0,0-3.59-4.6,10.59,10.59,0,0,0-6-1.72,9.46,9.46,0,0,0-6.86,2.69,9.2,9.2,0,0,0-2.77,6.86A9.74,9.74,0,0,0,12.89,40a9.39,9.39,0,0,0,4.85,1.29A10.66,10.66,0,0,0,23.81,39.58Z"/><path class="cls-1" d="M46.55,11.71a6.42,6.42,0,0,1-4.26-1.59,5.41,5.41,0,0,1-2-4.23,5.53,5.53,0,0,1,2-4.24A6.32,6.32,0,0,1,46.55,0a6.14,6.14,0,0,1,4.18,1.66,5.59,5.59,0,0,1,1.93,4.23,5.46,5.46,0,0,1-1.95,4.21A6.2,6.2,0,0,1,46.55,11.71Zm0-8.54A3.21,3.21,0,0,0,44.36,4a2.37,2.37,0,0,0-.9,1.86,2.2,2.2,0,0,0,.88,1.81,3.29,3.29,0,0,0,2.21.84,3.06,3.06,0,0,0,2.08-.83,2.24,2.24,0,0,0,.86-1.82A2.38,2.38,0,0,0,48.61,4,3,3,0,0,0,46.55,3.17Z"/><rect class="cls-1" x="42.24" y="16.74" width="8.04" height="30.38"/><path class="cls-1" d="M90.64,16.74V47.26a13.55,13.55,0,0,1-2.26,7.65,15.56,15.56,0,0,1-6.32,5.38,20.64,20.64,0,0,1-9.16,2,19.48,19.48,0,0,1-8.26-1.55A29,29,0,0,1,58,56.24l4.74-5.53a20.36,20.36,0,0,0,4.67,3.34,11.9,11.9,0,0,0,5.39,1.18A10.86,10.86,0,0,0,79.87,53a7.49,7.49,0,0,0,2.73-5.92V42a11.41,11.41,0,0,1-4.71,4.27A15.61,15.61,0,0,1,70.6,47.9a14.63,14.63,0,0,1-7.68-2.11A15.58,15.58,0,0,1,57.32,40a16.47,16.47,0,0,1-2.09-8.22,16.35,16.35,0,0,1,2.2-8.37,15.87,15.87,0,0,1,5.81-5.89A15.09,15.09,0,0,1,71,15.37a17.62,17.62,0,0,1,6.93,1.33,11.08,11.08,0,0,1,4.71,3.48l.64-3.44ZM79,39.58a9.06,9.06,0,0,0,3.56-4.67V28.3A9,9,0,0,0,79,23.7,10.65,10.65,0,0,0,73,22a9.49,9.49,0,0,0-6.86,2.69,9.19,9.19,0,0,0-2.76,6.86A9.68,9.68,0,0,0,68.13,40,9.35,9.35,0,0,0,73,41.3,10.64,10.64,0,0,0,79,39.58Z"/><path class="cls-1" d="M129.93,16.74V47.12h-8.05V42.73a16.64,16.64,0,0,1-4.45,3.56,12.8,12.8,0,0,1-6.53,1.61,16.42,16.42,0,0,1-7.83-1.83,13.31,13.31,0,0,1-5.46-5.42,17.53,17.53,0,0,1-2-8.69,17.71,17.71,0,0,1,2.08-8.72,14.83,14.83,0,0,1,13.22-7.87q7.39,0,11.06,5.46l.57-4.09ZM118.69,39.61a9,9,0,0,0,3.19-4.77V28.23a8.39,8.39,0,0,0-3.34-4.53A9.73,9.73,0,0,0,112.83,22a8.76,8.76,0,0,0-6.46,2.69,9.39,9.39,0,0,0-2.66,6.86A9.82,9.82,0,0,0,108.45,40a8.93,8.93,0,0,0,4.67,1.29A9,9,0,0,0,118.69,39.61Z"/><path class="cls-1" d="M163.09,18A8.68,8.68,0,0,1,166,24.56V47.12h-8V27.44a5.93,5.93,0,0,0-1.4-3.74,5.07,5.07,0,0,0-3.78-1.43,7.36,7.36,0,0,0-6.13,3.19,13.17,13.17,0,0,0-2.41,8.15V47.12h-8V16.74h7.25l.57,5.38a12,12,0,0,1,4.78-4.92A14.49,14.49,0,0,1,156,15.44,10.23,10.23,0,0,1,163.09,18Z"/><path class="cls-1" d="M183.34,3.38V16.74h7.9v6.32h-7.9V47.12h-8V23.06h-5.24V16.74h5.24V3.38Z"/><path class="cls-1" d="M224.78,16.74V47.12h-7.25l-.5-5.46a12.07,12.07,0,0,1-4.67,4.92,13.56,13.56,0,0,1-7,1.83,9.82,9.82,0,0,1-6.93-2.55,8.75,8.75,0,0,1-2.84-6.57V16.74h8V36.41q.21,5,5,5.1a7,7,0,0,0,5.85-3.23,13.47,13.47,0,0,0,2.34-8.11V16.74Z"/><path class="cls-1" d="M277.24,17.89a9.24,9.24,0,0,1,2.76,6.6V47.12h-8V27.58A7.27,7.27,0,0,0,271,23.81a3.84,3.84,0,0,0-3.09-1.47,7,7,0,0,0-6,3.34,13.82,13.82,0,0,0-2.37,7.79V47.12h-8.11V27.58a7.2,7.2,0,0,0-1.11-3.73,4,4,0,0,0-3.2-1.51,6.48,6.48,0,0,0-4.31,1.58,10.44,10.44,0,0,0-2.91,4.16,14.4,14.4,0,0,0-1,5.39V47.12h-8V16.74H238l.65,5.31a12.25,12.25,0,0,1,4.66-4.95,13.14,13.14,0,0,1,6.75-1.73A11,11,0,0,1,256.2,17a7.64,7.64,0,0,1,3.26,4.63A13.67,13.67,0,0,1,264.2,17a11.73,11.73,0,0,1,6-1.66A9.8,9.8,0,0,1,277.24,17.89Z"/></svg>