<svg xmlns="http://www.w3.org/2000/svg" width="126" height="41" viewBox="0 0 126 41">
    <g fill="#F8F8F8" fill-rule="nonzero">
        <path d="M7.08 4.86h.4A7.745 7.745 0 0 1 11 6.12a7.947 7.947 0 0 1 2.95-3.563C15.34 1.446 16 1.877 16 1.226c0-.48-.64-.47-1.64-.57a12.26 12.26 0 0 0-4.78.5 7.177 7.177 0 0 0-2.5 3.703z"/>
        <path d="M2.14 7.371a7.273 7.273 0 0 0 .8 4.435l.3-.27a7.757 7.757 0 0 1 3.33-1.662A8.124 8.124 0 0 1 6 6.12c.024-.313.07-.624.14-.93a8.01 8.01 0 0 1 1.49-3.264 12.836 12.836 0 0 0-5.49 5.445z"/>
        <path d="M7.41 5.71H6.9c0 .17-.05.34-.07.52a7.343 7.343 0 0 0 .56 3.534 7.943 7.943 0 0 1 3 .28 8.075 8.075 0 0 1 .29-3.093A6.926 6.926 0 0 0 7.41 5.71zM.7 12.266c-.152 1.647.01 3.308.48 4.895a7.08 7.08 0 0 0 3.63 2.552v-.41A8.073 8.073 0 0 1 6 15.718a7.94 7.94 0 0 1-3-2.262 6.416 6.416 0 0 1-.54-.76 8.012 8.012 0 0 1-1.2-3.394c-.303.962-.49 1.957-.56 2.963z"/>
        <path d="M7.21 10.594a6.827 6.827 0 0 0-3.45 1.582c-.133.105-.26.22-.38.34.1.14.2.28.31.41a7 7 0 0 0 2.84 2.093A7.669 7.669 0 0 1 11 12.236a8.584 8.584 0 0 1-.39-1.311 6.934 6.934 0 0 0-3.4-.33zM6 20.794a7.727 7.727 0 0 1-4.06-1.672 12.927 12.927 0 0 0 5.33 5.646 6.995 6.995 0 0 0 4.33-.821 3.883 3.883 0 0 1-.26-.31 8.01 8.01 0 0 1-1.63-3.404 7.763 7.763 0 0 1-3.71.56z"/>
        <path d="M11.08 13.767c.12-.16.25-.33.38-.48l-.15-.27c-.524.1-1.034.262-1.52.48A7.001 7.001 0 0 0 7 15.77a7.19 7.19 0 0 0-1.36 3.614v.51c.165.034.332.057.5.07a6.844 6.844 0 0 0 3.46-.57 8.215 8.215 0 0 1 1.48-5.626zM19.33 22.025h-.39a7.705 7.705 0 0 1-3.51-1.231 7.867 7.867 0 0 1-2.21 3.003 6.1 6.1 0 0 1-.75.56 7.706 7.706 0 0 1-3.31 1.231 12.3 12.3 0 0 0 2.89.62 12.11 12.11 0 0 0 4.79-.49 7.177 7.177 0 0 0 2.49-3.693z"/>
        <path d="M24 19.443a7.012 7.012 0 0 0-.85-4.334l-.3.27a6.578 6.578 0 0 1-3 1.641 8.124 8.124 0 0 1 .54 3.754c0 .3-.08.62-.14.93a8.01 8.01 0 0 1-1.49 3.264A12.407 12.407 0 0 0 24 19.443z"/>
        <path d="M19 21.184h.51c0-.17.05-.34.06-.51A7.223 7.223 0 0 0 19 17.16a7.903 7.903 0 0 1-3-.28 8.275 8.275 0 0 1-.29 3.142A6.996 6.996 0 0 0 19 21.184zM12.81 15.019l-.37-.38a3.883 3.883 0 0 1-.26-.311 3.923 3.923 0 0 1-.25-.32l-.2.27a7.009 7.009 0 0 0-.91 1.681A7.272 7.272 0 0 0 12 23.106c.105.137.219.267.34.39a4 4 0 0 0 .4-.32 7.107 7.107 0 0 0 2.11-3.153c.37-1.1.47-2.275.29-3.423a7.998 7.998 0 0 1-1.62-.95 6.912 6.912 0 0 1-.71-.631zM25.31 11.745a2.74 2.74 0 0 0-2.57-2.131h-4.78a.36.36 0 0 0-.09.7c2.73.851 4.43 1.842 5.63 3.443a6.4 6.4 0 0 1 1.5 3.884V18a11.29 11.29 0 0 0 .65-4.284 12.242 12.242 0 0 0-.34-1.972zM42.22 7.191a.85.85 0 0 1 .85.841v9.85a5.178 5.178 0 0 1-1.14 3.643 4.358 4.358 0 0 1-3.38 1.23 7.266 7.266 0 0 1-4.67-1.53.12.12 0 0 1 0-.16.77.77 0 0 1 1.08-.271c.445.287.921.523 1.42.7.72.22 1.468.324 2.22.31a3.448 3.448 0 0 0 2.64-1c.638-.78.953-1.777.88-2.783V16.13a.12.12 0 0 0-.23-.06 3.672 3.672 0 0 1-1.29 1.36 4.697 4.697 0 0 1-2.49.641 4.996 4.996 0 0 1-2.63-.7 4.693 4.693 0 0 1-1.79-2.002 6.511 6.511 0 0 1-.63-2.923 6.43 6.43 0 0 1 .63-2.913 4.783 4.783 0 0 1 1.79-2.001 4.996 4.996 0 0 1 2.63-.691 4.697 4.697 0 0 1 2.46.62c.535.329.978.787 1.29 1.332a.12.12 0 0 0 .23-.06V7.31a.12.12 0 0 1 .13-.12zM41 15.88a5.108 5.108 0 0 0 1.05-3.403A5.008 5.008 0 0 0 41 9.093a4.098 4.098 0 0 0-5.86 0 4.948 4.948 0 0 0-1.08 3.383 5.008 5.008 0 0 0 1.08 3.413 4.088 4.088 0 0 0 5.86 0v-.01zM47.12 3.067h.36a.5.5 0 0 1 .5.5v.341a.12.12 0 0 1-.13.12h-.36a.49.49 0 0 1-.49-.49v-.35a.12.12 0 0 1 .12-.12zM47 17.571V7.31a.12.12 0 0 1 .12-.12.85.85 0 0 1 .88.821v10.28a.12.12 0 0 1-.12.12.85.85 0 0 1-.88-.841zM60.32 7.191a.85.85 0 0 1 .85.841v9.85A5.228 5.228 0 0 1 60 21.524a4.398 4.398 0 0 1-3.39 1.23 7.266 7.266 0 0 1-4.61-1.53.12.12 0 0 1 0-.2.77.77 0 0 1 1-.231c.446.286.922.52 1.42.7.72.219 1.468.323 2.22.31a3.478 3.478 0 0 0 2.65-1c.65-.791.972-1.801.9-2.823V16.13a.12.12 0 0 0-.23-.06 3.672 3.672 0 0 1-1.29 1.36 4.697 4.697 0 0 1-2.49.641 4.996 4.996 0 0 1-2.63-.7 4.693 4.693 0 0 1-1.79-2.002 6.511 6.511 0 0 1-.63-2.923 6.43 6.43 0 0 1 .63-2.913 4.783 4.783 0 0 1 1.79-2.001 4.996 4.996 0 0 1 2.63-.691 4.677 4.677 0 0 1 2.46.62A3.852 3.852 0 0 1 60 8.864a.12.12 0 0 0 .23-.06V7.31a.12.12 0 0 1 .12-.12h-.03zm-1.18 8.688a5.058 5.058 0 0 0 1.06-3.403 5.008 5.008 0 0 0-1.06-3.383 3.648 3.648 0 0 0-2.93-1.231 3.688 3.688 0 0 0-2.93 1.231 4.948 4.948 0 0 0-1.08 3.383 5.008 5.008 0 0 0 1.08 3.413 4.088 4.088 0 0 0 5.86 0v-.01zM73.29 11.065v7.227a.12.12 0 0 1-.12.12.87.87 0 0 1-.87-.871v-.7a.12.12 0 0 0-.23-.07c-.312.51-.74.938-1.25 1.25-.663.39-1.42.591-2.19.58a4.357 4.357 0 0 1-1.95-.44 3.6 3.6 0 0 1-1.42-1.22 3.005 3.005 0 0 1-.52-1.702 2.684 2.684 0 0 1 .66-1.942 4.068 4.068 0 0 1 2.18-1.001 22.15 22.15 0 0 1 4.25-.28h.34a.12.12 0 0 0 .13-.12v-.881a3.646 3.646 0 0 0-.65-2.402 2.609 2.609 0 0 0-2.07-.751 6.395 6.395 0 0 0-2 .29 6.887 6.887 0 0 0-1.21.52.83.83 0 0 1-1.11-.32.12.12 0 0 1 0-.16 6.837 6.837 0 0 1 1.9-.92 7.304 7.304 0 0 1 2.26-.361c2.58 0 3.87 1.385 3.87 4.154zm-2.78 6.005a3.522 3.522 0 0 0 1.31-1.37c.326-.617.49-1.306.48-2.003v-.68a.12.12 0 0 0-.13-.12h-.31c-1.24-.024-2.48.04-3.71.19a3.478 3.478 0 0 0-1.79.68 1.813 1.813 0 0 0-.51 1.402 2.243 2.243 0 0 0 .79 1.751 2.918 2.918 0 0 0 2 .68 3.498 3.498 0 0 0 1.87-.5v-.03zM86.11 11.175v7.117a.12.12 0 0 1-.12.12.85.85 0 0 1-.85-.841v-6.296a3.916 3.916 0 0 0-.72-2.612 2.928 2.928 0 0 0-2.32-.831 3.798 3.798 0 0 0-2.86 1.11 4.006 4.006 0 0 0-1.08 2.934v6.416a.12.12 0 0 1-.12.12.85.85 0 0 1-.85-.841V7.31a.12.12 0 0 1 .12-.12.83.83 0 0 1 .83.821v.7a.12.12 0 0 0 .23.06c.319-.53.77-.968 1.31-1.27A4.577 4.577 0 0 1 82 6.91c2.74 0 4.11 1.421 4.11 4.264zM95.13 18.382a.12.12 0 0 1-.1.12 9.401 9.401 0 0 1-1 .05 3.468 3.468 0 0 1-2.67-1.001 3.826 3.826 0 0 1-.94-2.713V8.142a.13.13 0 0 0-.13-.12h-2a.13.13 0 0 1-.12-.12.71.71 0 0 1 .71-.71h1.41a.13.13 0 0 0 .13-.13V3.807a.12.12 0 0 1 .12-.12.85.85 0 0 1 .85.84v2.533c0 .072.058.13.13.13h3.13a.12.12 0 0 1 .13.12.71.71 0 0 1-.71.711h-2.5a.13.13 0 0 0-.13.12v6.496c-.06.81.19 1.612.7 2.242a2.639 2.639 0 0 0 2.06.771h.21a.7.7 0 0 1 .72.73zM106 8.012v10.28a.12.12 0 0 1-.13.12.82.82 0 0 1-.82-.821v-.81a.13.13 0 0 0-.24-.06 3.792 3.792 0 0 1-1.33 1.3 4.447 4.447 0 0 1-2.28.59 3.828 3.828 0 0 1-3-1.09 4.547 4.547 0 0 1-1-3.203V7.31a.12.12 0 0 1 .12-.12.85.85 0 0 1 .85.841v6.166c-.075.922.18 1.841.72 2.592.576.6 1.391.908 2.22.84a3.728 3.728 0 0 0 2.8-1.1 4.106 4.106 0 0 0 1-2.943V7.311a.12.12 0 0 1 .13-.12.85.85 0 0 1 .96.821zM125.35 11.175v7.117a.12.12 0 0 1-.12.12.85.85 0 0 1-.85-.841v-6.296a4.247 4.247 0 0 0-.65-2.612 2.459 2.459 0 0 0-2.06-.831 3.309 3.309 0 0 0-2.59 1.09 4.317 4.317 0 0 0-1 2.954v6.416a.12.12 0 0 1-.12.12.85.85 0 0 1-.85-.841v-6.296a4.247 4.247 0 0 0-.65-2.612 2.459 2.459 0 0 0-2.06-.831 3.289 3.289 0 0 0-2.59 1.09 4.317 4.317 0 0 0-1 2.954v6.416a.12.12 0 0 1-.12.12.85.85 0 0 1-.85-.841V7.31a.12.12 0 0 1 .12-.12.83.83 0 0 1 .83.821v.62a.12.12 0 0 0 .23.06c.278-.489.673-.902 1.15-1.2a3.917 3.917 0 0 1 2.16-.581 3.26 3.26 0 0 1 3.36 2.002.12.12 0 0 0 .22 0 3.682 3.682 0 0 1 1.37-1.401 4.357 4.357 0 0 1 2.28-.601c2.56 0 3.79 1.421 3.79 4.264zM70 40.042a5.073 5.073 0 0 1-2-2.122 6.781 6.781 0 0 1-.71-3.173 6.28 6.28 0 0 1 1.61-4.424 6.476 6.476 0 0 1 5.56-1.642 6.467 6.467 0 0 1 3 1.261.24.24 0 0 1 .07.3v.06a1.78 1.78 0 0 1-2.31 1.002 4.576 4.576 0 0 0-1.64-.31 2.999 2.999 0 0 0-2.41 1c-.62.79-.927 1.78-.86 2.783a4.056 4.056 0 0 0 .86 2.762 3.069 3.069 0 0 0 2.41 1.001 4.796 4.796 0 0 0 1.64-.31 1.78 1.78 0 0 1 2.31 1 .26.26 0 0 1-.07.301c-.532.45-1.147.79-1.81 1.001a7.726 7.726 0 0 1-2.49.4 6.566 6.566 0 0 1-3.16-.89zM79.55 37.85V24.027c0-.15.12-.27.27-.27a2.721 2.721 0 0 1 2.72 2.722v13.833c0 .15-.12.27-.27.27a2.719 2.719 0 0 1-2.72-2.732zM85.85 23.717h1.43a1.32 1.32 0 0 1 1.32 1.31v1.102a.24.24 0 0 1-.24.24h-1.43a1.32 1.32 0 0 1-1.32-1.341v-1.071a.24.24 0 0 1 .24-.24zm-.23 14.133v-8.698a.27.27 0 0 1 .27-.27 2.721 2.721 0 0 1 2.72 2.722v8.708c0 .15-.12.27-.27.27a2.719 2.719 0 0 1-2.72-2.732zM101.68 35.267h-7.4a.26.26 0 0 0-.26.3c.06.795.392 1.544.94 2.122a3.388 3.388 0 0 0 2.39.781 5.525 5.525 0 0 0 2-.36 1.82 1.82 0 0 1 2.33 1 .25.25 0 0 1-.08.311c-.565.439-1.2.777-1.88 1.001-.8.268-1.637.407-2.48.41a6.137 6.137 0 0 1-4.52-1.631A5.919 5.919 0 0 1 91 34.697a6.812 6.812 0 0 1 .72-3.183 5.243 5.243 0 0 1 2-2.152 5.706 5.706 0 0 1 3-.76 4.838 4.838 0 0 1 3.81 1.55 6.17 6.17 0 0 1 1.4 4.284v.601a.26.26 0 0 1-.25.23zm-6.8-3.803a3.535 3.535 0 0 0-.85 1.901.26.26 0 0 0 .26.3h4.81a.27.27 0 0 0 .27-.28 3.255 3.255 0 0 0-.7-1.931 2.379 2.379 0 0 0-1.87-.751 2.539 2.539 0 0 0-1.92.76zM114.29 29.792a5.409 5.409 0 0 1 1 3.614v6.806a.37.37 0 0 1-.37.37 2.631 2.631 0 0 1-2.62-2.622v-4.384a3.145 3.145 0 0 0-.51-2.002 1.999 1.999 0 0 0-1.61-.62 2.739 2.739 0 0 0-2.07.81 3.004 3.004 0 0 0-.78 2.182v6.256c0 .2-.16.365-.36.37a2.619 2.619 0 0 1-2.62-2.622v-8.708c0-.201.16-.365.36-.37h.81a1.74 1.74 0 0 1 1.74 1.751 4.002 4.002 0 0 1 1.6-1.511 4.836 4.836 0 0 1 2.27-.52 3.888 3.888 0 0 1 3.16 1.2zM125.35 39.611v.841a.26.26 0 0 1-.24.24 10.64 10.64 0 0 1-1.09.05 4.997 4.997 0 0 1-3.63-1.13 4.507 4.507 0 0 1-1.17-3.384v-4.834a.27.27 0 0 0-.27-.26h-1.71a.27.27 0 0 1-.27-.27 2 2 0 0 1 2-2.003.27.27 0 0 0 .27-.26v-3.003a.26.26 0 0 1 .26-.27 2.719 2.719 0 0 1 2.72 2.733v.5a.27.27 0 0 0 .27.26H125a.27.27 0 0 1 .27.27 2 2 0 0 1-2 2.002h-.83a.27.27 0 0 0-.27.26v4.785c0 1.562.73 2.342 2.18 2.342a1 1 0 0 1 1 1.131z"/>
    </g>
</svg>
