<?xml version="1.0" encoding="utf-8"?>
<!-- Generator: Adobe Illustrator 22.1.0, SVG Export Plug-In . SVG Version: 6.00 Build 0)  -->
<svg version="1.1" id="Layer_1" xmlns="http://www.w3.org/2000/svg" xmlns:xlink="http://www.w3.org/1999/xlink" x="0px" y="0px"
	 viewBox="0 0 448.9 98.2" style="enable-background:new 0 0 448.9 98.2;" xml:space="preserve">
<style type="text/css">
	.st0{fill:#FFFFFF;}
</style>
<g>
	<g>
		<path class="st0" d="M55.8,26.4v48.1c0,4.5-1.2,8.5-3.6,12.1c-2.4,3.6-5.7,6.4-10,8.5c-4.3,2.1-9.1,3.1-14.4,3.1
			c-5.2,0-9.6-0.8-13-2.4c-3.5-1.6-7-4-10.5-7.1l7.5-8.7c2.4,2.3,4.9,4,7.4,5.3c2.5,1.2,5.3,1.9,8.5,1.9c4.7,0,8.4-1.2,11.2-3.5
			c2.8-2.3,4.2-5.4,4.3-9.3v-8c-1.7,2.8-4.1,5-7.4,6.7c-3.3,1.7-7.1,2.5-11.5,2.5s-8.4-1.1-12.1-3.3C8.4,70,5.5,66.9,3.3,63
			S0,54.8,0,50.1c0-4.8,1.2-9.2,3.5-13.2c2.3-4,5.4-7.1,9.2-9.3c3.8-2.2,7.9-3.3,12.2-3.3c4,0,7.6,0.7,10.9,2.1
			c3.3,1.4,5.8,3.2,7.4,5.5l1-5.4H55.8z M37.5,62.4c2.7-1.8,4.5-4.3,5.6-7.4V44.6c-1.1-3-2.9-5.4-5.7-7.2c-2.7-1.8-5.9-2.7-9.5-2.7
			c-4.3,0-7.9,1.4-10.8,4.2c-2.9,2.8-4.4,6.4-4.4,10.8c0,2.9,0.7,5.5,2,7.8s3.2,4.2,5.5,5.5c2.3,1.4,4.8,2,7.6,2
			C31.7,65.1,34.9,64.2,37.5,62.4z"/>
	</g>
	<g>
		<rect x="67.6" y="26.4" class="st0" width="12.7" height="47.9"/>
	</g>
	<g>
		<path class="st0" d="M69.3,5.1c1.5-1.3,3.2-2,5-2c1.8,0,3.4,0.7,4.9,2c1.5,1.3,2.2,2.9,2.2,4.8c0,1.9-0.7,3.4-2.2,4.7
			c-1.5,1.3-3.1,1.9-4.9,1.9c-1.9,0-3.5-0.6-5-1.9c-1.5-1.3-2.2-2.8-2.2-4.7C67,8,67.8,6.4,69.3,5.1z"/>
	</g>
	<g>
		<path class="st0" d="M144,26.4v48.1c0,4.5-1.2,8.5-3.6,12.1c-2.4,3.6-5.7,6.4-10,8.5c-4.3,2.1-9.1,3.1-14.4,3.1
			c-5.2,0-9.6-0.8-13-2.4c-3.5-1.6-7-4-10.5-7.1l7.5-8.7c2.4,2.3,4.9,4,7.4,5.3c2.5,1.2,5.3,1.9,8.5,1.9c4.7,0,8.4-1.2,11.2-3.5
			c2.8-2.3,4.2-5.4,4.3-9.3v-8c-1.7,2.8-4.1,5-7.4,6.7c-3.3,1.7-7.1,2.5-11.5,2.5s-8.4-1.1-12.1-3.3c-3.7-2.2-6.6-5.3-8.8-9.2
			c-2.2-3.9-3.3-8.2-3.3-13c0-4.8,1.2-9.2,3.5-13.2c2.3-4,5.4-7.1,9.2-9.3c3.8-2.2,7.9-3.3,12.2-3.3c4,0,7.6,0.7,10.9,2.1
			c3.3,1.4,5.8,3.2,7.4,5.5l1-5.4H144z M125.7,62.4c2.7-1.8,4.5-4.3,5.6-7.4V44.6c-1.1-3-2.9-5.4-5.7-7.2c-2.7-1.8-5.9-2.7-9.5-2.7
			c-4.3,0-7.9,1.4-10.8,4.2c-2.9,2.8-4.4,6.4-4.4,10.8c0,2.9,0.7,5.5,2,7.8s3.2,4.2,5.5,5.5c2.3,1.4,4.8,2,7.6,2
			C119.8,65.1,123,64.2,125.7,62.4z"/>
	</g>
	<g>
		<path class="st0" d="M205.9,26.4v47.9h-12.7v-6.9c-1.7,2-4.1,3.9-7,5.6c-2.9,1.7-6.4,2.5-10.3,2.5c-4.6,0-8.7-1-12.3-2.9
			c-3.6-1.9-6.5-4.8-8.6-8.6c-2.1-3.8-3.2-8.3-3.2-13.7c0-5.2,1.1-9.8,3.3-13.8c2.2-4,5.1-7,8.8-9.2c3.7-2.2,7.7-3.2,12.1-3.2
			c7.8,0,13.6,2.9,17.4,8.6l0.9-6.5H205.9z M188.2,62.5c2.4-1.8,4.1-4.3,5-7.5V44.5c-0.9-2.9-2.7-5.3-5.3-7.1
			c-2.6-1.8-5.6-2.7-9-2.7c-4,0-7.4,1.4-10.2,4.2c-2.8,2.8-4.2,6.4-4.2,10.8c0,2.9,0.7,5.5,2,7.8s3.2,4.2,5.4,5.5
			c2.3,1.4,4.7,2,7.4,2C182.9,65.1,185.8,64.3,188.2,62.5z"/>
	</g>
	<g>
		<path class="st0" d="M260.2,28.4c3,2.7,4.5,6.1,4.6,10.4v35.6h-12.7v-31c-0.2-2.5-0.9-4.5-2.2-5.9c-1.3-1.4-3.3-2.2-6-2.3
			c-3.9,0-7.2,1.7-9.7,5c-2.5,3.4-3.8,7.6-3.8,12.9v21.3h-12.7V26.4h11.4l0.9,8.5c1.7-3.3,4.2-5.9,7.5-7.8c3.3-1.8,7.1-2.8,11.4-2.8
			C253.5,24.4,257.3,25.7,260.2,28.4z"/>
	</g>
	<g>
		<path class="st0" d="M293.9,5.3v21.1h12.5v10h-12.5v37.9h-12.7V36.4H273v-10h8.3V5.3H293.9z"/>
	</g>
	<g>
		<path class="st0" d="M359.3,26.4v47.9h-11.4l-0.8-8.6c-1.7,3.2-4.1,5.8-7.4,7.8c-3.2,1.9-6.9,2.9-11.1,2.9c-4.4,0-8-1.3-10.9-4
			c-2.9-2.7-4.4-6.1-4.5-10.4V26.4h12.7v31c0.2,5.3,2.8,8,7.8,8c3.7,0,6.8-1.7,9.2-5.1c2.5-3.4,3.7-7.7,3.7-12.8V26.4H359.3z"/>
	</g>
	<g>
		<path class="st0" d="M444.5,28.2c2.8,2.6,4.2,6.1,4.4,10.4v35.7h-12.6V43.5c-0.2-2.6-0.7-4.5-1.7-5.9c-1-1.4-2.6-2.2-4.9-2.3
			c-3.9,0-7.1,1.8-9.5,5.3c-2.4,3.5-3.7,7.6-3.7,12.3v21.5h-12.8V43.5c-0.2-2.5-0.7-4.5-1.8-5.9c-1-1.4-2.7-2.2-5-2.4
			c-2.6,0-4.8,0.8-6.8,2.5c-2,1.7-3.5,3.9-4.6,6.6c-1.1,2.7-1.6,5.6-1.6,8.5v21.5h-12.7V26.4h11.4l1,8.4c1.8-3.4,4.3-6,7.4-7.8
			c3.1-1.8,6.6-2.7,10.6-2.7c3.9,0,7.1,0.9,9.7,2.5c2.6,1.7,4.3,4.1,5.2,7.3c2-3.1,4.5-5.5,7.5-7.2c3-1.7,6.2-2.6,9.4-2.6
			C438,24.2,441.8,25.6,444.5,28.2z"/>
	</g>
</g>
</svg>
