<svg xmlns="http://www.w3.org/2000/svg" width="515" height="73" viewBox="0 0 515 73">
    <g fill="none" fill-rule="nonzero">
        <g fill="#2F8DA3">
            <path d="M19 12.46c.38 0 .76 0 1.13.07A21.81 21.81 0 0 1 30 16a22.37 22.37 0 0 1 6.24-8.59 21.47 21.47 0 0 1 2.11-1.58c4-3 5.89-1.81 5.82-3.66 0-1.34-1.83-1.32-4.64-1.58A34.64 34.64 0 0 0 26 2a20.15 20.15 0 0 0-7 10.46z"/>
            <path d="M5 19.54a20.55 20.55 0 0 0 2.26 12.51c.27-.26.55-.51.84-.76a21.89 21.89 0 0 1 9.41-4.69A23 23 0 0 1 16 16a20.28 20.28 0 0 1 .4-2.65 22.64 22.64 0 0 1 4.21-9.19A36.17 36.17 0 0 0 5 19.54z"/>
            <path d="M19.9 14.86c-.49 0-1-.07-1.44-.08-.08.48-.14 1-.18 1.45a20.48 20.48 0 0 0 1.58 10 22.92 22.92 0 0 1 2.34-.12c2.1 0 4.188.303 6.2.9a23.08 23.08 0 0 1 .81-8.71 19.34 19.34 0 0 0-9.31-3.44zM1 33.35a36.52 36.52 0 0 0 1.36 13.8 19.82 19.82 0 0 0 10.24 7.21c0-.39 0-.77.08-1.15A23 23 0 0 1 16 43.09a22.12 22.12 0 0 1-9.96-8.53A22.68 22.68 0 0 1 2.7 25 36.69 36.69 0 0 0 1 33.35z"/>
            <path d="M19.34 28.64a19.45 19.45 0 0 0-9.75 4.45c-.37.31-.73.64-1.07 1a19.81 19.81 0 0 0 8.87 7.07 22.2 22.2 0 0 1 8.28-6.48 21.67 21.67 0 0 1 4.21-1.4 22.33 22.33 0 0 1-1.12-3.68 19.4 19.4 0 0 0-9.42-.96zM16.05 57.41A21.91 21.91 0 0 1 4.46 52.7a36.34 36.34 0 0 0 15 15.92 19.48 19.48 0 0 0 12.25-2.31c-.26-.28-.51-.57-.75-.86a22.79 22.79 0 0 1-4.59-9.61 21.83 21.83 0 0 1-10.32 1.57z"/>
            <path d="M30.27 37.6c.34-.47.71-.93 1.09-1.38-.15-.26-.29-.52-.43-.78a19.2 19.2 0 0 0-4.3 1.36 20 20 0 0 0-7.89 6.43 20.32 20.32 0 0 0-3.82 10.19c-.05.49-.07 1-.08 1.47.47.08.94.14 1.42.19A19.39 19.39 0 0 0 26 53.46a23.08 23.08 0 0 1 1.38-10.57 22.35 22.35 0 0 1 2.89-5.29zM53.58 60.91c-.38 0-.75 0-1.12-.07a21.81 21.81 0 0 1-9.9-3.48A22.47 22.47 0 0 1 36.32 66a22 22 0 0 1-11.48 5A34.93 34.93 0 0 0 33 72.77a34.49 34.49 0 0 0 13.51-1.39 20.23 20.23 0 0 0 7.07-10.47z"/>
            <path d="M66.78 53.6a19.87 19.87 0 0 0-2.42-12.23c-.28.27-.57.52-.85.77-2.74 2.32-5 3.87-8.48 4.63a22.81 22.81 0 0 1 1.54 10.58 25 25 0 0 1-.4 2.65A22.9 22.9 0 0 1 52 69.19c6.53-3.33 11.29-8.96 14.78-15.59z"/>
            <path d="M52.67 58.51c.48 0 1 .07 1.43.08.08-.48.14-1 .19-1.46a20.52 20.52 0 0 0-1.59-10 21.77 21.77 0 0 1-8.53-.77 23.1 23.1 0 0 1-.82 8.71 19.48 19.48 0 0 0 9.32 3.44zM35.17 41.1c-.35-.34-.71-.7-1-1.08-.29-.38-.51-.57-.75-.87-.24-.3-.48-.6-.7-.91-.2.25-.39.5-.58.76a19.9 19.9 0 0 0-2.56 4.74A20.57 20.57 0 0 0 28.41 54a20.27 20.27 0 0 0 4.35 10c.31.38.63.75 1 1.09.39-.28.77-.57 1.14-.89a20 20 0 0 0 6.06-9 20.6 20.6 0 0 0 .83-9.67 21.39 21.39 0 0 1-4.57-2.68 19.58 19.58 0 0 1-2.05-1.75zM70.47 31.88a7.74 7.74 0 0 0-7.28-6c-3.5-.09-8.3-.14-13.48.07a1.008 1.008 0 0 0-.26 2c7.71 2.41 12.52 5.2 15.9 9.72a18.13 18.13 0 0 1 4.16 10.88v1a32.16 32.16 0 0 0 1.83-12.1 32.09 32.09 0 0 0-.87-5.57z"/>
        </g>
        <path fill="#FFF" d="M115.17 23.89a2.37 2.37 0 0 1 2.36 2.37v27.4c0 4.48-1.053 7.86-3.16 10.14-2.107 2.28-5.25 3.423-9.43 3.43a20.28 20.28 0 0 1-13-4.27.35.35 0 0 1-.08-.45 2.15 2.15 0 0 1 3-.74 19.78 19.78 0 0 0 3.94 1.94c2.007.621 4.1.915 6.2.87 3.23 0 5.69-.9 7.37-2.68 1.68-1.78 2.52-4.41 2.52-7.85v-5.26a.35.35 0 0 0-.65-.16 10.21 10.21 0 0 1-3.58 3.77 12.92 12.92 0 0 1-7 1.78 13.89 13.89 0 0 1-7.33-1.94 13.06 13.06 0 0 1-5-5.49 17.89 17.89 0 0 1-1.78-8.14 17.69 17.69 0 0 1 1.78-8.1 13.09 13.09 0 0 1 5-5.46 13.89 13.89 0 0 1 7.33-1.94 12.89 12.89 0 0 1 6.85 1.75 10.55 10.55 0 0 1 3.62 3.71.34.34 0 0 0 .64-.17v-4.16a.35.35 0 0 1 .35-.35h.05zm-3.29 24.19c1.96-2.307 2.94-5.463 2.94-9.47 0-4.007-.98-7.15-2.94-9.43a10.19 10.19 0 0 0-8.17-3.42 10.33 10.33 0 0 0-8.17 3.42c-2 2.287-3 5.43-3 9.43s1 7.167 3 9.5a10.33 10.33 0 0 0 8.17 3.42 10.15 10.15 0 0 0 8.17-3.45zM128.82 12.41h1a1.4 1.4 0 0 1 1.39 1.4v.95a.34.34 0 0 1-.34.35h-1a1.37 1.37 0 0 1-1.38-1.37v-1a.35.35 0 0 1 .33-.33zm-.31 40.37V24.24a.35.35 0 0 1 .35-.35 2.36 2.36 0 0 1 2.36 2.37V54.8a.35.35 0 0 1-.34.35 2.37 2.37 0 0 1-2.37-2.37zM165.61 23.89a2.37 2.37 0 0 1 2.39 2.37v27.4c0 4.48-1.053 7.86-3.16 10.14-2.107 2.28-5.25 3.423-9.43 3.43a20.26 20.26 0 0 1-13-4.27.35.35 0 0 1-.08-.45 2.14 2.14 0 0 1 3-.74 16.82 16.82 0 0 0 10.14 2.81c3.23 0 5.69-.9 7.37-2.68 1.68-1.78 2.51-4.41 2.51-7.85v-5.26a.34.34 0 0 0-.64-.16 10.16 10.16 0 0 1-3.59 3.77 12.88 12.88 0 0 1-6.94 1.78 13.89 13.89 0 0 1-7.33-1.94 13.06 13.06 0 0 1-5-5.49 17.89 17.89 0 0 1-1.78-8.14 17.69 17.69 0 0 1 1.78-8.1 13.09 13.09 0 0 1 5-5.46 13.89 13.89 0 0 1 7.33-1.94 12.89 12.89 0 0 1 6.82 1.75 10.55 10.55 0 0 1 3.62 3.71.34.34 0 0 0 .64-.17v-4.16a.34.34 0 0 1 .35-.35zm-3.29 24.19c1.96-2.307 2.94-5.463 2.94-9.47 0-4.007-.98-7.15-2.94-9.43a10.19 10.19 0 0 0-8.17-3.42 10.32 10.32 0 0 0-8.15 3.42c-2 2.287-3 5.43-3 9.43s1 7.167 3 9.5a10.32 10.32 0 0 0 8.17 3.42 10.15 10.15 0 0 0 8.15-3.45zM201.75 34.67V54.8a.35.35 0 0 1-.35.35 2.43 2.43 0 0 1-2.4-2.43v-2a.34.34 0 0 0-.63-.19 10.35 10.35 0 0 1-3.5 3.47 11.65 11.65 0 0 1-6.1 1.61 12.16 12.16 0 0 1-5.46-1.23 9.8 9.8 0 0 1-3.94-3.38 8.3 8.3 0 0 1-1.45-4.74 7.44 7.44 0 0 1 1.84-5.4c1.22-1.27 3.25-2.18 6.07-2.74a64.34 64.34 0 0 1 11.85-.84h.94a.35.35 0 0 0 .35-.35v-2.38c0-3.06-.603-5.29-1.81-6.69-1.207-1.4-3.123-2.1-5.75-2.1a18.35 18.35 0 0 0-5.58.81 20 20 0 0 0-3.37 1.43 2.29 2.29 0 0 1-3.1-.89.35.35 0 0 1 .1-.45 19.26 19.26 0 0 1 5.27-2.56 20.54 20.54 0 0 1 6.3-1c7.14.007 10.713 3.863 10.72 11.57zM194 51.5a9.92 9.92 0 0 0 3.65-3.84A11.56 11.56 0 0 0 199 42.1v-2a.34.34 0 0 0-.35-.34h-.88a72.07 72.07 0 0 0-10.33.55c-2.37.36-4 1-5 1.87a5.06 5.06 0 0 0-1.44 3.93 6.16 6.16 0 0 0 2.21 4.89 8.2 8.2 0 0 0 5.56 1.91A10 10 0 0 0 194 51.5zM237.46 35v19.8a.35.35 0 0 1-.34.35 2.37 2.37 0 0 1-2.37-2.37V35.26c0-3.333-.667-5.757-2-7.27s-3.487-2.277-6.46-2.29a10.65 10.65 0 0 0-8 3.07 11.16 11.16 0 0 0-3 8.17V54.8a.35.35 0 0 1-.35.35 2.37 2.37 0 0 1-2.36-2.37V24.24a.34.34 0 0 1 .35-.35 2.3 2.3 0 0 1 2.3 2.3v1.94a.34.34 0 0 0 .64.17 10.24 10.24 0 0 1 3.65-3.54 12.94 12.94 0 0 1 6.56-1.65c7.587 0 11.38 3.963 11.38 11.89zM262.6 55a.34.34 0 0 1-.3.33c-.87.106-1.744.16-2.62.16-3.233 0-5.72-.937-7.46-2.81a10.64 10.64 0 0 1-2.62-7.53V26.56a.35.35 0 0 0-.34-.35h-5.57a.34.34 0 0 1-.35-.34 2 2 0 0 1 2-2h3.94a.35.35 0 0 0 .34-.35v-9.04a.35.35 0 0 1 .35-.34 2.37 2.37 0 0 1 2.37 2.36v7c0 .19.15.345.34.35h8.74a.35.35 0 0 1 .35.35 2 2 0 0 1-2 2h-7.11a.35.35 0 0 0-.34.35v18.07c0 2.76.64 4.84 1.93 6.27A7.4 7.4 0 0 0 260 53h.59a1.94 1.94 0 0 1 2.01 2zM292.81 26.25V54.8a.35.35 0 0 1-.35.35 2.3 2.3 0 0 1-2.3-2.3V50.6a.35.35 0 0 0-.64-.18 10.63 10.63 0 0 1-3.65 3.58 12.36 12.36 0 0 1-6.36 1.65c-3.62 0-6.367-1-8.24-3-1.873-2-2.81-4.97-2.81-8.91v-19.5a.35.35 0 0 1 .35-.35 2.36 2.36 0 0 1 2.36 2.37v17.13c0 3.28.667 5.693 2 7.24 1.333 1.547 3.4 2.32 6.2 2.32a10.26 10.26 0 0 0 7.78-3.07 11.29 11.29 0 0 0 2.94-8.17V24.24a.34.34 0 0 1 .34-.35 2.37 2.37 0 0 1 2.38 2.36zM346.8 35v19.8a.35.35 0 0 1-.34.35 2.37 2.37 0 0 1-2.37-2.37V35.26c0-3.333-.603-5.757-1.81-7.27s-3.123-2.277-5.75-2.29a9.14 9.14 0 0 0-7.2 3 12 12 0 0 0-2.68 8.21V54.8a.35.35 0 0 1-.34.35 2.37 2.37 0 0 1-2.37-2.37V35.26c0-3.333-.603-5.757-1.81-7.27s-3.123-2.277-5.75-2.29a9.14 9.14 0 0 0-7.2 3 12 12 0 0 0-2.68 8.21V54.8a.35.35 0 0 1-.34.35 2.37 2.37 0 0 1-2.37-2.37V24.24a.34.34 0 0 1 .35-.35 2.3 2.3 0 0 1 2.3 2.3v1.72a.34.34 0 0 0 .64.18 9.47 9.47 0 0 1 3.2-3.36 11 11 0 0 1 6-1.62c4.7 0 7.817 1.85 9.35 5.55a.34.34 0 0 0 .62 0 10.31 10.31 0 0 1 3.82-3.91 12.14 12.14 0 0 1 6.36-1.68c6.92.027 10.377 4.003 10.37 11.93z"/>
        <path fill="#4491A3" d="M364 54a13.65 13.65 0 0 1-5.62-5.72 18.33 18.33 0 0 1-1.95-8.65 17.13 17.13 0 0 1 4.38-12l.06-.06c3.767-3.713 8.81-5.21 15.13-4.49h.08a17.54 17.54 0 0 1 8.3 3.43.71.71 0 0 1 .19.82l-.07.18a4.86 4.86 0 0 1-6.29 2.61 12.66 12.66 0 0 0-4.45-.85 8.32 8.32 0 0 0-6.57 2.64c-1.56 1.75-2.34 4.28-2.34 7.57s.78 5.75 2.34 7.51a8.35 8.35 0 0 0 6.57 2.63 12.44 12.44 0 0 0 4.45-.85 4.87 4.87 0 0 1 6.31 2.61v.1a.72.72 0 0 1-.19.83 15.09 15.09 0 0 1-4.93 2.62 21.59 21.59 0 0 1-6.77 1.07c-3 .07-5.968-.617-8.63-2zM389.85 48.07v-37.7a.72.72 0 0 1 .72-.72 7.4 7.4 0 0 1 7.4 7.4v37.7a.72.72 0 0 1-.72.72 7.4 7.4 0 0 1-7.4-7.4zM407 9.65h3.89a3.6 3.6 0 0 1 3.6 3.6v3a.65.65 0 0 1-.65.65h-3.89a3.6 3.6 0 0 1-3.6-3.6v-3a.65.65 0 0 1 .65-.65zm-.61 38.42V24.41a.72.72 0 0 1 .72-.72 7.4 7.4 0 0 1 7.41 7.4v23.66a.72.72 0 0 1-.72.72 7.41 7.41 0 0 1-7.44-7.4h.03zM450 41h-20.08a.72.72 0 0 0-.72.81 9.33 9.33 0 0 0 2.58 5.76c1.513 1.427 3.68 2.14 6.5 2.14 1.85 0 3.683-.34 5.41-1a4.92 4.92 0 0 1 6.31 2.74.71.71 0 0 1-.22.85 17.55 17.55 0 0 1-5.12 2.59A21.55 21.55 0 0 1 438 56c-5.2 0-9.307-1.473-12.32-4.42s-4.517-6.977-4.51-12.09a18.52 18.52 0 0 1 1.95-8.64 14.19 14.19 0 0 1 5.44-5.85 15.62 15.62 0 0 1 8-2.08c4.373 0 7.827 1.41 10.36 4.23 2.533 2.82 3.803 6.7 3.81 11.64v1.55a.72.72 0 0 1-.73.66zm-18.45-10.29a9.52 9.52 0 0 0-2.32 5.15.72.72 0 0 0 .71.83H443a.73.73 0 0 0 .73-.77 8.75 8.75 0 0 0-1.91-5.25 6.43 6.43 0 0 0-5.07-2 6.87 6.87 0 0 0-5.2 2.04zM484.36 26.15c1.86 2.173 2.79 5.447 2.79 9.82v18.5a1 1 0 0 1-1 1 7.12 7.12 0 0 1-7.15-7.12V36.43c0-2.467-.467-4.267-1.4-5.4a5.35 5.35 0 0 0-4.39-1.69 7.43 7.43 0 0 0-5.62 2.21 8.2 8.2 0 0 0-2.11 5.92v17a1 1 0 0 1-1 1 7.13 7.13 0 0 1-7.13-7.12V24.69a1 1 0 0 1 1-1h2.19a4.74 4.74 0 0 1 4.74 4.74 11 11 0 0 1 4.36-4.09 13 13 0 0 1 6.17-1.44c3.85 0 6.68 1.1 8.55 3.25zM514.44 52.85l-.14 2.26a.73.73 0 0 1-.66.68c-1.06.09-2 .14-3 .14-4.46 0-7.753-1.03-9.88-3.09-2.127-2.06-3.187-5.127-3.18-9.2V30.52a.72.72 0 0 0-.72-.72h-4.67a.72.72 0 0 1-.72-.72 5.38 5.38 0 0 1 5.39-5.38.72.72 0 0 0 .72-.72v-8.07a.72.72 0 0 1 .72-.72 7.4 7.4 0 0 1 7.4 7.41V23a.73.73 0 0 0 .72.72h6.95a.72.72 0 0 1 .72.72 5.39 5.39 0 0 1-5.39 5.39h-2.28a.72.72 0 0 0-.72.72v13c0 4.253 1.973 6.377 5.92 6.37a2.78 2.78 0 0 1 2.82 2.93z"/>
    </g>
</svg>
