<?xml version="1.0" encoding="UTF-8"?>
<svg width="48px" height="48px" viewBox="0 0 48 48" version="1.1" xmlns="http://www.w3.org/2000/svg" xmlns:xlink="http://www.w3.org/1999/xlink">
    <!-- Generator: Sketch 53.2 (72643) - https://sketchapp.com -->
    <title>icon/branch/forked</title>
    <desc>Created with Sketch.</desc>
    <g id="icon/branch/forked" stroke="none" stroke-width="1" fill="none" fill-rule="evenodd">
        <path d="M36.2655027,26.6786116 C35.8907159,26.27296 35.9157367,25.6402896 36.3213884,25.2655027 C36.72704,24.8907159 37.3597104,24.9157367 37.7344973,25.3213884 L41.4301495,29.3213884 C41.7841531,29.7045452 41.7841531,30.2954548 41.4301495,30.6786116 L37.7344973,34.6786116 C37.3597104,35.0842633 36.72704,35.1092841 36.3213884,34.7344973 C35.9157367,34.3597104 35.8907159,33.72704 36.2655027,33.3213884 L39.3341768,30 L36.2655027,26.6786116 Z" id="Shape" fill="#9b9c9e" fill-rule="nonzero"></path>
        <path d="M7.98387516,19 C7.43159041,19 6.98387516,18.5522847 6.98387516,18 C6.98387516,17.4477153 7.43159041,17 7.98387516,17 L39,17 C39.5522847,17 40,17.4477153 40,18 C40,18.5522847 39.5522847,19 39,19 L7.98387516,19 Z" id="Line" fill="#9b9c9e" fill-rule="nonzero"></path>
        <path d="M36.2655027,14.6786116 C35.8907159,14.27296 35.9157367,13.6402896 36.3213884,13.2655027 C36.72704,12.8907159 37.3597104,12.9157367 37.7344973,13.3213884 L41.4301495,17.3213884 C41.7841531,17.7045452 41.7841531,18.2954548 41.4301495,18.6786116 L37.7344973,22.6786116 C37.3597104,23.0842633 36.72704,23.1092841 36.3213884,22.7344973 C35.9157367,22.3597104 35.8907159,21.72704 36.2655027,21.3213884 L39.3341768,18 L36.2655027,14.6786116 Z" id="Shape" fill="#9b9c9e" fill-rule="nonzero"></path>
        <path d="M39.0583496,17 C39.6106344,17 40.0583496,17.4477153 40.0583496,18 C40.0583496,18.5522847 39.6106344,19 39.0583496,19 L31,19 C27.5692881,19 26.0152936,20.5539944 25.9999983,23.9981689 C26.0083359,28.5515786 23.5599144,31 19,31 L11.0195313,31 C10.4672465,31 10.0195312,30.5522847 10.0195312,30 C10.0195312,29.4477153 10.4672465,29 11.0195312,29 L19,29 C22.454734,29 24.0063126,27.4484214 24.0000098,23.9955648 C24.0201881,19.4460056 26.4661937,17 31,17 L39.0583496,17 Z" id="Path-3" fill="#9b9c9e" fill-rule="nonzero" transform="translate(25.038940, 24.000000) scale(1, -1) translate(-25.038940, -24.000000) "></path>
    </g>
</svg>