<?xml version="1.0" encoding="UTF-8"?>
<svg width="16px" height="16px" viewBox="0 0 16 16" version="1.1" xmlns="http://www.w3.org/2000/svg" xmlns:xlink="http://www.w3.org/1999/xlink">
    <!-- Generator: Sketch 53.2 (72643) - https://sketchapp.com -->
    <title>form/check-selected</title>
    <desc>Created with Sketch.</desc>
    <g id="form/check-selected" stroke="none" stroke-width="1" fill="none" fill-rule="evenodd">
        <rect id="Rectangle-8-Copy" fill="#007EA8" x="0" y="0" width="16" height="16"></rect>
        <path d="M12.3671652,4.15822182 C12.4101338,4.11525317 12.4674255,4.09376885 12.5390398,4.09376885 C12.6106541,4.09376885 12.675107,4.11525317 12.7323987,4.15822182 L13.3339597,4.78126721 C13.3912514,4.82423586 13.419897,4.8815275 13.419897,4.9531418 C13.419897,5.0247561 13.3912514,5.08920908 13.3339597,5.14650072 L6.8886626,11.5917978 C6.84569396,11.6347665 6.78840232,11.6562508 6.71678801,11.6562508 C6.64517371,11.6562508 6.58072074,11.6347665 6.5234291,11.5917978 L3.66601404,8.71289846 C3.6087224,8.66992981 3.58007674,8.61263818 3.58007674,8.54102387 C3.58007674,8.46940957 3.6087224,8.4049566 3.66601404,8.34766496 L4.2675751,7.74610389 C4.32486674,7.68881225 4.38931971,7.6601666 4.46093402,7.6601666 C4.53254832,7.6601666 4.58983996,7.68881225 4.63280861,7.74610389 L6.71678801,9.8300833 L12.3671652,4.15822182 Z" id="c" fill="#FFFFFF" fill-rule="nonzero"></path>
    </g>
</svg>
