<?xml version="1.0" encoding="UTF-8"?>
<svg width="64px" height="64px" viewBox="0 0 64 64" version="1.1" xmlns="http://www.w3.org/2000/svg" xmlns:xlink="http://www.w3.org/1999/xlink">
    <!-- Generator: Sketch 50.2 (55047) - http://www.bohemiancoding.com/sketch -->
    <title>icon/alert/main</title>
    <desc>Created with Sketch.</desc>
    <defs></defs>
    <g id="icon/alert/main" stroke="none" stroke-width="1" fill="none" fill-rule="evenodd">
        <g id="Group-4" transform="translate(2.000000, 2.000000)">
            <circle id="Oval-Copy-4" stroke="#FFFFFF" stroke-width="2" fill="#007EA8" cx="30" cy="30" r="31"></circle>
            <circle id="Oval" fill="#FFFFFF" cx="30" cy="30" r="19"></circle>
        </g>
        <g id="Celebration-&amp;-Holidays_bell" transform="translate(21.000000, 17.000000)" stroke="#007EA8" stroke-width="3">
            <path d="M22.8528646,21.4198589 C23.3818561,22.970018 22.4349852,24.6249999 20.8054253,24.994201 C18.6541842,25.4815973 15.4401519,26 11.5008045,26 C7.53908033,26 4.33384381,25.4844647 2.19188274,24.9982537 C0.56349019,24.6286168 -0.381497419,22.9736784 0.14716688,21.4244839 L1.03513409,18.8223895 C1.70782986,16.8511263 2.05077723,14.7868205 2.05077723,12.7089261 L2.05077723,11.2307604 C2.05077723,6.13275205 6.28169508,2 11.5007958,2 L11.5008146,2 C16.7199153,2 20.9508325,6.13275205 20.9508325,11.2307605 L20.9508325,12.7089261 C20.9508325,14.7868206 21.2937799,16.8511264 21.966475,18.8223896 L22.8528646,21.4198589 Z" id="Shape"></path>
            <path d="M11,25.4284826 L10.8367328,27.2171208 C10.6589829,28.9332925 9.21232147,30.1706211 7.60552554,29.98077 L7.60551961,29.98077 C5.99872359,29.7909189 4.84025358,28.2457823 5.01800428,26.5296106 L5.05080017,25" id="Shape"></path>
            <path d="M9,2 C9,0.895430533 10.1192878,0 11.5,0 C12.8807122,0 14,0.895430533 14,2" id="Shape"></path>
        </g>
    </g>
</svg>