<?xml version="1.0" encoding="UTF-8"?>
<svg width="48px" height="48px" viewBox="0 0 48 48" version="1.1" xmlns="http://www.w3.org/2000/svg" xmlns:xlink="http://www.w3.org/1999/xlink">
    <!-- Generator: Sketch 53.2 (72643) - https://sketchapp.com -->
    <title>icon/branch/remote48-icon</title>
    <desc>Created with Sketch.</desc>
    <g id="icon/branch/remote48-icon" stroke="none" stroke-width="1" fill="none" fill-rule="evenodd">
        <path d="M41,27.6666667 C41,32.2521319 37.1200883,36 32.4367761,36 L15.8730695,36 C11.5348345,36 8,32.5854653 8,28.3333333 C8,24.0812014 11.5348345,20.6666667 15.8730695,20.6666667 C16.5072982,20.6666667 17.128244,20.7406004 17.7262252,20.8822398 C18.3020828,15.888636 22.6880116,12 27.9507722,12 C33.4330873,12 37.9638843,16.2198601 38.2272844,21.5127841 C39.9680761,23.1056607 41,25.296836 41,27.6666667 Z M32.4367761,32 C34.93107,32 36.9864865,30.0145347 36.9864865,27.6666667 C36.9864865,26.2714291 36.2744831,24.9695749 35.0526792,24.0844079 C34.5332252,23.7080761 34.2258687,23.1067011 34.2258687,22.4666667 L34.2258687,22 C34.2258687,18.7187986 31.4112823,16 27.9507722,16 C24.4902621,16 21.6756757,18.7187986 21.6756757,22 C21.6756757,22.557887 21.769836,23.16859 21.9457343,23.7916008 C22.5009541,25.7581231 20.0892374,27.1912667 18.617347,25.7694687 C17.8943536,25.0710806 16.9254498,24.6666667 15.8730695,24.6666667 C13.7238528,24.6666667 12.0135135,26.3187986 12.0135135,28.3333333 C12.0135135,30.3478681 13.7238528,32 15.8730695,32 L32.4367761,32 Z" id="Shape-Copy-10" fill="#1ad8c1" fill-rule="nonzero"></path>
    </g>
</svg>