<?xml version="1.0" encoding="UTF-8"?>
<svg width="48px" height="48px" viewBox="0 0 48 48" version="1.1" xmlns="http://www.w3.org/2000/svg" xmlns:xlink="http://www.w3.org/1999/xlink">
    <!-- Generator: Sketch 53.2 (72643) - https://sketchapp.com -->
    <title>icon/branch/private</title>
    <desc>Created with Sketch.</desc>
    <g id="icon/branch/private" stroke="none" stroke-width="1" fill="none" fill-rule="evenodd">
        <g id="Group-2" transform="translate(14.000000, 9.000000)" fill="#FFFFF">
            <path d="M19.5,12.5 L0.5,12.5 L0.5,23.25 C0.5,25.0571843 1.78250196,26.5 3.33333333,26.5 L16.6666667,26.5 C18.217496,26.5 19.5,25.0571831 19.5,23.25 L19.5,12.5 Z" id="Shape" stroke="#979797"></path>
            <path d="M6,8 C4.34314575,8 3,9.34314575 3,11 C3,12.6568542 4.34314575,14 6,14 L14,14 C15.6568542,14 17,12.6568542 17,11 C17,9.34314575 15.6568542,8 14,8 L6,8 Z M6,4 L14,4 C17.8659932,4 21,7.13400675 21,11 C21,14.8659932 17.8659932,18 14,18 L6,18 C2.13400675,18 -1,14.8659932 -1,11 C-1,7.13400675 2.13400675,4 6,4 Z" id="Rectangle-2" fill-rule="nonzero" transform="translate(10.000000, 11.000000) rotate(-90.000000) translate(-10.000000, -11.000000) "></path>
        </g>
    </g>
</svg>