<?xml version="1.0" encoding="UTF-8"?>
<svg width="48px" height="48px" viewBox="0 0 48 48" version="1.1" xmlns="http://www.w3.org/2000/svg" xmlns:xlink="http://www.w3.org/1999/xlink">
    <!-- Generator: Sketch 53.2 (72643) - https://sketchapp.com -->
    <title>icon/global/view-arrow</title>
    <desc>Created with Sketch.</desc>
    <g id="icon/global/view-arrow" stroke="none" stroke-width="1" fill="none" fill-rule="evenodd">
        <path d="M9,26 C7.8954305,26 7,25.1045695 7,24 C7,22.8954305 7.8954305,22 9,22 L33,22 C34.1045695,22 35,22.8954305 35,24 C35,25.1045695 34.1045695,26 33,26 L9,26 Z" id="Shape" fill="#1ad8c1" fill-rule="nonzero"></path>
        <path d="M24.4142136,30.4142136 C23.633165,31.1952621 22.366835,31.1952621 21.5857864,30.4142136 C20.8047379,29.633165 20.8047379,28.366835 21.5857864,27.5857864 L31.5857864,17.5857864 C32.366835,16.8047379 33.633165,16.8047379 34.4142136,17.5857864 L44.4142136,27.5857864 C45.1952621,28.366835 45.1952621,29.633165 44.4142136,30.4142136 C43.633165,31.1952621 42.366835,31.1952621 41.5857864,30.4142136 L33,21.8284271 L24.4142136,30.4142136 Z" id="Shape" fill="#1ad8c1" fill-rule="nonzero" transform="translate(33.000000, 24.000000) rotate(-270.000000) translate(-33.000000, -24.000000) "></path>
    </g>
</svg>